<svg width="375" height="812" viewBox="0 0 375 812" fill="none" xmlns="http://www.w3.org/2000/svg">
<mask id="mask0_8_822" style="mask-type:alpha" maskUnits="userSpaceOnUse" x="0" y="0" width="375" height="812">
<rect width="375" height="812" transform="matrix(1 0 0 -1 0 812)" fill="#D9D9D9"/>
</mask>
<g mask="url(#mask0_8_822)">
<path d="M-702.503 -423.977C-746.882 -424.412 -790.532 -412.68 -828.713 -390.056C-846.782 -378.581 -864.106 -365.973 -880.579 -352.305C-905.055 -332.91 -928.157 -314.597 -954.548 -305.107C-970.741 -299.322 -1091.91 -267.273 -1215.38 -238.513C-1387.46 -198.889 -1450.02 -191.689 -1472 -190.94L-1471.79 -184.697C-1449.61 -185.446 -1386.58 -192.688 -1214 -232.686C-1090.42 -261.321 -968.742 -293.453 -952.467 -299.28C-925.077 -309.103 -901.6 -327.749 -876.708 -347.477C-860.423 -360.941 -843.309 -373.369 -825.466 -384.687C-760.779 -423.894 -675.613 -428.431 -597.231 -396.84C-518.849 -365.25 -460.781 -302.734 -441.508 -229.606C-430.977 -189.649 -429.021 -146.03 -427.231 -103.826C-423.734 -23.2057 -420.695 46.4266 -365.333 83.0117C-345.477 96.1224 -321.251 102.116 -295.609 108.484C-272.049 114.311 -247.74 120.346 -225.095 132.416C-154.081 170.208 -127.815 247.249 -102.382 321.793C-96.8457 338.067 -91.6008 353.425 -85.7316 368.451C-64.5439 424.182 -21.9189 472.92 20.3314 489.693C30.4586 494.133 41.4247 496.334 52.4807 496.147C63.5367 495.96 74.4221 493.39 84.3937 488.611C112.699 474.918 129.974 445.284 148.248 413.901C157.009 398.226 166.64 383.052 177.095 368.451C203.04 333.881 238.243 307.363 278.631 291.962C319.02 276.561 362.943 272.908 405.322 281.424C447.7 289.941 486.801 310.279 518.102 340.087C549.403 369.895 571.625 407.954 582.198 449.862C587.458 473.193 591.295 496.822 593.687 520.618C602.262 590.958 610.337 634.827 650.506 652.1C683.266 666.126 718.398 650.81 759.067 633.079C789.745 619.718 821.506 605.9 855.472 603.944C927.194 599.782 983.389 647.896 1037.71 694.179C1090.53 739.255 1140.4 781.584 1197.85 770.429C1218.16 766.267 1239.93 755.404 1260.99 744.749C1302.29 723.938 1349.16 700.131 1394.2 728.1C1435.2 753.489 1439.69 801.978 1443.61 844.64C1444.73 856.71 1445.77 868.114 1447.56 878.811C1457.84 940.868 1505.59 1000.22 1575.27 1037.55C1609.78 1056.08 1642.62 1105.11 1677.38 1157.01C1712.13 1208.91 1754.8 1272.96 1788.06 1279.25L1789.23 1273.13C1758.51 1267.3 1716.21 1204.12 1682.25 1153.39C1647.03 1100.82 1613.77 1051.12 1577.89 1031.89C1509.87 995.475 1463.34 937.955 1453.39 877.646C1451.64 867.157 1450.6 855.878 1449.52 843.891C1445.35 799.647 1440.82 749.535 1397.15 722.481C1349.32 692.847 1300.83 717.404 1258.04 739.13C1237.22 749.618 1215.99 760.398 1196.51 764.103C1142.07 774.841 1093.28 733.303 1041.67 689.184C986.386 642.027 929.275 593.455 855.015 597.409C819.841 599.366 787.622 613.434 756.444 627.002C717.108 644.15 683.099 658.967 652.879 645.982C615.749 630.041 608.048 587.712 599.764 519.619C597.341 495.571 593.463 471.693 588.151 448.114C577.369 404.987 554.573 365.804 522.409 335.115C490.246 304.426 450.035 283.489 406.447 274.738C362.859 265.986 317.682 269.779 276.163 285.674C234.644 301.57 198.487 328.916 171.891 364.538C161.308 379.227 151.579 394.514 142.753 410.322C124.937 440.872 108.12 469.715 81.5215 482.576C72.3391 487.046 62.298 489.476 52.0875 489.699C41.8772 489.922 31.7395 487.932 22.371 483.866C-18.3391 467.676 -59.5488 420.394 -80.1537 366.161C-85.8564 351.261 -91.0596 335.944 -96.5958 319.754C-122.404 244.045 -149.086 165.755 -222.265 126.839C-245.617 114.353 -270.343 108.318 -294.236 102.407C-319.211 96.1641 -343.063 90.2954 -362.003 77.7675C-414.701 42.9304 -417.698 -25.2452 -421.112 -104.159C-422.985 -146.655 -424.9 -190.648 -435.598 -231.229C-455.37 -306.147 -514.978 -370.369 -595.025 -402.667C-629.158 -416.579 -665.643 -423.813 -702.503 -423.977Z" fill="#F7FBFF"/>
<path d="M-702.462 -445.787C-750.843 -446.237 -798.423 -433.426 -840.035 -408.744C-858.888 -396.837 -876.962 -383.742 -894.149 -369.537C-917.168 -351.265 -938.939 -334.034 -961.916 -325.751C-975.236 -321.006 -1092.66 -289.624 -1220.33 -260.073C-1351.99 -229.564 -1417.6 -218.451 -1449.27 -214.789L-1448.77 -210.627C-1416.8 -214.456 -1351.04 -225.402 -1219.16 -255.952C-1091.37 -285.587 -973.571 -317.011 -960.334 -321.797C-936.649 -330.122 -914.546 -347.727 -891.36 -366.207C-874.328 -380.335 -856.391 -393.335 -837.663 -405.123C-766.607 -448.243 -673.282 -453.445 -587.907 -419.025C-502.532 -384.604 -439.178 -316.095 -417.99 -235.891C-406.793 -193.437 -404.836 -148.486 -402.963 -105.034C-399.591 -27.9092 -396.927 33.0243 -351.763 62.8669C-335.362 73.73 -313.093 79.2241 -289.324 85.0926C-264.349 91.2942 -238.541 97.579 -213.315 111.106C-133.935 153.393 -104.838 238.675 -79.1964 313.885C-73.7018 329.951 -68.5402 345.101 -62.9623 359.668C-44.2723 408.781 -6.2262 452.983 29.5721 467.218C36.6161 470.42 44.2755 472.042 52.0129 471.97C59.7504 471.898 67.3783 470.134 74.3616 466.802C96.0903 456.313 111.575 429.717 128.017 401.581C137.198 385.106 147.331 369.18 158.363 353.883C187.038 315.826 225.893 286.653 270.441 269.731C314.99 252.81 363.416 248.831 410.13 258.253C456.844 267.674 499.94 290.113 534.445 322.979C568.95 355.844 593.456 397.797 605.134 443.993C610.714 468.247 614.787 492.823 617.33 517.58C625.864 587.628 633.648 618.678 659.83 629.957C683.058 639.946 712.321 627.169 749.368 611.061C782.002 596.827 815.678 582.134 854.057 580.012C935.394 575.516 997.874 628.833 1053.03 675.741C1103.52 718.777 1147.06 755.862 1193.1 746.788C1210.17 743.417 1230.56 733.136 1250.04 723.231C1292.34 701.837 1350.2 672.536 1406.47 707.414C1457.63 739.13 1462.88 796.442 1467.12 842.226C1468.21 854.046 1469.2 864.951 1470.83 874.69C1479.9 929.464 1523.07 982.406 1586.26 1016.2C1626.05 1037.51 1660.48 1088.96 1696.94 1143.44C1731.86 1195.55 1770.91 1251.65 1792.68 1255.61L1793.47 1251.45C1771.74 1247.28 1723.66 1175.53 1700.56 1141.03C1663.81 1086.13 1629.09 1034.22 1588.17 1012.42C1526.11 979.118 1483.77 927.383 1474.87 873.858C1473.28 864.243 1472.29 853.422 1471.24 841.934C1467.08 794.819 1461.55 736.466 1408.81 703.71C1350.53 667.624 1291.46 697.508 1248.3 719.36C1228.94 729.141 1208.92 739.255 1192.43 742.543C1148.27 751.242 1105.52 714.781 1055.98 672.536C1000.08 624.879 936.851 570.938 853.932 575.558C814.845 577.722 780.795 592.581 747.869 606.941C711.696 622.673 683.183 635.118 661.62 625.837C637.311 615.431 629.901 585.173 621.618 516.914C618.999 492.049 614.885 467.364 609.296 442.994C597.021 396.117 571.95 353.577 536.887 320.127C501.823 286.677 458.148 263.635 410.741 253.576C394.787 250.387 378.557 248.784 362.288 248.789C282.158 248.789 202.778 286.914 154.45 351.594C143.333 367.015 133.118 383.066 123.855 399.666C107.746 427.261 92.5522 453.316 71.989 463.264C65.4944 466.354 58.4006 467.982 51.2083 468.032C44.016 468.083 36.9003 466.554 30.363 463.555C-4.43616 449.737 -41.525 406.492 -59.8403 358.42C-65.3766 343.811 -70.5383 328.702 -75.9912 312.636C-101.924 236.677 -131.27 150.563 -212.108 107.527C-237.791 93.8332 -263.849 87.3819 -289.074 81.1386C-312.302 75.395 -334.239 69.9424 -350.015 59.4955C-393.472 30.7768 -396.053 -29.1994 -399.383 -105.158C-401.256 -148.819 -403.254 -193.978 -414.535 -236.848C-436.097 -318.509 -500.534 -388.1 -586.95 -422.979C-623.642 -437.893 -662.854 -445.635 -702.462 -445.787Z" fill="#F7FBFF"/>
<path d="M-702.461 -468.845C-755.041 -469.3 -806.74 -455.337 -851.94 -428.472C-871.571 -416.116 -890.383 -402.506 -908.26 -387.725C-929.864 -370.577 -950.177 -354.428 -969.658 -347.477C-981.189 -343.315 -1097.41 -312.183 -1225.49 -282.507C-1312.07 -262.445 -1379.88 -248.544 -1427.04 -241.218L-1426.38 -237.056C-1379.13 -244.423 -1311.24 -258.325 -1224.53 -278.428C-1096.33 -308.145 -979.857 -339.361 -968.243 -343.523C-948.138 -350.724 -927.574 -367.039 -905.804 -384.312C-888.011 -399.019 -869.297 -412.573 -849.775 -424.893C-772.518 -471.717 -671.575 -477.544 -579.706 -440.418C-487.838 -403.292 -419.238 -329.039 -396.219 -241.718C-384.397 -196.892 -382.399 -150.692 -380.443 -106.074C-377.238 -32.6539 -374.948 20.3717 -339.483 43.7628C-326.412 52.4201 -305.974 57.4561 -284.329 62.8254C-258.021 69.3598 -230.839 76.1026 -203.075 90.8781C-115.66 137.369 -83.7749 231.142 -58.05 306.476C-52.597 322.417 -47.5187 337.359 -42.1073 351.594C-25.7899 394.422 7.84387 434.129 37.4816 445.991C50.552 451.194 58.2944 448.863 63.8723 446.241C79.3156 438.791 93.7598 414.026 107.704 390.052C117.315 372.802 127.919 356.126 139.465 340.106C190.332 272.056 275.79 229.768 362.497 229.81C379.954 229.788 397.37 231.503 414.488 234.929C516.596 255.449 602.221 337.11 627.488 438.166C633.254 463.35 637.425 488.873 639.975 514.583C648.009 580.553 654.752 602.529 668.78 608.564C682.808 614.599 709.407 603.07 740.044 589.709C774.635 574.642 810.225 559.118 852.684 556.787C856.305 556.579 859.927 556.496 863.507 556.496C948.673 556.496 1014.78 612.892 1067.93 658.176C1113.72 697.259 1153.35 731.014 1188.65 724.063C1202.67 721.316 1221.49 711.577 1239.72 702.545C1284.18 680.069 1351.32 646.065 1418.71 687.686C1479.53 725.395 1485.65 791.739 1490.1 840.145C1491.1 851.258 1492.1 861.705 1493.56 870.695C1501.34 918.809 1540.09 965.591 1597.08 996.225C1641.91 1020.24 1677.88 1073.97 1715.96 1130.91C1758.34 1194.18 1784.86 1227.68 1797.05 1233.3L1798.8 1229.51C1791.02 1225.93 1770.95 1205.5 1719.42 1128.58C1681.04 1071.14 1644.78 1017.04 1599.04 992.479C1543.18 962.553 1505.21 916.894 1497.51 870.32C1496.05 861.455 1495.1 851.05 1494.1 840.062C1489.56 790.74 1483.32 723.231 1420.71 684.439C1351.53 641.611 1283.35 676.115 1237.89 699.132C1219.87 708.247 1201.3 717.612 1187.94 720.275C1154.64 726.852 1115.8 693.679 1070.8 655.305C1017.15 609.521 950.38 552.625 863.673 552.625C860.01 552.625 856.305 552.625 852.642 552.916C809.435 555.33 773.553 570.98 738.67 586.213C708.783 599.241 683.058 610.478 670.612 605.109C658.166 599.74 651.922 577.057 644.304 514.458C641.719 488.574 637.549 462.873 631.817 437.5C606.133 334.945 519.219 252.036 415.362 231.225C397.983 227.75 380.303 226.007 362.58 226.022C274.583 226.022 187.751 268.892 136.218 337.984C124.607 354.002 113.933 370.678 104.25 387.929C90.5546 411.404 76.4434 435.627 62.124 442.536C57.5035 444.784 50.6769 446.699 39.1049 442.162C10.2997 430.716 -22.2101 392.216 -38.1528 350.137C-43.5226 335.986 -48.601 321.002 -53.9707 305.353C-79.9869 229.144 -112.247 134.705 -201.035 87.257C-229.258 72.2318 -256.689 65.4058 -283.246 58.8297C-304.517 53.5438 -324.622 48.5908 -337.11 40.3082C-370.786 18.0408 -373.075 -34.069 -376.197 -106.24C-378.154 -151.108 -380.36 -197.516 -392.098 -242.758C-415.492 -331.37 -485.007 -406.705 -578.083 -444.289C-617.582 -460.379 -659.81 -468.716 -702.461 -468.845Z" fill="#F7FBFF"/>
<path d="M283.491 -124.595C252.396 -124.595 218.513 -116.271 177.927 -98.3324C163.733 -92.1308 149.58 -85.2217 135.885 -78.5623C114.199 -67.5542 91.9702 -57.6495 69.2836 -48.8863C17.8756 -29.9486 -39.4433 -22.6649 -85.4816 -16.7963C-105.462 -14.2574 -126.15 -11.6352 -144.465 -2.31201C-160.741 6.01224 -178.64 22.8688 -180.014 45.6357C-181.096 63.7409 -171.273 79.7652 -162.823 90.0457C-156.505 97.3973 -149.734 104.348 -142.551 110.856C-138.18 115.018 -133.643 119.181 -129.439 123.634C-93.5986 161.093 -76.4071 211.788 -59.7983 260.984C-46.2699 300.816 -32.2837 341.979 -8.39041 376.775C2.34908 392.383 12.714 402.705 24.2028 409.198C39.1048 417.522 56.5461 418.896 69.6999 412.569C85.7259 404.911 93.9262 388.429 101.835 372.488C102.834 370.49 103.792 368.326 104.791 366.619C119.661 337.719 140.137 312.067 165.023 291.16C170.356 286.909 175.914 282.949 181.674 279.298C200.655 266.811 222.176 252.66 219.345 227.354C218.243 220.001 216.402 212.778 213.851 205.794C211.52 199.419 209.778 192.843 208.647 186.149C208.189 182.861 208.065 179.448 207.898 176.118C208.128 168.302 206.591 160.534 203.402 153.393C197.533 142.447 185.878 137.702 174.597 133.082C165.523 129.378 156.157 125.59 150.038 118.556C137.55 104.53 142.753 81.6382 155.158 69.1102C166.314 57.8724 183.63 51.1714 206.649 49.2152C214.059 48.5909 221.718 48.4243 229.086 48.2578C240.942 48.2512 252.781 47.3748 264.509 45.6357C285.95 41.5762 305.953 31.9698 322.525 17.7733C339.096 3.57697 351.658 -14.7136 358.958 -35.276C363.121 -47.7624 368.574 -72.0692 356.711 -92.5053C346.179 -110.652 323.41 -122.14 294.064 -124.013C290.734 -124.471 287.112 -124.595 283.491 -124.595ZM51.5094 412.195C42.7409 412.067 34.148 409.719 26.5338 405.369C15.6278 399.167 5.72087 389.303 -4.64398 374.194C-28.2459 339.898 -42.1074 298.985 -55.5525 259.444C-72.2029 209.957 -89.6858 158.846 -126.317 120.721C-130.479 116.267 -135.183 111.939 -139.595 107.776C-146.642 101.396 -153.288 94.5844 -159.493 87.382C-167.443 77.7258 -176.767 62.6589 -175.727 45.7607C-174.478 24.7419 -157.703 9.00903 -142.426 1.26749C-124.735 -7.72272 -104.421 -10.3033 -84.7739 -12.8005C-38.5275 -18.6692 19.0411 -25.9945 70.8654 -45.0987C93.6333 -53.9245 115.945 -63.8843 137.717 -74.9411C151.37 -81.6005 165.481 -88.4681 179.592 -94.6697C224.257 -114.232 260.638 -122.348 294.022 -120.225C307.218 -119.351 339.353 -114.814 353.339 -90.7573C364.37 -71.7364 359.25 -48.8863 355.212 -36.941C348.172 -17.0805 336.045 0.585968 320.041 14.2946C304.038 28.0032 284.717 37.2744 264.01 41.1823C252.475 42.8929 240.83 43.7554 229.169 43.7628C221.759 43.7628 214.059 44.0957 206.483 44.7617C182.465 46.8011 164.274 53.8768 152.369 65.8637C138.674 79.7236 133.263 105.196 147.082 120.97C153.826 128.712 163.733 132.749 173.182 136.62C184.255 141.115 194.744 145.402 199.906 155.017C202.833 161.555 204.256 168.666 204.068 175.827C204.068 179.24 204.401 182.778 204.859 186.233C206.02 193.181 207.817 200.008 210.229 206.627C212.686 213.368 214.458 220.341 215.516 227.438C218.096 250.246 198.615 263.065 179.717 275.469C173.804 279.18 168.106 283.224 162.651 287.58C137.342 308.912 116.54 335.074 101.461 364.538C100.461 366.453 99.4625 368.451 98.5051 370.407C90.8875 385.723 82.9786 401.54 68.2846 408.615C63.0323 411.052 57.2989 412.275 51.5094 412.195Z" fill="#F7FBFF"/>
<path d="M248.733 -98.8733C245.674 -98.8764 242.617 -98.7097 239.576 -98.3739C214.184 -95.3772 191.123 -83.2237 168.812 -71.4449L157.822 -65.7428C87.3034 -29.6146 10.2978 -7.88232 -68.7061 -1.81256L-74.4088 -1.39633C-92.3912 -0.147675 -110.956 1.18414 -127.357 9.21707C-145.298 17.9575 -160.991 37.8525 -156.287 58.9129C-152.791 74.4793 -139.886 84.7182 -127.399 94.6241C-124.901 96.6219 -122.403 98.578 -120.031 100.576C-84.8569 130.002 -66.6664 173.58 -54.7197 208.292C-50.5571 220.237 -46.7692 232.599 -43.0645 244.544C-34.1982 273.013 -25.0404 302.481 -11.2622 329.535C-5.05995 341.771 5.0135 359.419 20.7065 371.614C31.4043 379.938 49.47 388.595 65.1629 385.515C77.6507 383.101 82.2296 373.029 86.6003 363.747L87.974 360.751C101.345 331.375 122.854 306.445 149.955 288.912C152.786 287.123 155.741 285.374 158.696 283.626C170.851 276.426 183.422 268.976 190.915 256.697C199.864 242.005 199.24 224.566 197.908 204.92C196.909 191.643 195.702 175.12 186.461 162.758C180.478 155.645 173.275 149.655 165.19 145.069C160.066 141.945 155.195 138.424 150.621 134.539C145.221 129.213 140.929 122.87 137.993 115.877C135.058 108.883 133.536 101.378 133.517 93.7933C133.497 86.2089 134.98 78.6957 137.88 71.6875C140.78 64.6792 145.04 58.3147 150.413 52.9611C167.48 37.478 191.789 34.398 215.308 31.4013C221.302 30.6521 227.504 29.8613 233.457 28.904C259.889 24.7419 279.786 15.9598 294.272 2.55774C312.338 -14.0908 320.08 -39.0636 313.503 -59.2916C304.845 -85.9292 275.374 -98.8733 248.733 -98.8733ZM58.3364 382.019C45.5572 382.019 31.9038 375.068 23.2456 368.367C11.7985 359.419 2.01639 346.516 -7.55757 327.662C-21.1693 300.899 -30.2853 271.598 -39.11 243.295C-42.8147 231.35 -46.6443 218.947 -50.8069 206.918C-62.92 171.707 -81.4019 127.463 -117.408 97.3711C-119.823 95.3733 -122.32 93.2089 -124.859 91.3776C-136.764 81.9296 -149.086 72.1486 -152.249 58.0806C-156.412 39.351 -141.635 20.8711 -125.567 13.0463C-109.5 5.22147 -91.7252 4.09766 -74.1591 2.849L-68.4563 2.43289C11.1337 -3.70102 88.706 -25.6176 159.737 -62.0386L170.726 -67.7823C192.705 -79.3531 215.474 -91.3399 240.034 -94.2118C267.049 -97.3334 300.558 -85.8876 309.549 -58.0013C315.626 -39.2301 308.342 -16.1302 291.442 -0.480652C277.58 12.2971 258.391 20.5798 232.749 24.7835C226.88 25.7408 220.761 26.5316 214.808 27.2808C190.624 30.3608 165.648 33.524 147.624 49.8812C141.818 55.6231 137.212 62.4628 134.075 70.0017C130.939 77.5406 129.333 85.6283 129.353 93.7936C129.372 101.959 131.016 110.039 134.188 117.563C137.361 125.087 141.999 131.904 147.832 137.619C152.56 141.676 157.613 145.338 162.942 148.565C170.605 152.875 177.441 158.512 183.131 165.214C191.456 176.66 192.83 192.517 193.746 205.253C195.161 224.149 195.66 240.881 187.335 254.533C180.425 265.937 168.312 273.096 156.573 280.047C153.576 281.795 150.621 283.543 147.749 285.374C119.977 303.33 97.9335 328.867 84.2276 358.961L82.8123 361.999C78.6497 371.364 74.8202 379.397 64.372 381.436C62.3856 381.838 60.363 382.033 58.3364 382.019Z" fill="#F7FBFF"/>
<path d="M226.338 -71.32C223.667 -71.3235 220.998 -71.1707 218.346 -70.8622C196.825 -68.2817 177.302 -57.8347 158.446 -47.6791L149.038 -42.6845C82.3936 -7.88434 8.5872 10.9926 -66.5839 12.4637H-70.247C-81.3548 12.1022 -92.4572 13.3355 -103.215 16.1263C-117.076 20.2884 -127.233 29.6948 -130.397 41.099C-135.766 60.2865 -121.489 77.5177 -106.42 93.5003C-67.3748 134.913 -39.8184 178.699 -24.5833 223.608C-22.7102 229.186 -20.9619 234.805 -19.2552 240.257C-15.0214 256.269 -8.90112 271.721 -1.02303 286.29C9.5916 304.146 29.6969 322.75 54.6308 321.294C68.7004 320.461 81.3963 313.219 92.5937 306.851L146.707 275.926C183.838 254.741 197.741 225.024 184.837 194.349C178.177 178.449 165.772 166.005 153.742 153.976L153.035 153.227C140.006 140.158 128.767 128.254 123.272 112.813C113.989 86.9241 125.77 54.0849 150.079 37.8943C163.15 29.2786 178.843 25.1581 194.036 21.2457L203.111 18.7901C220.927 13.8788 240.865 6.71991 253.52 -9.05457C266.174 -24.829 268.13 -50.3846 252.021 -63.5785C244.591 -69.0072 235.531 -71.7381 226.338 -71.32ZM51.9667 317.34C30.0298 317.34 11.7561 299.817 2.55673 284.334C-5.14756 270.053 -11.1281 254.908 -15.2591 239.216C-17.0074 233.514 -18.7556 227.854 -20.6288 222.235C-36.1137 176.743 -63.9614 132.458 -103.381 90.6285C-117.659 75.4783 -131.187 59.2876 -126.4 42.1812C-123.112 30.4857 -111.623 23.1187 -102.008 20.122C-91.6206 17.4889 -80.9155 16.326 -70.2053 16.6674H-66.5422C9.28133 15.1984 83.7307 -3.83569 150.953 -38.9386L160.402 -43.9749C178.926 -53.9224 198.074 -64.2028 218.679 -66.6584C227.712 -67.7406 240.324 -67.4492 249.399 -60.0407C263.593 -48.4283 261.262 -25.0788 250.273 -11.3853C238.326 3.47345 219.178 10.3409 201.987 15.0857L192.954 17.4998C177.469 21.662 161.443 25.8241 147.79 34.7726C121.482 52.0871 109.286 86.3415 119.359 114.436C125.145 130.502 136.676 142.946 150.079 156.39L150.828 157.098C162.525 168.877 174.638 181.03 181.007 196.138C198.032 236.678 161.235 263.065 144.626 272.513L90.5124 303.438C79.7312 309.598 67.4933 316.549 54.3811 317.34H51.9667Z" fill="#F7FBFF"/>
<path d="M158.946 -28.6998C158.03 -28.6998 157.156 -28.6998 156.282 -28.6998C147.74 -27.3575 139.516 -24.466 132.014 -20.1675L130.349 -19.3351C83.2944 3.7706 32.2068 17.5375 -20.0873 21.204L-26.7058 21.6203C-38.414 21.9257 -50.0544 23.5027 -61.4218 26.3235C-76.9899 30.8186 -89.0614 40.1002 -94.7226 51.7125C-105.795 74.8956 -90.56 100.493 -83.3171 110.44C-79.1545 116.184 -74.5756 121.678 -70.08 127.089C-62.4427 136.157 -55.3404 145.663 -48.8092 155.558L-42.815 165.339L-5.93436 233.14C0.725784 245.21 7.6356 257.655 18.167 267.269C33.9432 281.67 58.1695 288.996 86.1837 287.83C103.65 287.609 120.798 283.122 136.135 274.761C143.853 270.516 150.613 264.725 155.992 257.75C161.37 250.774 165.253 242.765 167.396 234.222C170.976 217.99 166.938 199.135 155.782 179.615C150.66 171.013 145.102 162.678 139.132 154.642C134.22 147.774 129.142 140.699 124.729 133.415C113.407 114.686 108.787 97.4543 110.91 82.1377C113.823 61.327 128.85 42.4726 156.698 24.2424L158.654 22.9939C165.318 19.1844 171.32 14.321 176.429 8.5928C179.429 5.21979 181.444 1.08621 182.251 -3.35529C183.059 -7.79675 182.629 -12.3748 181.008 -16.588C177.178 -25.0788 167.354 -28.6998 158.946 -28.6998ZM-52.5555 143.696C-57.0927 137.119 -61.7964 130.502 -66.8748 124.466C-71.2872 119.222 -75.866 113.728 -79.9037 108.109C-86.6055 98.7862 -101.05 74.8123 -90.9346 53.6271C-85.8562 43.0553 -74.7004 34.6477 -60.2978 30.444C-49.2266 27.723 -37.8946 26.202 -26.4976 25.9073L-19.8375 25.491C32.9958 21.7795 84.6077 7.8569 132.139 -15.5058L133.845 -16.3383C140.881 -20.4737 148.611 -23.2944 156.657 -24.6626C164.149 -25.3701 173.806 -22.6232 177.47 -14.9649C181.133 -7.30655 177.47 0.851227 173.307 5.84579C168.513 11.2133 162.892 15.7798 156.657 19.3727L154.7 20.6214C125.562 39.5175 110.035 59.4124 106.913 81.4301C104.624 97.704 109.494 115.893 121.316 135.538C125.812 142.988 130.932 150.147 135.885 157.056C141.505 164.964 147.332 173.163 152.203 181.654C159.612 194.64 167.562 214.16 163.4 233.306C161.374 241.291 157.722 248.773 152.672 255.283C147.623 261.793 141.284 267.191 134.054 271.14C119.352 279.137 102.919 283.424 86.1837 283.626C59.2101 284.75 36.2326 277.799 21.164 264.148C11.1322 254.991 4.51363 242.837 -2.14651 231.1L-47.1025 151.312L-52.5555 143.696Z" fill="#F7FBFF"/>
<path d="M74.1119 22.9522C67.5832 23.1033 61.0734 23.7153 54.631 24.7836L5.72048 31.7759C-5.39365 33.3575 -17.9647 35.1889 -28.4128 41.6818C-42.6905 50.6304 -52.0147 68.4027 -53.3884 89.2966C-55.0118 114.894 -45.6042 139.242 -36.2384 160.053C-25.4078 184.656 -11.6557 207.868 4.7215 229.186L7.34395 232.557C12.2974 239.133 17.9169 246.542 25.6177 249.788C36.2953 253.524 47.684 254.776 58.9184 253.451C73.1479 252.255 86.7455 247.044 98.1301 238.426C120.483 221.236 130.765 190.062 122.606 164.215C119.564 155.728 115.644 147.581 110.909 139.908C106.233 132.445 102.394 124.489 99.4621 116.184C95.338 102.626 96.134 88.0484 101.71 75.0205C102.598 73.1059 103.514 71.1913 104.457 69.2767C108.126 63.2522 110.189 56.3885 110.451 49.3401C109.91 36.5624 98.5047 27.6138 88.1398 24.6587C83.5621 23.4603 78.8434 22.8862 74.1119 22.9522ZM49.5526 249.788C41.9307 249.979 34.3429 248.707 27.1995 246.042C20.5393 243.212 15.2528 236.261 10.5491 230.143C9.63334 228.936 8.75913 227.771 7.88498 226.688C-8.31097 205.639 -21.8968 182.705 -32.5754 158.388C-41.7331 138.202 -50.9325 114.228 -49.2258 89.5463C-48.0187 70.0259 -39.402 53.4607 -26.2482 45.2196C-16.5494 39.1846 -4.43623 37.4364 6.26164 35.8964L55.297 28.904C65.3705 27.4889 76.8176 25.8241 87.1408 28.904C96.0904 31.4013 105.956 39.018 106.414 49.7147C106.073 56.0588 104.172 62.2208 100.877 67.6535C99.8783 69.6096 98.9209 71.5659 98.0468 73.5637C92.0438 87.4912 91.1881 103.099 95.6325 117.599C98.6417 126.207 102.592 134.456 107.413 142.197C112.015 149.609 115.811 157.493 118.735 165.713C126.394 189.895 116.695 219.197 95.7157 235.346C84.9418 243.478 72.0804 248.385 58.627 249.497C56.2127 249.58 53.0492 249.788 49.5526 249.788Z" fill="#F7FBFF"/>
<path d="M7.13613 45.5942C-1.28421 45.2056 -9.60942 47.5089 -16.6322 52.1703C-25.3321 58.4135 -30.91 69.1518 -33.6157 85.0095C-38.7116 116.196 -32.5124 148.178 -16.1328 175.203L-12.3448 183.319C-9.57637 188.515 -6.08689 193.293 -1.97996 197.512C5.67557 207.153 16.2979 213.999 28.2405 216.991C36.8984 218.385 45.7237 218.385 54.3816 216.991C57.8782 216.574 61.458 216.158 64.9546 215.95L68.8258 215.742C74.9847 215.901 81.1131 214.825 86.8498 212.579C98.9213 206.835 103.5 192.559 102.668 180.905C101.835 169.251 96.7985 158.679 91.8866 148.357L91.3038 147.067C86.1838 136.287 81.605 125.674 81.7299 114.561C81.8637 111.059 82.2252 107.569 82.8121 104.114C83.779 99.1395 84.1008 94.0615 83.7695 89.0051C82.7702 82.6396 80.2962 76.5959 76.5452 71.3566C72.7941 66.1173 67.8699 61.8275 62.1656 58.8297C51.0907 53.1175 39.1023 49.3848 26.7419 47.8001C20.2827 46.4997 13.7229 45.7616 7.13613 45.5942ZM-19.9207 160.552C-31.264 137.312 -34.643 110.985 -29.5363 85.6338C-26.9971 70.9415 -22.002 61.0357 -14.218 55.5C-3.43688 47.7585 11.4652 49.0903 25.9927 51.6708C37.8835 53.1674 49.4211 56.7311 60.0843 62.201C65.2237 64.8536 69.6679 68.6763 73.0589 73.361C76.4499 78.0457 78.6928 83.4614 79.6069 89.1717C79.9165 93.8809 79.6087 98.6103 78.6911 103.24C78.1024 106.891 77.7272 110.574 77.5673 114.269C77.5673 126.256 82.1877 137.369 87.5158 148.607L88.1402 149.897C92.8439 159.845 97.7142 170.125 98.5051 180.947C99.2128 190.852 95.2999 203.713 85.0599 208.542C79.8369 210.57 74.2603 211.533 68.6593 211.372H64.7049C61.0834 211.58 57.4619 212.038 53.9237 212.412C45.6682 213.851 37.2348 213.949 28.9481 212.704C17.917 209.867 8.12023 203.493 1.05878 194.557C-6.06733 185.409 -12.1544 175.498 -17.0902 165.006L-19.9207 160.552Z" fill="#F7FBFF"/>
<path d="M16.4599 71.9405C9.70654 71.8649 3.09374 73.8704 -2.47984 77.6842C-13.9686 85.7171 -18.4642 99.3689 -20.2125 109.4C-22.1167 120.354 -21.791 131.58 -19.2551 142.405C-14.7595 162.134 0.184221 187.523 22.3708 196.513C28.7708 199.186 35.7345 200.229 42.6368 199.546C49.5391 198.863 56.1637 196.476 61.9155 192.601C70.9067 186.94 79.2319 175.619 76.1516 164.09C74.5293 159.199 71.8746 154.714 68.3674 150.938C66.9938 149.231 65.5785 147.483 64.2048 145.693C58.5854 137.369 56.5457 126.714 54.6309 116.558C52.2166 103.864 49.7607 90.7949 40.5197 81.4718C34.0718 75.2446 25.4235 71.8185 16.4599 71.9405ZM38.3135 195.805C33.352 195.773 28.445 194.769 23.8693 192.85C3.05635 184.235 -10.9299 160.178 -15.2174 141.448C-17.5949 131.165 -17.9062 120.512 -16.1331 110.107C-13.8437 97.0382 -8.14094 86.7161 -0.107134 80.9723C5.63283 77.1839 12.4883 75.4544 19.3387 76.0668C26.1891 76.6792 32.6291 79.5972 37.6059 84.3437C45.9311 92.6679 48.1789 104.655 50.5932 117.266C52.5913 127.963 54.7559 138.992 60.7916 148.066C62.082 149.98 63.5806 151.812 64.9542 153.601C68.0835 156.923 70.4801 160.865 71.989 165.172C74.4866 174.703 67.2853 184.235 59.5012 189.104C53.2204 193.309 45.8699 195.633 38.3135 195.805Z" fill="#F7FBFF"/>
<path d="M18.2084 114.145C14.3384 114.254 10.5577 115.332 7.2125 117.281C3.86727 119.23 1.06433 121.987 -0.939538 125.299C-3.06796 129.125 -4.42087 133.333 -4.92086 137.682C-5.42085 142.032 -5.05803 146.437 -3.85328 150.646C-1.89859 159.252 3.13491 166.845 10.2995 171.998C14.0857 174.841 18.5947 176.563 23.3123 176.968C28.03 177.373 32.7665 176.444 36.9818 174.287C40.7944 172.019 43.8833 168.713 45.888 164.756C47.8927 160.798 48.7306 156.352 48.304 151.937C47.5098 143.053 44.2035 134.579 38.7716 127.505C35.0327 121.263 29.0932 116.645 22.1213 114.561C20.8368 114.275 19.5242 114.136 18.2084 114.145ZM25.9508 172.997C21.1691 172.893 16.529 171.356 12.6306 168.585C6.30663 163.998 1.86795 157.267 0.142776 149.647C-0.926185 145.97 -1.25945 142.117 -0.838039 138.311C-0.416626 134.504 0.751184 130.818 2.59869 127.463C4.43118 124.292 7.18274 121.75 10.4899 120.175C13.7971 118.599 17.5044 118.064 21.1223 118.64C27.0998 120.489 32.1652 124.514 35.3166 129.919C40.3103 136.335 43.3586 144.049 44.0998 152.145C44.4944 155.783 43.8422 159.459 42.2201 162.74C40.5979 166.021 38.073 168.77 34.942 170.666C32.1532 172.211 29.0141 173.014 25.8259 172.997H25.9508Z" fill="#F7FBFF"/>
<path d="M18.6667 129.628C11.8401 129.628 6.76171 136.287 5.92919 142.655C5.61376 149.544 8.03825 156.278 12.6727 161.385C14.0434 163.044 15.7677 164.376 17.7194 165.283C19.6712 166.191 21.801 166.65 23.9533 166.629C25.9463 166.673 27.913 166.169 29.6384 165.171C31.3637 164.172 32.7812 162.718 33.7354 160.968C37.3152 154.517 34.776 144.32 31.8622 139.409C28.324 133.29 23.9533 129.919 19.3744 129.669L18.6667 129.628ZM23.4121 162.508C21.9332 162.407 20.4908 162.003 19.1736 161.323C17.8564 160.643 16.6923 159.701 15.753 158.554C11.9084 154.385 9.8727 148.863 10.0918 143.196C10.6745 138.451 14.4626 133.54 18.9998 133.79C23.537 134.039 26.2843 137.952 28.2408 141.49C31.0713 146.401 32.4033 154.6 30.1139 158.971C29.4835 160.092 28.5546 161.016 27.4302 161.641C26.3058 162.265 25.0301 162.566 23.7451 162.508H23.4121Z" fill="#F7FBFF"/>
<path d="M153.534 -1222.48C49.4696 -1192.02 -7.97427 -1087.05 -27.2054 -998.976C-43.8558 -922.184 -40.6923 -842.063 -37.5287 -764.564C-36.6546 -743.338 -35.7803 -721.403 -35.3224 -699.885C-33.4077 -612.231 -38.5693 -500.352 -95.7634 -412.448C-136.783 -349.86 -200.022 -305.162 -272.715 -287.376C-276.878 -286.419 -280.707 -285.503 -284.787 -284.629C-307.39 -279.593 -330.575 -274.39 -347.226 -257.908C-368.039 -236.682 -370.286 -204.217 -370.619 -172.751C-371.119 -129.507 -371.66 -80.5183 -353.969 -37.3571C-337.818 2.39128 -299.855 42.306 -250.945 42.306H-250.154C-226.802 42.0979 -204.365 32.5251 -184.51 24.0344L152.286 -119.726C188.167 -135.001 225.214 -150.858 264.676 -153.231C298.767 -155.229 343.765 -144.907 367.533 -110.236C391.302 -75.5655 385.807 -23.4556 355.42 11.756C327.281 44.4287 281.076 63.1584 228.586 63.1584H227.379C221.716 63.0192 216.074 63.9076 210.728 65.7805C205.889 67.2633 201.505 69.9505 197.989 73.5905C194.472 77.2305 191.938 81.7039 190.623 86.5912C186.169 103.906 196.492 125.965 208.73 140.199L209.188 140.74C228.956 163.49 253.132 181.995 280.255 195.137C307.379 208.279 336.885 215.784 366.992 217.199C468.934 221.985 545.11 207.085 606.799 170.292C647.426 146.068 681.393 112.022 714.277 78.7247C746.038 46.7595 778.922 13.6706 817.593 -10.1368C904.216 -63.4953 1026.06 -71.5698 1151.89 -32.2793C1233.02 -6.93188 1309.53 33.8569 1383.58 73.2723C1410.18 87.4652 1437.69 102.157 1465.08 115.892C1554.95 161.052 1674.01 211.871 1798.09 204.046C1885.26 198.511 1969.51 162.966 2041.69 101.283C2110.95 42.159 2161.77 -35.6037 2188.13 -122.764L2183.96 -123.971C2131.97 52.7946 1969.51 188.98 1797.68 199.884C1674.75 207.668 1556.25 157.098 1467 112.188C1439.69 98.4532 1412.18 83.8025 1385.58 69.6096C1311.36 30.0694 1234.64 -10.8027 1153.18 -36.2333C1026.18 -75.8984 903.093 -67.6575 815.47 -13.6747C776.342 10.4241 743.332 43.638 711.405 75.7696C678.729 108.65 644.804 142.655 604.76 166.629C543.819 203.006 468.31 217.698 367.284 212.953C337.749 211.575 308.801 204.226 282.186 191.35C255.572 178.473 231.844 160.337 212.435 138.035L211.977 137.494C200.447 124.092 190.665 103.489 194.744 87.5484C195.911 83.3163 198.129 79.4482 201.193 76.3044C204.257 73.1605 208.068 70.843 212.269 69.5679C217.262 67.8639 222.522 67.0743 227.795 67.2372C281.909 67.5701 329.612 48.1746 358.709 14.4197C390.261 -22.207 395.589 -76.8141 371.196 -112.65C346.804 -148.486 299.891 -159.557 264.676 -157.435C224.34 -155.021 186.918 -139.08 150.745 -123.638L-186.133 20.2051C-205.573 28.5294 -227.759 37.9358 -250.154 38.1439C-297.316 38.4353 -334.363 -0.272491 -350.056 -38.9387C-367.331 -81.3092 -366.707 -129.881 -366.29 -172.71C-365.957 -203.301 -363.959 -234.85 -344.104 -254.953C-328.661 -270.603 -305.849 -275.764 -283.829 -280.55L-271.716 -283.339C-197.994 -301.384 -133.854 -346.702 -92.2252 -410.159C-34.4484 -499.021 -29.2035 -611.731 -31.1183 -699.968C-31.5762 -721.528 -32.4503 -743.504 -33.3245 -764.731C-36.488 -841.98 -39.7349 -921.81 -23.0845 -998.101C-4.10312 -1085.01 52.5498 -1188.56 154.741 -1218.69L153.534 -1222.48Z" fill="#F7FBFF"/>
<path d="M224.257 168.918C223.283 168.914 222.319 169.113 221.426 169.501C219.574 170.669 218.161 172.417 217.408 174.473C216.655 176.528 216.604 178.776 217.264 180.863C218.353 185.266 220.107 189.477 222.467 193.35C223.508 195.223 224.507 197.096 225.381 199.052C229.589 208.507 230.123 219.191 226.879 229.019L226.255 230.851C225.295 233.177 224.678 235.63 224.423 238.134C224.228 239.822 224.483 241.532 225.163 243.089C225.843 244.647 226.923 245.996 228.295 247C229.677 247.867 231.265 248.351 232.896 248.403C234.528 248.454 236.143 248.07 237.577 247.291C240.18 245.912 242.576 244.175 244.695 242.13C246.189 240.804 247.759 239.567 249.399 238.426C256.737 234.765 264.766 232.694 272.959 232.349C275.748 232.016 278.495 231.683 281.076 231.267C285.56 230.814 289.891 229.394 293.772 227.105C295.946 225.786 297.656 223.823 298.663 221.488C299.67 219.154 299.925 216.563 299.392 214.077C297.477 207.543 289.859 205.545 284.823 204.255C265.54 199.124 248.042 188.785 234.247 174.371C231.733 171.348 228.16 169.398 224.257 168.918ZM232.832 244.419C231.987 244.429 231.16 244.183 230.459 243.712C229.697 243.113 229.105 242.325 228.74 241.428C228.375 240.53 228.25 239.553 228.378 238.592C228.654 236.478 229.199 234.408 230.001 232.432C230.251 231.808 230.459 231.142 230.667 230.518C234.241 219.692 233.648 207.923 229.002 197.512C228.087 195.472 227.046 193.35 225.964 191.56C223.822 187.982 222.209 184.113 221.177 180.073C220.635 177.367 221.177 174.204 223.133 173.33C225.089 172.456 227.545 173.788 231.084 177.492C245.348 192.518 263.528 203.258 283.574 208.5C289.068 209.957 294.064 211.58 295.229 215.492C295.463 217.115 295.213 218.771 294.509 220.252C293.806 221.732 292.68 222.973 291.275 223.817C287.878 225.715 284.119 226.877 280.244 227.23C277.746 227.646 275.082 227.979 272.335 228.312C264.01 229.311 254.311 230.434 247.068 235.013C245.225 236.259 243.485 237.651 241.865 239.175C239.982 240.943 237.884 242.467 235.621 243.712C234.755 244.15 233.802 244.392 232.832 244.419Z" fill="#F7FBFF"/>
<path d="M238.118 192.226C237.76 192.165 237.394 192.165 237.036 192.226C236.369 192.353 235.747 192.655 235.235 193.101C234.723 193.547 234.339 194.121 234.122 194.765C233.331 197.179 235.413 199.718 236.869 201.508C237.161 201.882 237.411 202.132 237.535 202.34C239.037 205.31 239.834 208.585 239.866 211.913V212.704C240.491 219.613 242.655 223.942 246.568 225.981C250.683 227.538 255.248 227.404 259.264 225.606L268.006 222.818C269.417 222.492 270.678 221.7 271.585 220.57C272.22 219.44 272.45 218.127 272.238 216.849C272.026 215.57 271.385 214.402 270.42 213.536C267.639 210.831 264.259 208.82 260.555 207.668L258.057 206.669C252.048 204.042 246.753 200.018 242.614 194.932C242.098 194.189 241.43 193.564 240.655 193.098C239.881 192.632 239.016 192.334 238.118 192.226ZM244.071 212.496V211.746C244.053 207.745 243.037 203.811 241.115 200.301C240.843 199.861 240.537 199.444 240.199 199.052C239.525 198.278 238.926 197.442 238.41 196.555C238.827 196.884 239.205 197.261 239.534 197.679C244.062 203.323 249.909 207.768 256.559 210.623C257.391 210.997 258.265 211.372 259.181 211.705C262.284 212.646 265.131 214.283 267.506 216.491C268.214 217.282 268.463 218.156 268.297 218.364C267.888 218.676 267.421 218.903 266.923 219.03L258.182 221.777C255.202 223.194 251.797 223.432 248.65 222.443C246.11 221.111 244.487 217.865 244.196 212.496H244.071Z" fill="#F7FBFF"/>
<path d="M979.768 -1292.07L976.146 -1289.99C1057.86 -1146.94 1039.79 -951.86 933.23 -826.206C909.628 -798.444 881.989 -773.513 855.223 -749.414C823.587 -720.945 790.869 -691.477 764.645 -657.057C723.799 -603.051 699.402 -538.409 694.38 -470.885C690.218 -411.158 701.499 -351.098 712.446 -292.995L712.779 -291.122C723.186 -236.016 734.966 -173.5 729.429 -112.4C723.56 -46.1807 696.129 11.0902 654.253 44.7202C604.885 84.3853 534.079 88.2561 489.581 53.6688C450.702 23.4933 438.548 -24.2879 425.685 -74.8162C416.652 -110.444 407.286 -147.237 387.722 -177.704C363.704 -214.955 326.241 -239.928 290.234 -264.484C275.457 -274.39 260.222 -284.671 246.152 -295.617C181.258 -345.937 128.101 -421.105 92.4694 -513.005C58.2112 -601.242 42.8513 -695.307 32.3615 -775.719C25.1602 -830.784 18.3337 -894.589 28.4071 -955.273C39.3548 -1021.16 69.4919 -1075.48 113.282 -1108.27L110.785 -1111.64C66.1201 -1078.35 35.4002 -1022.91 24.2861 -955.981C14.1293 -894.714 20.9976 -830.534 28.4487 -775.178C38.98 -694.557 54.3817 -600.16 88.7647 -511.507C124.73 -418.9 178.344 -343.107 243.821 -292.329C258.016 -281.3 273.292 -270.977 288.111 -261.03C323.951 -236.848 361.04 -211.834 384.434 -175.415C403.623 -145.572 412.906 -109.071 421.897 -73.8173C434.385 -24.7874 447.247 26.0737 487.25 56.9568C533.038 92.6678 606.217 88.7972 657.084 47.9667C699.875 13.6291 727.848 -44.724 733.759 -112.026C739.212 -173.708 727.39 -236.515 717.108 -291.913L716.775 -293.786C705.869 -351.598 694.63 -411.408 698.793 -470.593C703.748 -537.299 727.841 -601.159 768.183 -654.518C794.199 -688.647 826.751 -717.99 858.262 -746.334C885.11 -770.516 912.875 -795.531 936.643 -823.542C1043.96 -950.487 1062.19 -1147.52 979.768 -1292.07Z" fill="#F7FBFF"/>
<path d="M400.251 15.2106C386.931 15.2106 374.443 22.4111 365.702 29.0289C361.539 32.1505 357.709 35.5635 353.88 38.8515C347.051 45.1543 339.588 50.7336 331.61 55.5001C318.539 62.5757 303.346 64.9064 288.652 67.154C281.825 68.1945 274.832 69.2766 267.839 70.775C246.318 75.6447 222.051 89.0468 218.179 112.188C214.266 136.245 234.288 155.974 246.568 165.588C277.704 190.02 319.122 204.92 366.368 208.75C411.199 212.371 456.155 205.878 494.159 199.094C519.842 194.474 549.563 188.563 577.036 176.16C603.178 164.34 651.755 133.582 648.591 101.783C648.394 98.8463 647.576 95.9849 646.191 93.3877C644.806 90.7905 642.886 88.5166 640.558 86.716C626.197 75.6032 595.768 80.4312 573.582 83.969C566.988 85.2551 560.311 86.0619 553.601 86.383C512.466 85.9367 473.026 69.9363 443.209 41.5986L438.63 36.9369C429.597 27.9883 420.273 18.7067 407.661 16.1262C405.231 15.554 402.747 15.2469 400.251 15.2106ZM393.216 205.42C384.475 205.42 375.692 205.073 366.867 204.379C320.454 200.633 279.786 186.024 249.315 162.134C239.991 154.808 218.762 135.413 222.467 112.646C225.88 91.5857 248.733 79.349 268.921 74.6458C275.581 73.1474 282.533 72.0653 289.276 71.0664C304.345 68.7356 319.913 66.3632 333.566 58.9546C341.831 54.0793 349.549 48.3303 356.586 41.8066C360.374 38.5602 364.245 35.2305 368.241 32.1921C377.856 24.8668 392.384 16.7922 406.786 19.9138C418.192 22.3694 427.1 31.1932 435.716 39.7256C437.298 41.3072 438.88 42.8887 440.503 44.3871C471.112 73.3908 511.558 89.7461 553.726 90.1706C560.707 89.7784 567.658 88.9583 574.539 87.7149C595.976 84.302 625.364 79.6404 638.31 89.6711C640.194 91.1128 641.743 92.9459 642.849 95.0441C643.956 97.1423 644.594 99.4557 644.72 101.824C647.801 132.375 595.851 162.841 575.621 171.956C551.312 182.944 525.295 188.98 493.701 194.598C460.593 201.176 426.966 204.798 393.216 205.42Z" fill="#F7FBFF"/>
<path d="M390.677 57.7476C388.152 57.7466 385.635 58.0541 383.185 58.6632C374.11 61.0356 367.283 67.5703 360.707 73.8551C358.459 75.9778 356.169 78.0171 353.838 80.1398C346.004 86.312 337.55 91.6544 328.613 96.0809L321.37 100.035C310.755 105.987 298.85 113.603 291.316 125.008C284.489 135.413 281.118 151.354 288.985 163.632C294.605 172.373 304.553 177.117 312.545 180.281C362.496 199.801 418.317 193.932 466.936 186.898C491.911 183.319 518.053 179.032 542.654 169.626C561.259 162.906 578.278 152.421 592.646 138.826C597.267 134.289 606.841 124.841 600.971 114.477C596.309 106.153 586.361 103.822 577.203 102.532C562.202 100.655 547.113 99.5575 531.997 99.244C522.923 98.911 513.557 98.5364 504.399 97.8289C474.803 95.5813 452.95 89.5047 435.675 79.0161C432.386 77.0183 429.14 74.8539 426.018 72.5647C421.512 69.2895 416.813 66.2875 411.948 63.5746C405.439 59.9284 398.136 57.928 390.677 57.7476ZM391.343 189.479C364.992 189.95 338.786 185.474 314.085 176.285C306.634 173.372 297.435 169.001 292.523 161.26C285.655 150.563 288.694 136.287 294.771 127.172C301.848 116.434 313.211 109.15 323.41 103.448C325.782 102.116 328.197 100.826 330.611 99.5354C339.808 94.9791 348.5 89.4686 356.544 83.0949C358.958 81.0555 361.289 78.9328 363.579 76.6437C370.072 70.4421 376.067 64.6151 384.392 62.4924C393.221 60.8468 402.348 62.506 410.033 67.154C414.743 69.8125 419.301 72.7305 423.687 75.8945C426.85 78.1004 430.18 80.4312 433.552 82.5123C457.029 96.83 485.043 100.451 504.108 101.908C513.349 102.615 522.798 102.99 531.914 103.323C546.877 103.619 561.813 104.703 576.662 106.569C584.987 107.693 593.604 109.774 597.475 116.434C601.346 123.093 596.101 129.669 589.899 135.787C575.951 148.954 559.445 159.112 541.405 165.63C517.22 174.87 491.162 179.115 466.478 182.653C441.63 186.73 416.52 189.012 391.343 189.479Z" fill="#F7FBFF"/>
<path d="M420.357 87.3404C407.564 87.5725 394.794 88.5034 382.102 90.129C372.272 90.8346 362.561 92.707 353.172 95.7063C343.395 98.8461 335.047 105.349 329.612 114.061C320.121 130.71 327.781 152.061 339.769 163.632C350.633 174.079 365.827 180.655 387.68 184.443C430.014 191.56 472.514 186.399 523.381 176.535V175.994C534.542 173.987 544.913 168.881 553.31 161.26C563.05 151.604 566.464 137.286 561.635 126.464C559.249 121.928 555.907 117.964 551.839 114.846C547.771 111.727 543.075 109.528 538.075 108.401C531.413 106.736 524.614 105.677 517.761 105.238L509.228 104.322C497.412 102.494 485.73 99.8801 474.262 96.497C461.806 92.7229 449.07 89.9395 436.175 88.1728C430.922 87.5987 425.641 87.3208 420.357 87.3404ZM428.932 183.444C415.35 183.495 401.788 182.409 388.388 180.198C367.575 176.701 352.881 170.458 342.599 160.635C331.693 150.147 324.7 131.001 333.15 116.101C338.087 108.211 345.649 102.316 354.504 99.4522C363.59 96.5959 372.978 94.808 382.477 94.1247C400.015 91.5313 417.782 90.8474 435.467 92.0852C448.144 93.8248 460.669 96.5383 472.93 100.201C484.576 103.639 496.438 106.295 508.437 108.151C511.309 108.526 514.223 108.775 517.137 109.067C523.72 109.513 530.252 110.53 536.659 112.105C541.058 113.086 545.193 115.003 548.785 117.725C552.376 120.447 555.339 123.91 557.472 127.88C561.635 137.161 558.555 149.523 550.022 158.013C541.422 165.671 530.747 170.61 519.343 172.206C514.39 173.205 509.27 173.913 504.316 174.62C497.56 175.445 490.849 176.612 484.211 178.116V178.741C465.924 181.652 447.448 183.224 428.932 183.444Z" fill="#F7FBFF"/>
<path d="M418.234 102.532C403.978 102.585 389.779 104.346 375.942 107.776C369.933 109.001 364.194 111.299 359 114.561C356.251 116.326 353.933 118.686 352.219 121.467C350.504 124.247 349.436 127.378 349.093 130.627C348.469 141.739 358.293 149.897 366.659 154.767C399.211 173.705 438.547 176.368 469.184 176.618C476.579 177.051 483.989 176.106 491.038 173.829C494.946 172.415 498.495 170.156 501.43 167.214C504.366 164.272 506.616 160.718 508.021 156.806C509.203 153.325 509.592 149.624 509.16 145.973C508.728 142.322 507.485 138.814 505.524 135.704C500.586 128.574 493.89 122.839 486.084 119.056C465.203 107.968 441.876 102.287 418.234 102.532ZM471.099 172.456H469.184C439.089 172.206 400.46 169.626 368.782 151.187C361.415 147.025 352.756 139.866 353.256 130.835C353.559 128.22 354.445 125.706 355.85 123.48C357.255 121.254 359.143 119.372 361.373 117.974C366.156 115.013 371.427 112.927 376.941 111.814C415.112 102.407 454.199 106.32 484.086 122.635C491.298 126 497.467 131.248 501.944 137.827C503.586 140.426 504.631 143.357 505.006 146.408C505.38 149.459 505.074 152.556 504.108 155.474C502.89 158.809 500.953 161.834 498.435 164.337C495.918 166.84 492.881 168.759 489.539 169.959C483.596 171.906 477.346 172.752 471.099 172.456Z" fill="#F7FBFF"/>
</g>
</svg>
