<svg width="375" height="812" viewBox="0 0 375 812" fill="none" xmlns="http://www.w3.org/2000/svg">
<mask id="mask0_3_173" style="mask-type:alpha" maskUnits="userSpaceOnUse" x="0" y="0" width="375" height="812">
<rect width="375" height="812" fill="#D9D9D9"/>
</mask>
<g mask="url(#mask0_3_173)">
<path d="M-686.503 1169.23C-730.882 1169.66 -774.532 1157.93 -812.713 1135.31C-830.782 1123.83 -848.106 1111.22 -864.579 1097.55C-889.055 1078.16 -912.157 1059.85 -938.548 1050.36C-954.741 1044.57 -1075.91 1012.52 -1199.38 983.762C-1371.46 944.139 -1434.02 936.938 -1456 936.189L-1455.79 929.946C-1433.61 930.695 -1370.58 937.937 -1198 977.935C-1074.42 1006.57 -952.742 1038.7 -936.467 1044.53C-909.077 1054.35 -885.6 1073 -860.708 1092.73C-844.423 1106.19 -827.309 1118.62 -809.466 1129.94C-744.779 1169.14 -659.613 1173.68 -581.231 1142.09C-502.849 1110.5 -444.781 1047.98 -425.508 974.855C-414.977 934.899 -413.021 891.28 -411.231 849.076C-407.734 768.455 -404.695 698.823 -349.333 662.238C-329.477 649.127 -305.251 643.134 -279.609 636.766C-256.049 630.939 -231.74 624.903 -209.095 612.833C-138.081 575.041 -111.815 498 -86.382 423.456C-80.8457 407.182 -75.6008 391.824 -69.7316 376.799C-48.5439 321.068 -5.91895 272.329 36.3314 255.556C46.4586 251.117 57.4247 248.916 68.4807 249.102C79.5367 249.289 90.4221 251.86 100.394 256.638C128.699 270.332 145.974 299.966 164.248 331.348C173.009 347.024 182.64 362.198 193.095 376.799C219.04 411.368 254.243 437.887 294.631 453.288C335.02 468.688 378.943 472.342 421.322 463.825C463.7 455.309 502.801 434.97 534.102 405.163C565.403 375.355 587.625 337.296 598.198 295.388C603.458 272.057 607.295 248.428 609.687 224.631C618.262 154.291 626.337 110.423 666.506 93.1497C699.266 79.1234 734.398 94.44 775.067 112.171C805.745 125.531 837.506 139.349 871.472 141.306C943.194 145.468 999.389 97.3535 1053.71 51.0706C1106.53 5.99475 1156.4 -36.3341 1213.85 -25.1796C1234.16 -21.0175 1255.93 -10.1544 1276.99 0.500732C1318.29 21.3113 1365.16 45.1187 1410.2 17.1492C1451.2 -8.23975 1455.69 -56.7286 1459.61 -99.3904C1460.73 -111.461 1461.77 -122.865 1463.56 -133.561C1473.84 -195.619 1521.59 -254.971 1591.27 -292.305C1625.78 -310.827 1658.62 -359.856 1693.38 -411.758C1728.13 -463.66 1770.8 -527.715 1804.06 -534L1805.23 -527.882C1774.51 -522.055 1732.21 -458.874 1698.25 -408.137C1663.03 -355.569 1629.77 -305.874 1593.89 -286.645C1525.87 -250.226 1479.34 -192.705 1469.39 -132.396C1467.64 -121.908 1466.6 -110.628 1465.52 -98.6412C1461.35 -54.3978 1456.82 -4.28571 1413.15 22.7681C1365.32 52.4025 1316.83 27.8459 1274.04 6.11963C1253.22 -4.36896 1231.99 -15.1489 1212.51 -18.8532C1158.07 -29.5915 1109.28 11.9466 1057.67 56.0652C1002.39 103.222 945.275 151.794 871.015 147.84C835.841 145.884 803.622 131.816 772.444 118.247C733.108 101.099 699.099 86.2822 668.879 99.268C631.749 115.209 624.048 157.538 615.764 225.63C613.341 249.678 609.463 273.557 604.151 297.136C593.369 340.262 570.573 379.445 538.409 410.135C506.246 440.824 466.035 461.76 422.447 470.512C378.859 479.263 333.682 475.471 292.163 459.575C250.644 443.68 214.487 416.333 187.891 380.711C177.308 366.022 167.579 350.736 158.753 334.928C140.937 304.378 124.12 275.534 97.5215 262.673C88.3391 258.203 78.298 255.773 68.0875 255.55C57.8772 255.328 47.7395 257.318 38.371 261.383C-2.33911 277.574 -43.5488 324.856 -64.1537 379.088C-69.8564 393.989 -75.0596 409.305 -80.5958 425.496C-106.404 501.205 -133.086 579.495 -206.265 618.411C-229.617 630.897 -254.343 636.932 -278.236 642.842C-303.211 649.085 -327.063 654.954 -346.003 667.482C-398.701 702.319 -401.698 770.495 -405.112 849.409C-406.985 891.904 -408.9 935.898 -419.598 976.479C-439.37 1051.4 -498.978 1115.62 -579.025 1147.92C-613.158 1161.83 -649.643 1169.06 -686.503 1169.23Z" fill="#E5F2FF"/>
<path d="M-686.461 1191.04C-734.843 1191.49 -782.422 1178.68 -824.035 1153.99C-842.887 1142.09 -860.962 1128.99 -878.149 1114.79C-901.168 1096.51 -922.938 1079.28 -945.916 1071C-959.236 1066.26 -1076.66 1034.87 -1204.33 1005.32C-1335.99 974.814 -1401.59 963.701 -1433.27 960.038L-1432.77 955.876C-1400.8 959.705 -1335.04 970.652 -1203.16 1001.2C-1075.37 1030.84 -957.571 1062.26 -944.334 1067.05C-920.649 1075.37 -898.545 1092.98 -875.36 1111.46C-858.328 1125.58 -840.39 1138.58 -821.662 1150.37C-750.607 1193.49 -657.282 1198.69 -571.907 1164.27C-486.532 1129.85 -423.177 1061.34 -401.99 981.14C-390.792 938.687 -388.836 893.736 -386.963 850.283C-383.591 773.159 -380.927 712.225 -335.763 682.383C-319.362 671.519 -297.092 666.025 -273.324 660.157C-248.348 653.955 -222.54 647.67 -197.315 634.144C-117.934 591.856 -88.8378 506.574 -63.1962 431.365C-57.7015 415.299 -52.5399 400.149 -46.962 385.581C-28.2721 336.468 9.77405 292.266 45.5724 278.032C52.6163 274.83 60.2758 273.208 68.0132 273.28C75.7506 273.351 83.3785 275.115 90.3618 278.448C112.091 288.936 127.575 315.532 144.018 343.668C153.199 360.143 163.331 376.069 174.363 391.367C203.038 429.424 241.893 458.597 286.442 475.518C330.99 492.439 379.416 496.419 426.13 486.997C472.844 477.575 515.94 455.136 550.445 422.271C584.95 389.405 609.456 347.453 621.134 301.256C626.714 277.003 630.787 252.427 633.331 227.67C641.864 157.621 649.648 126.572 675.831 115.292C699.058 105.303 728.321 118.081 765.368 134.188C798.003 148.423 831.678 163.115 870.057 165.238C951.394 169.733 1013.87 116.416 1069.03 69.509C1119.52 26.4725 1163.06 -10.6121 1209.1 -1.53864C1226.17 1.8327 1246.56 12.1132 1266.04 22.019C1308.34 43.4124 1366.2 72.7138 1422.47 37.8351C1473.63 6.11969 1478.88 -51.1928 1483.12 -96.9763C1484.21 -108.797 1485.21 -119.702 1486.83 -129.441C1495.9 -184.215 1539.07 -237.157 1602.26 -270.953C1642.05 -292.263 1676.48 -343.707 1712.94 -398.19C1747.86 -450.3 1786.91 -506.405 1808.68 -510.359L1809.47 -506.197C1787.74 -502.035 1739.66 -430.28 1716.56 -395.776C1679.81 -340.877 1645.09 -288.975 1604.17 -267.166C1542.11 -233.869 1499.77 -182.133 1490.87 -128.608C1489.28 -118.994 1488.29 -108.172 1487.24 -96.6849C1483.08 -49.5696 1477.55 8.78345 1424.81 41.5394C1366.53 77.6251 1307.46 47.741 1264.3 25.8898C1244.94 16.1088 1224.92 5.99481 1208.43 2.70673C1164.27 -5.99213 1121.52 30.4682 1071.98 72.7138C1016.08 120.37 952.851 174.311 869.932 169.691C830.845 167.527 796.795 152.668 763.869 138.309C727.696 122.576 699.183 110.131 677.621 119.413C653.311 129.818 645.902 160.077 637.618 228.336C635 253.201 630.885 277.885 625.297 302.255C613.021 349.132 587.951 391.672 552.887 425.122C517.823 458.573 474.148 481.615 426.741 491.674C410.787 494.862 394.558 496.466 378.288 496.46C298.159 496.46 218.778 458.335 170.45 393.656C159.334 378.235 149.118 362.184 139.855 345.583C123.746 317.988 108.552 291.933 87.9893 281.986C81.4946 278.895 74.4009 277.268 67.2085 277.217C60.0162 277.167 52.9005 278.695 46.3633 281.694C11.5641 295.513 -25.5248 338.757 -43.8401 386.83C-49.3763 401.439 -54.5381 416.547 -59.991 432.613C-85.924 508.572 -115.27 594.687 -196.108 637.723C-221.791 651.416 -247.849 657.868 -273.074 664.111C-296.302 669.855 -318.238 675.307 -334.015 685.754C-377.472 714.473 -380.053 774.449 -383.383 850.408C-385.256 894.069 -387.254 939.228 -398.535 982.098C-420.097 1063.76 -484.534 1133.35 -570.949 1168.23C-607.642 1183.14 -646.853 1190.88 -686.461 1191.04Z" fill="#E5F2FF"/>
<path d="M-686.461 1214.09C-739.041 1214.55 -790.74 1200.59 -835.94 1173.72C-855.571 1161.37 -874.383 1147.76 -892.26 1132.97C-913.864 1115.83 -934.177 1099.68 -953.658 1092.73C-965.189 1088.56 -1081.41 1057.43 -1209.49 1027.76C-1296.07 1007.69 -1363.88 993.793 -1411.04 986.468L-1410.38 982.306C-1363.13 989.673 -1295.24 1003.57 -1208.53 1023.68C-1080.33 1053.39 -963.857 1084.61 -952.243 1088.77C-932.138 1095.97 -911.574 1112.29 -889.804 1129.56C-872.011 1144.27 -853.297 1157.82 -833.775 1170.14C-756.518 1216.97 -655.575 1222.79 -563.706 1185.67C-471.838 1148.54 -403.238 1074.29 -380.219 986.967C-368.397 942.141 -366.399 895.941 -364.443 851.323C-361.238 777.903 -358.948 724.878 -323.483 701.487C-310.412 692.829 -289.974 687.793 -268.329 682.424C-242.021 675.89 -214.839 669.147 -187.075 654.371C-99.6604 607.88 -67.7749 514.108 -42.05 438.773C-36.597 422.832 -31.5187 407.89 -26.1073 393.656C-9.78992 350.827 23.8439 311.121 53.4816 299.258C66.552 294.056 74.2944 296.387 79.8723 299.009C95.3156 306.459 109.76 331.224 123.704 355.198C133.315 372.447 143.919 389.124 155.465 405.143C206.332 473.194 291.79 515.481 378.497 515.44C395.954 515.462 413.37 513.747 430.488 510.32C532.596 489.801 618.221 408.14 643.488 307.083C649.254 281.899 653.425 256.376 655.975 230.667C664.009 164.697 670.752 142.721 684.78 136.686C698.808 130.651 725.407 142.18 756.044 155.54C790.635 170.607 826.225 186.132 868.684 188.463C872.305 188.671 875.927 188.754 879.507 188.754C964.673 188.754 1030.78 132.357 1083.93 87.0731C1129.72 47.9907 1169.35 14.2358 1204.65 21.1865C1218.67 23.9335 1237.49 33.6729 1255.72 42.7047C1300.18 65.1802 1367.32 99.1849 1434.71 57.5636C1495.53 19.8547 1501.65 -46.4897 1506.1 -94.8953C1507.1 -106.008 1508.1 -116.455 1509.56 -125.445C1517.34 -173.56 1556.09 -220.342 1613.08 -250.975C1657.91 -274.991 1693.88 -328.724 1731.96 -385.662C1774.34 -448.926 1800.86 -482.431 1813.05 -488.05L1814.8 -484.263C1807.02 -480.683 1786.95 -460.247 1735.42 -383.331C1697.04 -325.894 1660.78 -271.786 1615.04 -247.229C1559.18 -217.304 1521.21 -171.645 1513.51 -125.071C1512.05 -116.205 1511.1 -105.8 1510.1 -94.812C1505.56 -45.4908 1499.32 22.019 1436.71 60.8101C1367.53 103.638 1299.35 69.1343 1253.89 46.1177C1235.87 37.0027 1217.3 27.6379 1203.94 24.9741C1170.64 18.3979 1131.8 51.5701 1086.8 89.9449C1033.15 135.728 966.38 192.625 879.673 192.625C876.01 192.625 872.305 192.625 868.642 192.333C825.435 189.919 789.553 174.27 754.67 159.036C724.783 146.009 699.058 134.771 686.612 140.14C674.166 145.509 667.922 168.193 660.304 230.791C657.719 256.675 653.549 282.376 647.817 307.749C622.133 410.304 535.219 493.214 431.362 514.024C413.983 517.5 396.303 519.242 378.58 519.227C290.583 519.227 203.751 476.357 152.218 407.266C140.607 391.248 129.933 374.571 120.25 357.32C106.555 333.846 92.4434 309.622 78.124 302.713C73.5035 300.466 66.6769 298.551 55.1049 303.088C26.2997 314.534 -6.21008 353.033 -22.1528 395.112C-27.5226 409.264 -32.601 424.247 -37.9707 439.897C-63.9869 516.106 -96.2471 610.544 -185.035 657.992C-213.258 673.018 -240.689 679.844 -267.246 686.42C-288.517 691.706 -308.622 696.659 -321.11 704.941C-354.786 727.209 -357.075 779.319 -360.197 851.49C-362.154 896.358 -364.36 942.765 -376.098 988.008C-399.492 1076.62 -469.007 1151.95 -562.083 1189.54C-601.582 1205.63 -643.81 1213.97 -686.461 1214.09Z" fill="#E5F2FF"/>
<path d="M299.491 869.845C268.396 869.845 234.513 861.521 193.927 843.582C179.733 837.38 165.58 830.471 151.885 823.812C130.199 812.804 107.97 802.899 85.2837 794.136C33.8757 775.198 -23.4432 767.914 -69.4815 762.046C-89.4619 759.507 -110.15 756.885 -128.465 747.562C-144.741 739.237 -162.64 722.381 -164.014 699.614C-165.096 681.509 -155.272 665.484 -146.822 655.204C-140.504 647.852 -133.734 640.902 -126.551 634.393C-122.18 630.231 -117.643 626.069 -113.438 621.615C-77.5985 584.156 -60.407 533.462 -43.7982 484.265C-30.2698 444.434 -16.2836 403.27 7.60971 368.475C18.3492 352.867 28.7141 342.545 40.2029 336.052C55.105 327.727 72.5462 326.354 85.7 332.68C101.726 340.339 109.926 356.821 117.835 372.762C118.834 374.76 119.792 376.924 120.791 378.63C135.662 407.531 156.137 433.182 181.023 454.09C186.356 458.341 191.914 462.301 197.674 465.952C216.655 478.438 238.176 492.589 235.345 517.895C234.243 525.248 232.402 532.471 229.851 539.455C227.52 545.831 225.778 552.407 224.647 559.1C224.19 562.388 224.065 565.801 223.898 569.131C224.128 576.948 222.591 584.716 219.403 591.856C213.533 602.803 201.878 607.547 190.597 612.167C181.523 615.872 172.157 619.659 166.038 626.693C153.55 640.72 158.754 663.611 171.158 676.139C182.314 687.377 199.63 694.078 222.649 696.034C230.059 696.659 237.718 696.825 245.086 696.992C256.942 696.998 268.782 697.875 280.509 699.614C301.951 703.673 321.953 713.28 338.525 727.476C355.096 741.673 367.658 759.963 374.959 780.526C379.121 793.012 384.574 817.319 372.711 837.755C362.18 855.902 339.41 867.389 310.064 869.262C306.734 869.72 303.112 869.845 299.491 869.845ZM67.5095 333.055C58.7411 333.183 50.1481 335.531 42.5339 339.881C31.6279 346.082 21.721 355.947 11.3561 371.055C-12.2458 405.351 -26.1072 446.265 -39.5524 485.805C-56.2028 535.293 -73.6857 586.404 -110.317 624.529C-114.479 628.982 -119.183 633.311 -123.595 637.473C-130.642 643.854 -137.287 650.665 -143.492 657.868C-151.443 667.524 -160.767 682.591 -159.726 699.489C-158.478 720.508 -141.702 736.24 -126.426 743.982C-108.735 752.972 -88.4212 755.553 -68.7738 758.05C-22.5274 763.919 35.0412 771.244 86.8655 790.348C109.633 799.174 131.945 809.134 153.717 820.191C167.37 826.85 181.481 833.718 195.592 839.919C240.257 859.481 276.638 867.597 310.022 865.475C323.218 864.601 355.353 860.064 369.339 836.007C380.37 816.986 375.25 794.136 371.212 782.19C364.172 762.33 352.045 744.664 336.042 730.955C320.038 717.246 300.718 707.975 280.01 704.067C268.475 702.357 256.83 701.494 245.169 701.487C237.76 701.487 230.059 701.154 222.483 700.488C198.465 698.448 180.274 691.373 168.369 679.386C154.674 665.526 149.263 640.054 163.083 624.279C169.826 616.538 179.733 612.5 189.182 608.63C200.255 604.134 210.744 599.847 215.906 590.233C218.833 583.695 220.256 576.583 220.069 569.422C220.069 566.009 220.402 562.472 220.859 559.017C222.02 552.068 223.817 545.242 226.229 538.623C228.687 531.881 230.458 524.909 231.516 517.812C234.096 495.003 214.616 482.184 195.717 469.781C189.804 466.07 184.106 462.026 178.651 457.669C153.342 436.337 132.54 410.175 117.461 380.711C116.462 378.797 115.463 376.799 114.505 374.843C106.888 359.526 98.9787 343.71 84.2847 336.634C79.0324 334.198 73.299 332.975 67.5095 333.055Z" fill="#E5F2FF"/>
<path d="M264.733 844.123C261.674 844.126 258.616 843.959 255.575 843.623C230.184 840.627 207.123 828.473 184.811 816.694L173.822 810.992C103.303 774.864 26.2976 753.132 -52.7063 747.062L-58.4091 746.646C-76.3915 745.397 -94.9566 744.065 -111.357 736.032C-129.298 727.292 -144.991 707.397 -140.287 686.337C-136.791 670.77 -123.887 660.531 -111.399 650.625C-108.901 648.628 -106.404 646.671 -104.031 644.674C-68.8571 615.247 -50.6666 571.67 -38.7199 536.958C-34.5574 525.012 -30.7694 512.651 -27.0647 500.706C-18.1984 472.237 -9.04065 442.769 4.73755 415.715C10.9398 403.478 21.0133 385.831 36.7062 373.636C47.4041 365.312 65.4697 356.654 81.1627 359.734C93.6505 362.148 98.2293 372.221 102.6 381.502L103.974 384.499C117.345 413.874 138.854 438.804 165.955 456.337C168.785 458.127 171.741 459.875 174.696 461.623C186.851 468.824 199.422 476.274 206.915 488.552C215.864 503.244 215.24 520.684 213.908 540.329C212.909 553.606 211.702 570.13 202.461 582.491C196.478 589.605 189.275 595.595 181.19 600.18C176.066 603.305 171.194 606.825 166.621 610.711C161.22 616.037 156.929 622.38 153.993 629.373C151.057 636.366 149.536 643.872 149.517 651.456C149.497 659.041 150.98 666.554 153.88 673.562C156.78 680.57 161.04 686.935 166.413 692.288C183.479 707.772 207.789 710.852 231.307 713.848C237.302 714.597 243.504 715.388 249.456 716.346C275.889 720.508 295.786 729.29 310.272 742.692C328.338 759.34 336.08 784.313 329.503 804.541C320.845 831.179 291.374 844.123 264.733 844.123ZM74.3361 363.23C61.5569 363.23 47.9035 370.181 39.2453 376.882C27.7982 385.831 18.0161 398.733 8.44218 417.588C-5.16949 444.35 -14.2855 473.652 -23.1102 501.954C-26.8149 513.9 -30.6445 526.303 -34.8071 538.331C-46.9202 573.543 -65.4022 617.786 -101.409 647.878C-103.823 649.876 -106.32 652.041 -108.86 653.872C-120.765 663.32 -133.086 673.101 -136.25 687.169C-140.412 705.899 -125.635 724.378 -109.567 732.203C-93.4998 740.028 -75.7255 741.152 -58.1593 742.401L-52.4566 742.817C27.1334 748.951 104.706 770.867 175.737 807.288L186.726 813.032C208.705 824.603 231.474 836.589 256.033 839.461C283.049 842.583 316.557 831.137 325.549 803.251C331.626 784.48 324.342 761.38 307.441 745.73C293.58 732.952 274.39 724.67 248.749 720.466C242.88 719.509 236.761 718.718 230.808 717.969C206.623 714.889 181.648 711.726 163.624 695.368C157.818 689.626 153.212 682.787 150.075 675.248C146.938 667.709 145.333 659.621 145.352 651.456C145.372 643.291 147.015 635.211 150.188 627.687C153.361 620.163 157.999 613.345 163.832 607.631C168.559 603.573 173.613 599.912 178.942 596.684C186.605 592.374 193.44 586.737 199.131 580.036C207.456 568.59 208.83 552.732 209.745 539.996C211.161 521.1 211.66 504.368 203.335 490.716C196.425 479.312 184.312 472.153 172.573 465.203C169.576 463.455 166.621 461.706 163.749 459.875C135.977 441.92 113.933 416.383 100.227 386.289L98.8121 383.25C94.6495 373.886 90.8199 365.853 80.3718 363.813C78.3854 363.411 76.3627 363.216 74.3361 363.23Z" fill="#E5F2FF"/>
<path d="M242.338 816.57C239.667 816.573 236.999 816.42 234.346 816.112C212.825 813.531 193.303 803.084 174.446 792.929L165.039 787.934C98.3939 753.134 24.5874 734.257 -50.5836 732.786H-54.2467C-65.3546 733.147 -76.457 731.914 -87.2145 729.123C-101.076 724.961 -111.233 715.555 -114.396 704.15C-119.766 684.963 -105.488 667.732 -90.4197 651.749C-51.3746 610.336 -23.8182 566.55 -8.58308 521.641C-6.70991 516.064 -4.96162 510.445 -3.25496 504.993C0.978882 488.981 7.09913 473.528 14.9772 458.959C25.5918 441.104 45.6971 422.499 70.6311 423.956C84.7006 424.788 97.3965 432.03 108.594 438.398L162.708 469.323C199.838 490.508 213.741 520.226 200.837 550.901C194.177 566.8 181.772 579.245 169.742 591.273L169.035 592.023C156.006 605.092 144.767 616.995 139.272 632.437C129.99 658.325 141.77 691.165 166.079 707.355C179.15 715.971 194.843 720.091 210.036 724.004L219.111 726.459C236.927 731.371 256.866 738.53 269.52 754.304C282.174 770.079 284.131 795.634 268.021 808.828C260.591 814.257 251.531 816.988 242.338 816.57ZM67.9669 427.91C46.0301 427.91 27.7563 445.432 18.557 460.916C10.8527 475.196 4.87217 490.342 0.741096 506.033C-1.00719 511.735 -2.75539 517.396 -4.62856 523.015C-20.1134 568.507 -47.9612 612.792 -87.3809 654.621C-101.659 669.771 -115.187 685.962 -110.4 703.068C-107.112 714.764 -95.6229 722.131 -86.0073 725.128C-75.6204 727.761 -64.9152 728.924 -54.2051 728.582H-50.542C25.2816 730.051 99.731 749.085 166.954 784.188L176.403 789.224C194.926 799.172 214.074 809.452 234.679 811.908C243.712 812.99 256.324 812.699 265.399 805.29C279.593 793.678 277.262 770.328 266.273 756.635C254.326 741.776 235.178 734.909 217.987 730.164L208.954 727.75C193.469 723.588 177.443 719.425 163.79 710.477C137.482 693.162 125.286 658.908 135.359 630.814C141.145 614.748 152.676 602.303 166.079 588.859L166.829 588.152C178.525 576.373 190.639 564.22 197.007 549.111C214.032 508.572 177.235 482.184 160.626 472.736L106.513 441.811C95.7315 435.651 83.4935 428.701 70.3813 427.91H67.9669Z" fill="#E5F2FF"/>
<path d="M174.946 773.949C174.03 773.949 173.156 773.949 172.282 773.949C163.74 772.607 155.516 769.716 148.014 765.417L146.349 764.585C99.2943 741.479 48.2067 727.712 -4.08741 724.045L-10.7059 723.629C-22.4142 723.324 -34.0545 721.747 -45.4219 718.926C-60.99 714.431 -73.0616 705.149 -78.7227 693.537C-89.7952 670.354 -74.5601 644.757 -67.3172 634.809C-63.1546 629.066 -58.5757 623.572 -54.0801 618.161C-46.4428 609.092 -39.3406 599.587 -32.8093 589.692L-26.8151 579.911L10.0655 512.11C16.7257 500.04 23.6355 487.595 34.1668 477.98C49.9431 463.579 74.1693 456.254 102.184 457.419C119.65 457.641 136.798 462.127 152.135 470.488C159.853 474.734 166.613 480.525 171.992 487.5C177.37 494.475 181.253 502.484 183.396 511.028C186.976 527.26 182.938 546.114 171.782 565.635C166.659 574.236 161.102 582.571 155.132 590.608C150.22 597.475 145.142 604.551 140.729 611.834C129.407 630.564 124.786 647.795 126.909 663.112C129.823 683.922 144.85 702.777 172.698 721.007L174.654 722.256C181.318 726.065 187.32 730.928 192.429 736.657C195.429 740.03 197.444 744.163 198.251 748.605C199.059 753.046 198.629 757.624 197.007 761.838C193.178 770.328 183.354 773.949 174.946 773.949ZM-36.5556 601.554C-41.0928 608.13 -45.7966 614.748 -50.8749 620.783C-55.2873 626.027 -59.8661 631.521 -63.9039 637.14C-70.6056 646.463 -85.0498 670.437 -74.9347 691.622C-69.8563 702.194 -58.7005 710.602 -44.298 714.806C-33.2267 717.527 -21.8947 719.048 -10.4977 719.342L-3.83766 719.758C48.9957 723.47 100.608 737.393 148.139 760.755L149.845 761.588C156.881 765.723 164.611 768.544 172.656 769.912C180.149 770.62 189.806 767.873 193.469 760.214C197.132 752.556 193.469 744.398 189.307 739.404C184.513 734.036 178.892 729.47 172.656 725.877L170.7 724.628C141.562 705.732 126.035 685.837 122.913 663.819C120.624 647.546 125.494 629.357 137.316 609.712C141.812 602.262 146.931 595.103 151.885 588.193C157.504 580.285 163.332 572.086 168.202 563.595C175.612 550.609 183.562 531.089 179.4 511.943C177.374 503.958 173.721 496.477 168.672 489.967C163.623 483.457 157.284 478.059 150.053 474.11C135.352 466.112 118.919 461.826 102.184 461.623C75.21 460.499 52.2325 467.45 37.1639 481.102C27.1321 490.259 20.5135 502.412 13.8534 514.149L-31.1026 593.937L-36.5556 601.554Z" fill="#E5F2FF"/>
<path d="M90.1121 722.297C83.5834 722.146 77.0736 721.534 70.6312 720.466L21.7207 713.474C10.6066 711.892 -1.96449 710.061 -12.4126 703.568C-26.6903 694.619 -36.0145 676.847 -37.3882 655.953C-39.0116 630.356 -29.604 606.007 -20.2382 585.197C-9.40755 560.593 4.34459 537.382 20.7217 516.064L23.3442 512.692C28.2977 506.116 33.9171 498.708 41.6179 495.461C52.2955 491.726 63.6843 490.473 74.9187 491.799C89.1481 492.995 102.746 498.205 114.13 506.824C136.483 524.013 146.765 555.188 138.606 581.035C135.564 589.522 131.644 597.668 126.909 605.341C122.233 612.804 118.394 620.761 115.462 629.066C111.338 642.623 112.134 657.201 117.71 670.229C118.598 672.144 119.514 674.058 120.457 675.973C124.126 681.997 126.189 688.861 126.452 695.909C125.91 708.687 114.505 717.636 104.14 720.591C99.5624 721.789 94.8436 722.363 90.1121 722.297ZM65.5528 495.461C57.9309 495.271 50.3431 496.543 43.1997 499.207C36.5396 502.037 31.2531 508.988 26.5493 515.106C25.6336 516.313 24.7594 517.479 23.8852 518.561C7.68927 539.611 -5.89653 562.544 -16.5752 586.862C-25.7329 607.048 -34.9322 631.022 -33.2256 655.703C-32.0184 675.224 -23.4018 691.789 -10.248 700.03C-0.549122 706.065 11.564 707.813 22.2619 709.353L71.2972 716.345C81.3707 717.761 92.8178 719.425 103.141 716.345C112.091 713.848 121.956 706.232 122.414 695.535C122.074 689.191 120.172 683.029 116.878 677.596C115.879 675.64 114.921 673.684 114.047 671.686C108.044 657.758 107.188 642.151 111.633 627.65C114.642 619.043 118.593 610.793 123.413 603.052C128.015 595.64 131.811 587.757 134.735 579.536C142.394 555.354 132.695 526.053 111.716 509.904C100.942 501.771 88.0806 496.864 74.6273 495.753C72.213 495.669 69.0494 495.461 65.5528 495.461Z" fill="#E5F2FF"/>
<path d="M23.1361 699.655C14.7158 700.044 6.39058 697.741 -0.632244 693.079C-9.33206 686.836 -14.91 676.098 -17.6157 660.24C-22.7116 629.053 -16.5124 597.072 -0.132753 570.047L3.65522 561.93C6.42363 556.735 9.91311 551.956 14.02 547.738C21.6756 538.097 32.2979 531.25 44.2405 528.259C52.8984 526.864 61.7237 526.864 70.3816 528.259C73.8782 528.675 77.458 529.091 80.9546 529.299L84.8258 529.508C90.9847 529.349 97.1131 530.424 102.85 532.671C114.921 538.414 119.5 552.691 118.668 564.345C117.835 575.999 112.798 586.57 107.887 596.892L107.304 598.183C102.184 608.963 97.605 619.576 97.7299 630.689C97.8637 634.191 98.2252 637.681 98.8121 641.136C99.779 646.11 100.101 651.188 99.7695 656.244C98.7702 662.61 96.2962 668.654 92.5452 673.893C88.7941 679.132 83.8699 683.422 78.1656 686.42C67.0907 692.132 55.1023 695.865 42.7419 697.449C36.2827 698.75 29.7229 699.488 23.1361 699.655ZM-3.92073 584.697C-15.264 607.938 -18.643 634.265 -13.5363 659.616C-10.9971 674.308 -6.00205 684.214 1.78201 689.749C12.5631 697.491 27.4652 696.159 41.9927 693.579C53.8835 692.082 65.4211 688.518 76.0843 683.048C81.2237 680.396 85.6679 676.573 89.0589 671.889C92.4499 667.204 94.6928 661.788 95.6069 656.078C95.9165 651.369 95.6087 646.639 94.6911 642.01C94.1024 638.358 93.7272 634.675 93.5673 630.98C93.5673 618.993 98.1877 607.88 103.516 596.643L104.14 595.352C108.844 585.405 113.714 575.124 114.505 564.303C115.213 554.397 111.3 541.536 101.06 536.708C95.8369 534.679 90.2603 533.717 84.6593 533.878H80.7049C77.0834 533.67 73.4619 533.212 69.9237 532.837C61.6682 531.399 53.2348 531.3 44.9481 532.546C33.917 535.382 24.1202 541.757 17.0588 550.693C9.93267 559.84 3.84558 569.751 -1.09019 580.244L-3.92073 584.697Z" fill="#E5F2FF"/>
<path d="M32.4601 673.309C25.7068 673.385 19.094 671.379 13.5204 667.565C2.03164 659.532 -2.464 645.881 -4.21229 635.85C-6.11644 624.896 -5.79077 613.67 -3.25485 602.844C1.24075 583.116 16.1845 557.727 38.3711 548.737C44.771 546.063 51.7348 545.021 58.6371 545.704C65.5393 546.387 72.1639 548.773 77.9157 552.649C86.9069 558.309 95.2322 569.63 92.1518 581.159C90.5296 586.051 87.8749 590.536 84.3677 594.312C82.994 596.018 81.5788 597.766 80.2051 599.556C74.5856 607.88 72.546 618.535 70.6312 628.691C68.2169 641.386 65.7609 654.455 56.5199 663.778C50.0721 670.005 41.4237 673.431 32.4601 673.309ZM54.3138 549.444C49.3523 549.477 44.4452 550.481 39.8696 552.399C19.0566 561.015 5.07034 585.072 0.782874 603.801C-1.59468 614.085 -1.90596 624.738 -0.132901 635.142C2.15653 648.211 7.8593 658.533 15.8931 664.277C21.6331 668.066 28.4886 669.795 35.339 669.183C42.1893 668.57 48.6294 665.652 53.6062 660.906C61.9314 652.582 64.1792 640.595 66.5935 627.983C68.5915 617.287 70.7561 606.257 76.7919 597.184C78.0823 595.269 79.5808 593.438 80.9545 591.648C84.0837 588.326 86.4804 584.384 87.9893 580.077C90.4868 570.546 83.2855 561.015 75.5015 556.145C69.2206 551.941 61.8702 549.616 54.3138 549.444Z" fill="#E5F2FF"/>
<path d="M34.2083 631.105C30.3383 630.995 26.5576 629.917 23.2124 627.968C19.8671 626.02 17.0642 623.263 15.0603 619.951C12.9319 616.125 11.579 611.916 11.079 607.567C10.579 603.218 10.9419 598.812 12.1466 594.603C14.1013 585.998 19.1348 578.404 26.2994 573.251C30.0856 570.408 34.5945 568.686 39.3122 568.282C44.0299 567.877 48.7664 568.806 52.9816 570.962C56.7943 573.231 59.8831 576.537 61.8879 580.494C63.8926 584.451 64.7305 588.897 64.3039 593.313C63.5097 602.196 60.2034 610.67 54.7715 617.745C51.0326 623.987 45.0931 628.604 38.1211 630.689C36.8367 630.974 35.5241 631.114 34.2083 631.105ZM41.9507 572.253C37.169 572.357 32.5288 573.894 28.6304 576.664C22.3065 581.252 17.8678 587.983 16.1427 595.602C15.0737 599.28 14.7404 603.132 15.1618 606.939C15.5833 610.745 16.7511 614.431 18.5986 617.786C20.4311 620.958 23.1826 623.499 26.4898 625.075C29.797 626.65 33.5043 627.185 37.1222 626.61C43.0997 624.761 48.1651 620.736 51.3165 615.331C56.3102 608.915 59.3585 601.201 60.0996 593.105C60.4943 589.466 59.8421 585.791 58.2199 582.51C56.5978 579.229 54.0729 576.479 50.9419 574.583C48.1531 573.038 45.014 572.236 41.8258 572.253H41.9507Z" fill="#E5F2FF"/>
<path d="M34.6666 615.622C27.8399 615.622 22.7616 608.962 21.9291 602.594C21.6136 595.706 24.0381 588.972 28.6726 583.865C30.0433 582.206 31.7676 580.874 33.7193 579.966C35.6711 579.059 37.8009 578.599 39.9532 578.621C41.9461 578.576 43.9129 579.08 45.6382 580.079C47.3636 581.077 48.7811 582.531 49.7353 584.281C53.3151 590.732 50.7759 600.93 47.8621 605.841C44.3239 611.959 39.9531 615.331 35.3743 615.58L34.6666 615.622ZM39.412 582.741C37.9331 582.843 36.4907 583.246 35.1735 583.926C33.8563 584.606 32.6922 585.549 31.7529 586.695C27.9083 590.864 25.8726 596.387 26.0917 602.053C26.6744 606.798 30.4624 611.71 34.9997 611.46C39.5369 611.21 42.2842 607.298 44.2406 603.76C47.0712 598.849 48.4032 590.649 46.1137 586.279C45.4834 585.158 44.5544 584.233 43.43 583.609C42.3057 582.984 41.03 582.684 39.745 582.741H39.412Z" fill="#E5F2FF"/>
<path d="M169.535 1967.73C65.4697 1937.26 8.02585 1832.3 -11.2053 1744.23C-27.8557 1667.43 -24.6922 1587.31 -21.5286 1509.81C-20.6545 1488.59 -19.7802 1466.65 -19.3223 1445.13C-17.4075 1357.48 -22.5692 1245.6 -79.7633 1157.7C-120.783 1095.11 -184.021 1050.41 -256.715 1032.63C-260.878 1031.67 -264.707 1030.75 -268.787 1029.88C-291.39 1024.84 -314.575 1019.64 -331.226 1003.16C-352.039 981.931 -354.286 949.466 -354.619 918.001C-355.119 874.756 -355.66 825.768 -337.969 782.607C-321.818 742.858 -283.855 702.943 -234.945 702.943H-234.154C-210.802 703.152 -188.365 712.724 -168.51 721.215L168.286 864.975C204.167 880.25 241.214 896.108 280.676 898.48C314.767 900.478 359.765 890.156 383.534 855.486C407.302 820.815 401.807 768.705 371.42 733.493C343.281 700.821 297.076 682.091 244.586 682.091H243.379C237.716 682.23 232.075 681.342 226.729 679.469C221.889 677.986 217.506 675.299 213.989 671.659C210.472 668.019 207.938 663.546 206.623 658.658C202.169 641.344 212.492 619.285 224.73 605.05L225.188 604.509C244.956 581.759 269.132 563.254 296.255 550.113C323.379 536.971 352.886 529.466 382.992 528.051C484.934 523.264 561.11 538.165 622.799 574.958C663.426 599.182 697.393 633.228 730.277 666.525C762.038 698.49 794.922 731.579 833.593 755.386C920.217 808.745 1042.06 816.819 1167.89 777.529C1249.02 752.181 1325.53 711.393 1399.58 671.977C1426.18 657.784 1453.69 643.092 1481.08 629.357C1570.96 584.198 1690.01 533.378 1814.09 541.203C1901.26 546.739 1985.51 582.283 2057.69 643.966C2126.95 703.09 2177.77 780.853 2204.13 868.014L2199.96 869.221C2147.97 692.455 1985.51 556.27 1813.68 545.365C1690.75 537.582 1572.25 588.152 1483 633.061C1455.69 646.796 1428.18 661.447 1401.58 675.64C1327.36 715.18 1250.64 756.052 1169.18 781.483C1042.18 821.148 919.093 812.907 831.47 758.924C792.342 734.825 759.333 701.612 727.405 669.48C694.729 636.599 660.804 602.595 620.76 578.621C559.819 542.244 484.31 527.551 383.284 532.296C353.749 533.674 324.801 541.023 298.186 553.9C271.572 566.776 247.844 584.913 228.435 607.214L227.977 607.756C216.447 621.158 206.665 641.76 210.744 657.701C211.911 661.933 214.129 665.801 217.193 668.945C220.258 672.089 224.068 674.406 228.269 675.682C233.262 677.386 238.522 678.175 243.795 678.012C297.909 677.679 345.612 697.075 374.709 730.83C406.261 767.457 411.589 822.064 387.196 857.9C362.804 893.736 315.891 904.807 280.676 902.684C240.34 900.27 202.919 884.329 166.746 868.888L-170.133 725.044C-189.572 716.72 -211.759 707.314 -234.154 707.106C-281.316 706.814 -318.363 745.522 -334.056 784.188C-351.331 826.559 -350.706 875.131 -350.29 917.959C-349.957 948.551 -347.959 980.1 -328.104 1000.2C-312.66 1015.85 -289.849 1021.01 -267.829 1025.8L-255.716 1028.59C-181.994 1046.63 -117.854 1091.95 -76.225 1155.41C-18.4482 1244.27 -13.2034 1356.98 -15.1182 1445.22C-15.5761 1466.78 -16.4502 1488.75 -17.3243 1509.98C-20.4879 1587.23 -23.7348 1667.06 -7.08441 1743.35C11.897 1830.26 68.5499 1933.81 170.742 1963.94L169.535 1967.73Z" fill="#E5F2FF"/>
<path d="M240.257 576.331C239.283 576.335 238.32 576.137 237.427 575.749C235.574 574.581 234.162 572.833 233.408 570.777C232.655 568.721 232.605 566.474 233.264 564.386C234.353 559.984 236.108 555.773 238.467 551.9C239.508 550.027 240.507 548.154 241.381 546.198C245.589 536.742 246.124 526.058 242.88 516.23L242.255 514.399C241.295 512.073 240.678 509.619 240.424 507.115C240.228 505.427 240.483 503.718 241.163 502.16C241.843 500.603 242.924 499.254 244.295 498.25C245.677 497.382 247.265 496.898 248.897 496.847C250.528 496.796 252.143 497.179 253.577 497.959C256.18 499.337 258.576 501.075 260.695 503.12C262.189 504.446 263.76 505.683 265.399 506.824C272.738 510.484 280.766 512.555 288.96 512.901C291.748 513.234 294.496 513.566 297.076 513.983C301.56 514.435 305.892 515.855 309.772 518.145C311.947 519.463 313.656 521.427 314.663 523.761C315.67 526.096 315.925 528.686 315.392 531.172C313.477 537.707 305.86 539.705 300.823 540.995C281.54 546.125 264.043 556.464 250.247 570.879C247.733 573.902 244.16 575.852 240.257 576.331ZM248.832 500.83C247.988 500.82 247.16 501.067 246.459 501.538C245.698 502.137 245.105 502.924 244.74 503.822C244.375 504.72 244.25 505.697 244.378 506.657C244.654 508.772 245.2 510.842 246.002 512.817C246.251 513.442 246.459 514.108 246.668 514.732C250.242 525.557 249.648 537.327 245.003 547.738C244.087 549.777 243.046 551.9 241.964 553.689C239.822 557.267 238.21 561.137 237.177 565.177C236.636 567.882 237.177 571.045 239.133 571.92C241.09 572.794 243.546 571.462 247.084 567.757C261.348 552.731 279.529 541.991 299.574 536.75C305.069 535.293 310.064 533.67 311.229 529.757C311.463 528.135 311.213 526.479 310.509 524.998C309.806 523.517 308.681 522.277 307.275 521.433C303.878 519.535 300.12 518.372 296.244 518.02C293.746 517.604 291.082 517.271 288.335 516.938C280.01 515.939 270.311 514.815 263.068 510.237C261.225 508.991 259.485 507.599 257.865 506.075C255.982 504.307 253.884 502.783 251.621 501.538C250.755 501.099 249.803 500.858 248.832 500.83Z" fill="#E5F2FF"/>
<path d="M254.118 553.023C253.76 553.084 253.394 553.084 253.036 553.023C252.369 552.897 251.747 552.595 251.235 552.148C250.723 551.702 250.339 551.128 250.122 550.485C249.331 548.07 251.413 545.532 252.87 543.742C253.161 543.367 253.411 543.118 253.536 542.909C255.037 539.94 255.835 536.664 255.867 533.337V532.546C256.491 525.637 258.656 521.308 262.568 519.269C266.684 517.711 271.248 517.846 275.264 519.643L284.006 522.432C285.418 522.758 286.679 523.549 287.586 524.679C288.22 525.81 288.45 527.122 288.238 528.401C288.026 529.68 287.385 530.848 286.42 531.713C283.64 534.419 280.259 536.429 276.555 537.582L274.057 538.581C268.048 541.207 262.753 545.231 258.614 550.318C258.098 551.06 257.431 551.685 256.656 552.152C255.881 552.618 255.016 552.915 254.118 553.023ZM260.071 532.754V533.503C260.053 537.505 259.037 541.439 257.115 544.949C256.843 545.388 256.537 545.806 256.2 546.198C255.525 546.971 254.926 547.808 254.41 548.695C254.827 548.366 255.205 547.989 255.534 547.571C260.062 541.927 265.909 537.482 272.559 534.627C273.391 534.252 274.265 533.878 275.181 533.545C278.284 532.603 281.132 530.966 283.506 528.758C284.214 527.967 284.464 527.093 284.297 526.885C283.889 526.573 283.422 526.347 282.924 526.219L274.182 523.472C271.203 522.055 267.797 521.817 264.65 522.806C262.111 524.138 260.487 527.385 260.196 532.754H260.071Z" fill="#E5F2FF"/>
<path d="M995.768 2037.32L992.146 2035.24C1073.86 1892.19 1055.79 1697.11 949.23 1571.46C925.628 1543.69 897.989 1518.76 871.223 1494.66C839.587 1466.19 806.869 1436.73 780.645 1402.31C739.799 1348.3 715.401 1283.66 710.38 1216.13C706.218 1156.41 717.498 1096.35 728.446 1038.24L728.779 1036.37C739.185 981.265 750.966 918.75 745.429 857.65C739.56 791.43 712.129 734.159 670.253 700.529C620.885 660.864 550.079 656.993 505.581 691.581C466.702 721.756 454.547 769.537 441.685 820.066C432.652 855.694 423.286 892.487 403.722 922.954C379.704 960.205 342.241 985.177 306.234 1009.73C291.457 1019.64 276.222 1029.92 262.152 1040.87C197.257 1091.19 144.101 1166.35 108.469 1258.25C74.2111 1346.49 58.8511 1440.56 48.3614 1520.97C41.1601 1576.03 34.3335 1639.84 44.407 1700.52C55.3546 1766.41 85.4917 1820.73 129.282 1853.52L126.785 1856.89C82.12 1823.6 51.4001 1768.16 40.286 1701.23C30.1292 1639.96 36.9975 1575.78 44.4485 1520.43C54.9799 1439.81 70.3816 1345.41 104.765 1256.76C140.729 1164.15 194.344 1088.36 259.821 1037.58C274.016 1026.55 289.292 1016.23 304.111 1006.28C339.951 982.098 377.04 957.083 400.434 920.664C419.623 890.822 428.906 854.32 437.897 819.067C450.385 770.037 463.247 719.176 503.25 688.293C549.038 652.582 622.217 656.452 673.084 697.283C715.875 731.62 743.848 789.974 749.759 857.275C755.212 918.958 743.39 981.764 733.108 1037.16L732.775 1039.04C721.869 1096.85 710.63 1156.66 714.793 1215.84C719.748 1282.55 743.841 1346.41 784.183 1399.77C810.199 1433.9 842.751 1463.24 874.262 1491.58C901.11 1515.77 928.875 1540.78 952.643 1568.79C1059.96 1695.74 1078.19 1892.77 995.768 2037.32Z" fill="#E5F2FF"/>
<path d="M416.251 730.039C402.931 730.039 390.443 722.838 381.702 716.221C377.539 713.099 373.71 709.686 369.88 706.398C363.051 700.095 355.588 694.516 347.61 689.749C334.54 682.674 319.346 680.343 304.652 678.096C297.826 677.055 290.832 675.973 283.839 674.475C262.319 669.605 238.051 656.203 234.18 633.061C230.267 609.004 250.289 589.276 262.568 579.661C293.705 555.229 335.122 540.329 382.368 536.5C427.199 532.879 472.155 539.372 510.159 546.156C535.843 550.776 565.564 556.686 593.037 569.089C619.178 580.91 667.755 611.668 664.592 643.467C664.394 646.403 663.576 649.265 662.191 651.862C660.806 654.459 658.886 656.733 656.558 658.533C642.197 669.646 611.768 664.818 589.582 661.28C582.989 659.994 576.311 659.188 569.601 658.867C528.467 659.313 489.026 675.313 459.209 703.651L454.63 708.313C445.598 717.261 436.273 726.543 423.661 729.123C421.231 729.696 418.747 730.003 416.251 730.039ZM409.217 539.83C400.475 539.83 391.692 540.176 382.867 540.87C336.454 544.616 295.786 559.225 265.316 583.116C255.991 590.441 234.762 609.837 238.467 632.603C241.88 653.664 264.733 665.901 284.922 670.604C291.582 672.102 298.533 673.184 305.277 674.183C320.345 676.514 335.913 678.886 349.567 686.295C357.832 691.17 365.549 696.919 372.586 703.443C376.374 706.689 380.245 710.019 384.241 713.057C393.857 720.383 408.384 728.457 422.787 725.336C434.192 722.88 443.1 714.056 451.717 705.524C453.298 703.942 454.88 702.361 456.504 700.862C487.112 671.859 527.559 655.503 569.726 655.079C576.708 655.471 583.658 656.291 590.539 657.535C611.977 660.948 641.364 665.609 654.31 655.578C656.194 654.137 657.743 652.304 658.85 650.205C659.956 648.107 660.595 645.794 660.721 643.425C663.801 612.875 611.852 582.408 591.621 573.293C567.312 562.305 541.296 556.27 509.702 550.651C476.594 544.073 442.966 540.452 409.217 539.83Z" fill="#E5F2FF"/>
<path d="M30.8785 1387.57C30.0327 1387.61 29.1852 1387.61 28.3393 1387.57C22.6915 1387.12 17.4034 1384.62 13.4706 1380.54C9.53766 1376.46 7.23114 1371.09 6.98517 1365.43L2.03168 1285.18C-0.923767 1236.7 -4.3371 1181.76 -29.8538 1136.43C-67.0674 1070.46 -142.244 1038.12 -203.642 1017.35L-208.138 1015.85C-246.309 1002.95 -285.77 989.631 -307.748 956.667C-322.692 934.191 -328.062 903.641 -324.149 863.269C-319.987 820.565 -307.499 791.306 -285.603 773.825C-266.747 758.716 -240.023 752.307 -210.385 755.803C-184.161 758.883 -159.477 768.788 -135.459 778.361L151.76 893.611C160.114 897.163 168.284 901.136 176.236 905.514C189.39 912.424 202.96 919.541 216.156 922.371C225.415 923.636 234.809 923.552 244.045 922.121C263.817 920.165 284.256 918.167 296.285 935.024C298.779 938.623 300.494 942.704 301.318 947.005C302.142 951.305 302.059 955.73 301.072 959.997C297.326 976.645 285.171 987.8 272.975 997.789C256.325 1011.4 238.509 1024.26 221.192 1036.75C176.569 1068.88 130.406 1102.13 103.765 1150.16C80.9545 1191.41 74.6273 1239.78 68.55 1286.56C67.9672 1291.26 67.3428 1295.96 66.7184 1300.63C63.9006 1324.19 59.4781 1347.54 53.4814 1370.51C52.2153 1375.5 49.2863 1379.91 45.1774 1383.01C41.0685 1386.11 36.0251 1387.72 30.8785 1387.57ZM-225.912 759.091C-246.439 758.424 -266.581 764.766 -283.023 777.071C-303.836 793.72 -315.99 822.147 -320.028 863.685C-323.816 903.059 -318.655 932.735 -304.252 954.336C-283.106 986.176 -244.311 999.246 -206.806 1011.9L-202.31 1013.4C-140.246 1034.42 -64.1118 1067.17 -26.2322 1134.39C-0.216034 1180.55 3.1972 1236.03 6.19427 1284.93L11.1478 1365.18C11.3563 1369.84 13.2607 1374.27 16.5032 1377.63C19.7456 1380.98 24.1028 1383.04 28.7556 1383.41C33.3444 1384.05 38.0087 1382.98 41.851 1380.39C45.6933 1377.8 48.4421 1373.88 49.5685 1369.38C55.4955 1346.59 59.8761 1323.43 62.6807 1300.04C63.3051 1295.38 63.9295 1290.72 64.5123 1286.02C70.6313 1238.86 77 1190.08 100.227 1148.17C127.284 1099.3 173.822 1065.8 218.82 1033.38C236.094 1020.89 253.952 1008.07 270.436 994.542C282.049 985.053 293.663 974.439 297.076 959.081C297.935 955.383 298.008 951.546 297.291 947.818C296.574 944.09 295.083 940.554 292.914 937.438C282.299 922.538 263.068 924.41 244.461 926.242C234.812 927.747 224.993 927.818 215.323 926.45C201.545 923.495 187.683 916.211 174.322 909.177C165.996 904.765 158.046 900.853 150.22 897.481L-136.999 782.232C-160.601 772.742 -185.035 762.962 -210.718 759.923C-215.759 759.286 -220.832 758.939 -225.912 758.883V759.091Z" fill="#E5F2FF"/>
<path d="M32.1687 1344.58C31.6293 1344.64 31.0846 1344.64 30.5452 1344.58C28.6494 1344.26 26.9325 1343.27 25.7092 1341.78C24.486 1340.3 23.8382 1338.42 23.8851 1336.5C23.8851 1292.18 23.011 1240.77 11.0643 1191.16C-3.96265 1128.73 -35.6399 1078.49 -78.14 1049.27C-100.909 1033.62 -127.342 1023.51 -153.067 1013.69C-166.803 1008.44 -180.998 1002.99 -194.693 996.706C-222.749 983.762 -271.243 954.752 -281.108 906.014C-284.049 890.781 -282.966 875.045 -277.966 860.359C-272.965 845.673 -264.22 832.545 -252.594 822.272C-227.619 800.587 -189.947 792.804 -149.154 800.961C-119.266 806.913 -91.169 820.024 -63.9872 832.719C-58.8672 835.091 -53.7889 837.505 -48.6689 839.836C-3.18158 860.295 43.4152 878.192 90.9028 893.444C101.892 897.023 113.298 901.019 124.204 904.89C155.215 915.753 187.267 926.991 218.611 932.984C223.116 933.705 227.663 934.136 232.223 934.275C248.166 935.19 266.231 936.231 270.935 955.46C272.356 961.936 271.707 968.695 269.077 974.782C266.448 980.869 261.972 985.976 256.283 989.381C180.107 1035.87 103.349 1088.02 74.7936 1168.98C65.5943 1195.07 61.8896 1223.5 58.1432 1251.01C54.272 1280.9 50.2343 1311.82 39.1202 1339.54C38.5693 1340.96 37.6203 1342.19 36.3872 1343.08C35.1541 1343.98 33.6893 1344.5 32.1687 1344.58ZM-179.874 801.794C-207.389 801.794 -231.865 809.869 -249.556 825.227C-260.627 835.019 -268.953 847.528 -273.713 861.52C-278.472 875.513 -279.501 890.504 -276.696 905.015C-267.205 951.964 -219.96 980.141 -192.653 992.794C-179.208 998.996 -165.097 1004.41 -151.402 1009.65C-125.635 1019.56 -98.953 1029.75 -75.809 1045.69C-32.4347 1075.45 -0.174683 1126.73 15.1021 1190C27.1736 1239.94 28.1309 1291.76 28.0476 1336.34C27.9628 1337.32 28.2558 1338.3 28.8669 1339.07C29.478 1339.84 30.3611 1340.35 31.3362 1340.5C32.2729 1340.72 33.2577 1340.58 34.1024 1340.12C34.9471 1339.66 35.5924 1338.91 35.915 1338C46.821 1310.74 50.7754 1280.11 54.605 1250.6C58.2265 1222.88 61.9312 1194.2 71.2554 1167.73C100.394 1085.48 177.693 1032.83 254.41 985.968C259.342 983.018 263.227 978.598 265.519 973.328C267.811 968.058 268.395 962.202 267.189 956.584C263.234 940.351 247.5 939.436 232.264 938.561C227.522 938.409 222.795 937.95 218.112 937.188C186.434 931.153 154.257 919.874 123.121 908.927C112.132 905.098 100.768 901.102 89.8205 897.523C42.2344 882.184 -4.45901 864.203 -50.0425 843.665C-55.2041 841.334 -60.2825 838.92 -65.4025 836.548C-92.3761 824.061 -120.224 810.951 -149.612 805.082C-159.569 803.01 -169.704 801.908 -179.874 801.794Z" fill="#E5F2FF"/>
<path d="M406.677 687.502C404.152 687.503 401.636 687.195 399.185 686.586C390.11 684.214 383.284 677.679 376.707 671.394C374.459 669.272 372.169 667.232 369.838 665.11C362.004 658.938 353.551 653.595 344.613 649.169L337.37 645.215C326.756 639.263 314.851 631.646 307.316 620.242C300.49 609.837 297.118 593.896 304.985 581.617C310.605 572.877 320.553 568.132 328.545 564.969C378.497 545.448 434.317 551.317 482.936 558.351C507.912 561.931 534.053 566.217 558.654 575.624C577.259 582.343 594.278 592.828 608.646 606.424C613.267 610.96 622.841 620.408 616.972 630.772C612.309 639.096 602.361 641.427 593.203 642.717C578.202 644.594 563.113 645.692 547.997 646.006C538.923 646.338 529.557 646.713 520.399 647.421C490.803 649.668 468.95 655.745 451.675 666.233C448.387 668.231 445.14 670.396 442.018 672.685C437.512 675.96 432.814 678.962 427.948 681.675C421.439 685.321 414.137 687.322 406.677 687.502ZM407.343 555.77C380.992 555.3 354.787 559.775 330.086 568.964C322.635 571.878 313.435 576.248 308.523 583.99C301.655 594.686 304.694 608.962 310.771 618.078C317.848 628.816 329.212 636.1 339.41 641.802C341.783 643.134 344.197 644.424 346.611 645.714C355.808 650.27 364.5 655.781 372.544 662.155C374.958 664.194 377.289 666.317 379.579 668.606C386.073 674.807 392.067 680.634 400.392 682.757C409.222 684.403 418.348 682.744 426.033 678.096C430.743 675.437 435.301 672.519 439.687 669.355C442.85 667.149 446.18 664.818 449.552 662.737C473.029 648.42 501.043 644.798 520.108 643.342C529.349 642.634 538.798 642.26 547.914 641.927C562.877 641.63 577.813 640.547 592.662 638.68C600.987 637.556 609.604 635.475 613.475 628.816C617.346 622.156 612.101 615.58 605.899 609.462C591.951 596.296 575.445 586.138 557.405 579.619C533.22 570.38 507.162 566.134 482.478 562.596C457.63 558.519 432.52 556.238 407.343 555.77Z" fill="#E5F2FF"/>
<path d="M436.357 657.909C423.564 657.677 410.794 656.746 398.102 655.121C388.272 654.415 378.561 652.543 369.172 649.543C359.395 646.403 351.047 639.9 345.612 631.188C336.121 614.54 343.781 593.188 355.769 581.617C366.633 571.17 381.827 564.594 403.68 560.807C446.014 553.689 488.514 558.85 539.381 568.715V569.256C550.542 571.262 560.913 576.368 569.31 583.99C579.05 593.646 582.464 607.964 577.635 618.785C575.249 623.321 571.907 627.285 567.839 630.404C563.771 633.523 559.075 635.722 554.075 636.849C547.413 638.514 540.614 639.573 533.761 640.012L525.228 640.928C513.412 642.755 501.73 645.369 490.262 648.752C477.806 652.527 465.07 655.31 452.175 657.077C446.922 657.651 441.641 657.929 436.357 657.909ZM444.932 561.806C431.35 561.754 417.788 562.84 404.388 565.052C383.575 568.548 368.881 574.791 358.599 584.614C347.693 595.103 340.7 614.248 349.15 629.149C354.087 637.038 361.649 642.933 370.504 645.797C379.59 648.654 388.978 650.441 398.477 651.125C416.015 653.718 433.782 654.402 451.467 653.164C464.144 651.425 476.669 648.711 488.93 645.048C500.576 641.61 512.438 638.954 524.437 637.098C527.309 636.724 530.223 636.474 533.137 636.183C539.72 635.736 546.252 634.72 552.659 633.145C557.058 632.163 561.193 630.247 564.785 627.525C568.376 624.803 571.339 621.339 573.472 617.37C577.635 608.088 574.555 595.727 566.022 587.236C557.422 579.579 546.747 574.64 535.343 573.043C530.39 572.044 525.27 571.337 520.316 570.629C513.56 569.804 506.849 568.638 500.211 567.133V566.509C481.924 563.598 463.448 562.026 444.932 561.806Z" fill="#E5F2FF"/>
<path d="M434.234 642.717C419.978 642.665 405.779 640.904 391.942 637.473C385.933 636.249 380.193 633.95 375 630.689C372.251 628.924 369.933 626.564 368.219 623.783C366.504 621.002 365.436 617.872 365.093 614.623C364.469 603.51 374.292 595.352 382.659 590.483C415.211 571.545 454.547 568.881 485.184 568.631C492.578 568.198 499.989 569.144 507.038 571.42C510.946 572.834 514.495 575.093 517.43 578.036C520.366 580.978 522.616 584.532 524.021 588.443C525.203 591.924 525.592 595.626 525.16 599.277C524.728 602.928 523.485 606.436 521.523 609.545C516.586 616.676 509.89 622.41 502.084 626.194C481.203 637.282 457.876 642.963 434.234 642.717ZM487.099 572.794H485.184C455.088 573.043 416.46 575.624 384.782 594.062C377.414 598.224 368.756 605.383 369.256 614.415C369.558 617.03 370.445 619.543 371.85 621.769C373.255 623.995 375.142 625.877 377.373 627.276C382.156 630.236 387.427 632.322 392.941 633.436C431.112 642.842 470.199 638.93 500.086 622.614C507.298 619.25 513.467 614.001 517.944 607.422C519.586 604.823 520.631 601.893 521.006 598.841C521.38 595.79 521.073 592.694 520.108 589.775C518.89 586.441 516.953 583.415 514.435 580.912C511.918 578.409 508.881 576.49 505.539 575.291C499.596 573.344 493.346 572.497 487.099 572.794Z" fill="#E5F2FF"/>
<path d="M938.324 2024.79L934.744 2022.71C1010 1893.69 1032.36 1792.38 1005.09 1704.14C981.573 1628.02 921.84 1570.96 864.147 1515.97C832.053 1485.34 798.794 1453.54 771.612 1418.66C736.592 1373.32 710.847 1321.52 695.849 1266.22C680.85 1210.92 676.891 1153.22 684.198 1096.39C686.695 1077.37 690.483 1058.22 694.188 1039.74C698.35 1019.51 702.513 998.621 704.844 977.811C710.38 930.237 705.261 892.196 689.151 861.521C669.462 824.061 630.375 800.337 594.119 803.875C561.568 807.122 535.551 829.972 519.442 848.618C508.6 861.638 498.497 875.256 489.18 889.407C481.812 900.187 474.195 911.341 465.953 921.747C429.863 967.53 381.078 1001.16 333.832 1033.75C297.451 1058.72 259.863 1084.86 228.227 1116.2C120 1223.42 87.1985 1383.08 65.0535 1524.34C56.312 1580.15 49.0691 1634.64 56.7283 1687.66C65.0535 1747.64 93.4008 1798.04 134.028 1825.93L131.655 1829.34C90.0291 1800.79 61.2655 1749.34 52.5657 1688.24C44.9482 1634.68 52.2327 1580.03 60.8909 1523.72C83.1191 1381.79 116.004 1221.34 225.23 1113.25C257.157 1081.66 294.912 1055.56 331.418 1030.34C378.413 997.914 426.949 964.367 462.664 919.166C470.781 908.844 478.399 897.773 485.725 887.076C495.118 872.772 505.319 859.014 516.279 845.871C532.929 826.684 559.778 803.126 593.661 799.755C631.499 796.009 672.334 820.565 692.814 859.564C709.465 891.03 714.585 929.863 708.924 978.31C706.468 999.121 702.263 1020.26 698.226 1040.74C694.563 1059.14 690.775 1078.2 688.277 1097.1C681.042 1153.38 684.972 1210.54 699.843 1265.3C714.714 1320.06 740.233 1371.35 774.942 1416.25C801.958 1451 835.05 1482.59 867.06 1513.14C925.337 1568.58 985.278 1625.94 1009.13 1703.1C1036.69 1792.38 1014.25 1894.64 938.324 2024.79Z" fill="#E5F2FF"/>
</g>
</svg>
