<svg width="131" height="158" viewBox="0 0 131 158" fill="none" xmlns="http://www.w3.org/2000/svg">
<path d="M64.5093 76.1088C74.9003 76.1088 83.898 72.3587 91.2498 64.9597C98.6016 57.5619 102.328 48.5103 102.328 38.0532C102.328 27.5996 98.6016 18.5468 91.2486 11.1467C83.8956 3.75011 74.8991 0 64.5093 0C54.1171 0 45.1218 3.75011 37.77 11.1479C30.4182 18.5456 26.6902 27.5984 26.6902 38.0532C26.6902 48.5103 30.4182 57.5631 37.7712 64.9609C45.1242 72.3575 54.1207 76.1088 64.5093 76.1088Z" fill="#E5F2FF"/>
<path d="M130.683 121.493C130.471 118.415 130.042 115.056 129.41 111.51C128.773 107.937 127.952 104.559 126.97 101.472C125.955 98.2815 124.575 95.1305 122.87 92.1109C121.099 88.9768 119.019 86.2477 116.686 84.002C114.246 81.6526 111.258 79.7636 107.803 78.3858C104.36 77.0153 100.545 76.3209 96.4633 76.3209C94.8604 76.3209 93.3103 76.9827 90.3166 78.9439C88.4742 80.153 86.3191 81.5513 83.9136 83.0979C81.8567 84.4166 79.0703 85.6522 75.6286 86.7708C72.2708 87.8642 68.8614 88.4187 65.4964 88.4187C62.1314 88.4187 58.7232 87.8642 55.3618 86.7708C51.9237 85.6534 49.1373 84.4178 47.0828 83.0991C44.7001 81.567 42.5438 80.1687 40.6738 78.9427C37.6837 76.9815 36.1324 76.3197 34.5295 76.3197C30.447 76.3197 26.6327 77.0153 23.191 78.387C19.7385 79.7624 16.7497 81.6514 14.307 84.0032C11.9747 86.2501 9.89382 88.978 8.12566 92.1109C6.42098 95.1305 5.04095 98.2803 4.02509 101.474C3.04398 104.561 2.22338 107.937 1.58608 111.51C0.954761 115.052 0.525898 118.411 0.313862 121.497C0.105419 124.52 0 127.658 0 130.827C0 139.075 2.60553 145.752 7.74351 150.676C12.818 155.535 19.5325 158 27.6977 158H103.302C111.468 158 118.18 155.536 123.255 150.676C128.394 145.755 131 139.077 131 130.826C130.999 127.642 130.892 124.502 130.683 121.493Z" fill="#E5F2FF"/>
</svg>
