<svg width="311" height="304" viewBox="0 0 311 304" fill="none" xmlns="http://www.w3.org/2000/svg">
<rect y="114" width="311" height="190" rx="50" fill="url(#paint0_linear_8_1145)"/>
<mask id="mask0_8_1145" style="mask-type:alpha" maskUnits="userSpaceOnUse" x="0" y="0" width="311" height="304">
<rect width="311" height="304" rx="50" fill="url(#paint1_linear_8_1145)"/>
</mask>
<g mask="url(#mask0_8_1145)">
<path d="M89.4992 196.63C89.4992 196.63 92.832 192.575 89.4992 187.452C89.4992 187.452 80.5758 190.352 84.2378 202.43C86.8442 211.05 94.712 215.483 98.9952 217.321C99 217.324 99.0053 217.326 99.0109 217.326C99.9368 217.73 100.886 218.077 101.853 218.368C101.853 218.368 105.569 230.77 89.4992 231.475C89.4992 231.475 60.0712 219.82 59.6881 192.19C59.305 164.561 81.0606 151.507 101.853 160.516C117.42 167.264 120.65 200.885 89.4992 196.63Z" fill="#FF9A22"/>
<path d="M99.0115 217.326C98.9359 218.064 97.6171 226.91 97.6171 226.91C97.6171 226.91 73.5513 219.272 71.4315 193.735C69.7425 173.383 89.0794 165.478 98.8664 173.06C108.592 180.595 103.799 198.57 89.4999 196.63C89.4999 196.63 92.8326 192.575 89.4999 187.452C89.4999 187.452 80.5765 190.352 84.2384 202.43C86.8527 211.06 94.7335 215.495 99.0115 217.326Z" fill="white"/>
<g opacity="0.6">
<path d="M61.3988 196.33C61.04 170.462 81.4099 158.241 100.875 166.676C108.542 169.999 113.008 180.283 111.279 188.705C116.439 179.296 111.532 164.712 101.853 160.516C81.0615 151.506 59.3024 164.561 59.6882 192.19C59.7515 198.07 61.2264 203.848 63.9879 209.035C62.3254 205.004 61.4466 200.692 61.3988 196.33Z" fill="white"/>
</g>
<g opacity="0.6">
<path d="M90.5226 194.703C90.0882 195.912 89.5 196.63 89.5 196.63C89.8988 196.684 90.2889 196.729 90.6772 196.77C90.7266 196.077 90.6745 195.381 90.5226 194.703Z" fill="white"/>
</g>
<g opacity="0.6">
<path d="M99.0112 217.326C94.7332 215.495 86.8523 211.06 84.2416 202.43C83.9761 201.558 83.7658 200.669 83.6117 199.771C83.4614 201.464 83.6517 203.492 84.3875 205.918C86.835 213.997 94.2137 218.149 98.2188 219.868C99.0855 220.246 99.9738 220.571 100.879 220.842C100.879 220.842 101.711 223.632 100.792 226.556C103.19 222.832 101.858 218.371 101.858 218.371C100.889 218.08 99.9387 217.731 99.0112 217.326Z" fill="white"/>
</g>
<g opacity="0.25">
<path d="M98.996 217.321C98.3148 217.164 76.4663 211.998 74.3221 193.025C72.2691 174.85 89.4783 172.932 94.3453 178.985C99.1419 184.954 96.9699 195.726 89.5 196.63C89.5 196.63 92.8327 192.575 89.5 187.452C89.5 187.452 80.5766 190.352 84.2386 202.43C86.8441 211.05 94.7128 215.481 98.996 217.321Z" fill="#000072"/>
</g>
<path d="M88.0799 188.364C88.1051 188.4 88.0738 188.357 88.059 188.336C88.0443 188.315 88.0165 188.282 87.993 188.248C87.9461 188.189 87.8922 188.126 87.8332 188.063C87.7168 187.932 87.5901 187.811 87.4544 187.7C87.3168 187.585 87.1716 187.479 87.02 187.384C86.8678 187.281 86.7078 187.19 86.5412 187.113C85.8757 186.784 85.0851 186.622 84.2346 186.615C83.3814 186.571 82.4839 186.78 81.5621 186.972C81.1104 187.116 80.6412 187.234 80.1721 187.371C79.7087 187.536 79.2309 187.688 78.7386 187.829L78.6995 187.84C78.6009 187.869 78.4957 187.863 78.4007 187.824C78.3057 187.786 78.2264 187.716 78.1756 187.627C78.1247 187.537 78.1052 187.434 78.1201 187.332C78.1351 187.23 78.1837 187.136 78.2581 187.065C78.6404 186.7 79.0392 186.345 79.4544 186.002C79.8828 185.681 80.3458 185.392 80.808 185.105C81.0487 184.974 81.3015 184.861 81.5526 184.743C81.8037 184.624 82.0487 184.488 82.325 184.415L83.1408 184.153C83.4118 184.06 83.7098 184.03 83.9965 183.967C85.1529 183.769 86.4292 183.789 87.6577 184.197C87.9653 184.296 88.265 184.419 88.5543 184.564C88.6985 184.639 88.8479 184.705 88.9887 184.791L89.4005 185.058C89.6747 185.246 89.9344 185.454 90.1772 185.681C90.3054 185.795 90.4264 185.917 90.5395 186.047C90.5977 186.114 90.655 186.174 90.7132 186.254C90.7714 186.335 90.8244 186.39 90.9191 186.532C91.0389 186.718 91.1209 186.927 91.1604 187.146C91.1998 187.364 91.196 187.588 91.1491 187.805C91.1023 188.022 91.0133 188.228 90.8872 188.411C90.7611 188.593 90.6004 188.749 90.4144 188.869C90.2283 188.99 90.0204 189.072 89.8026 189.111C89.5849 189.151 89.3615 189.147 89.1452 189.1C88.9289 189.053 88.724 188.964 88.5421 188.837C88.3602 188.711 88.2049 188.549 88.0851 188.363L88.0799 188.364Z" fill="#000072"/>
<path d="M89.4973 233.167C89.2856 233.167 89.0758 233.127 88.8787 233.049C88.5677 232.926 81.1734 229.956 73.6417 223.477C63.5758 214.82 58.1736 204.008 58.0051 192.212C57.8139 178.544 63.0441 167.13 72.3472 160.897C80.9926 155.106 91.9908 154.402 102.521 158.965C111.649 162.921 117.157 175.407 114.308 185.684C113.156 189.84 109.019 198.7 94.764 198.701C92.9261 198.694 91.0908 198.562 89.2706 198.307C88.9733 198.266 88.6923 198.146 88.4565 197.96C88.2207 197.774 88.0387 197.528 87.9293 197.248C87.8199 196.968 87.7871 196.663 87.8343 196.366C87.8814 196.068 88.0069 195.789 88.1976 195.557C88.2845 195.451 90.1715 192.998 88.7754 189.666C86.7928 190.887 83.4974 194.176 85.8475 201.937C89.1976 212.995 102.171 216.704 102.301 216.74C102.575 216.816 102.826 216.96 103.03 217.16C103.234 217.36 103.384 217.608 103.466 217.882C103.533 218.107 105.078 223.429 101.965 227.831C99.6449 231.11 95.4747 232.906 89.5712 233.165L89.4973 233.167ZM88.7102 159.372C83.4974 159.372 78.5209 160.826 74.2177 163.709C65.8773 169.289 61.1988 179.665 61.3725 192.164C61.7201 216.839 86.6546 228.413 89.7945 229.769C94.3904 229.508 97.5537 228.206 99.2018 225.897C100.766 223.701 100.617 221.015 100.409 219.683C96.9959 218.512 85.9639 213.943 82.6251 202.92C78.5331 189.412 88.8735 185.88 88.9787 185.846C89.3301 185.732 89.7092 185.737 90.0576 185.861C90.4059 185.984 90.7042 186.219 90.9065 186.529C93.0533 189.825 92.8987 192.981 92.1324 195.217C105.724 196.269 109.826 189.236 111.063 184.778C113.449 176.167 108.742 165.344 101.185 162.069C97.0272 160.266 92.7962 159.372 88.7102 159.372Z" fill="#000072"/>
<path d="M226.106 265.485H86.6909C79.8934 264.83 74.4886 262.049 70.4374 258.13C70.4316 258.126 70.4261 258.123 70.4209 258.118C66.5808 254.405 63.9501 249.678 62.481 244.794C62.478 244.791 62.4761 244.787 62.4757 244.783C59.2829 234.196 61.5253 222.883 68.6859 219.549C75.016 216.605 80.8986 220.964 84.0637 224.125C84.075 224.135 84.0802 224.146 84.0906 224.157C84.7231 224.786 85.2418 225.371 85.6362 225.832C85.6534 225.849 85.6694 225.867 85.684 225.886C86.2053 226.509 86.4946 226.91 86.4946 226.91L86.5537 226.851C87.5791 225.811 88.6768 224.845 89.8386 223.962C94.8994 220.081 100.56 217.825 100.56 217.825H100.571C100.566 217.657 100.566 217.495 100.566 217.326C100.349 203.427 104.222 189.783 107.204 181.404C108.23 178.536 109.149 176.287 109.759 174.851C110.25 173.69 110.553 173.062 110.553 173.062H202.549C202.549 173.062 204.018 176.189 205.823 181.296C208.826 189.785 212.747 203.749 212.364 217.908C212.364 217.908 220.812 221.242 226.299 226.912C226.299 226.912 234.704 215.176 244.11 219.551C258.066 226.044 253.351 262.868 226.106 265.485Z" fill="#FF9A22"/>
<path d="M163.893 210.93C163.893 210.93 165.067 199.122 156.362 199.122C147.656 199.122 148.83 210.93 148.83 210.93C141.263 203.716 105.639 201.398 108.594 233.414C111.549 265.429 156.362 265.485 156.362 265.485C156.362 265.485 201.174 265.429 204.129 233.414C207.084 201.398 171.465 203.716 163.893 210.93Z" fill="white"/>
<path d="M88.1813 260.65C79.7817 265.372 70.8531 258.46 70.4369 258.13C70.4311 258.126 70.4256 258.123 70.4204 258.118C58.2598 246.346 58.219 224.423 68.6854 219.549C75.0155 216.605 80.8981 220.964 84.0632 224.125C84.0745 224.135 84.0797 224.146 84.0901 224.157C84.5601 224.71 85.0736 225.274 85.6357 225.832C85.6529 225.849 85.6689 225.867 85.6835 225.886C85.9895 226.192 86.2795 226.514 86.5523 226.851C93.2586 234.907 97.4662 255.436 88.1813 260.65Z" fill="white"/>
<path d="M224.614 260.65C233.014 265.372 241.943 258.46 242.358 258.13C242.364 258.127 242.37 258.123 242.374 258.118C254.538 246.348 254.577 224.423 244.112 219.549C237.781 216.605 231.899 220.964 228.734 224.125C228.724 224.135 228.719 224.146 228.707 224.157C228.237 224.71 227.725 225.274 227.163 225.832C227.145 225.849 227.129 225.867 227.114 225.886C226.808 226.192 226.518 226.514 226.245 226.851C219.536 234.907 215.329 255.436 224.614 260.65Z" fill="white"/>
<path d="M79.6729 251.264C82.3632 250.453 83.6767 246.896 82.6066 243.319C81.5366 239.742 78.4882 237.499 75.7979 238.31C73.1077 239.121 71.7942 242.677 72.8642 246.255C73.9343 249.832 76.9826 252.074 79.6729 251.264Z" fill="#FF6687"/>
<path d="M80.4763 237.538C82.1935 237.495 83.5402 235.61 83.4842 233.326C83.4282 231.042 81.9907 229.225 80.2734 229.268C78.5562 229.31 77.2095 231.196 77.2655 233.48C77.3215 235.763 78.759 237.58 80.4763 237.538Z" fill="#FF6687"/>
<path d="M70.1456 242.44C71.7405 241.761 72.3064 239.491 71.4095 237.371C70.5125 235.25 68.4925 234.082 66.8976 234.761C65.3027 235.441 64.7369 237.71 65.6338 239.831C66.5307 241.952 68.5507 243.12 70.1456 242.44Z" fill="#FF6687"/>
<path d="M74.4264 236.002C76.0213 235.323 76.5871 233.053 75.6902 230.933C74.7933 228.812 72.7733 227.644 71.1784 228.323C69.5835 229.003 69.0176 231.273 69.9145 233.393C70.8115 235.514 72.8315 236.682 74.4264 236.002Z" fill="#FF6687"/>
<path d="M239.841 246.235C240.912 242.658 239.598 239.101 236.908 238.29C234.217 237.48 231.169 239.722 230.099 243.3C229.029 246.877 230.343 250.434 233.033 251.244C235.723 252.055 238.771 249.812 239.841 246.235Z" fill="#FF6687"/>
<path d="M235.465 233.483C235.521 231.199 234.174 229.314 232.457 229.271C230.739 229.229 229.302 231.046 229.246 233.33C229.19 235.613 230.537 237.499 232.254 237.541C233.971 237.584 235.409 235.767 235.465 233.483Z" fill="#FF6687"/>
<path d="M247.082 239.821C247.979 237.701 247.413 235.431 245.818 234.751C244.223 234.072 242.203 235.24 241.306 237.361C240.409 239.481 240.975 241.751 242.57 242.431C244.165 243.11 246.185 241.942 247.082 239.821Z" fill="#FF6687"/>
<path d="M242.803 233.383C243.7 231.263 243.135 228.993 241.54 228.313C239.945 227.634 237.925 228.802 237.028 230.923C236.131 233.043 236.697 235.313 238.292 235.993C239.887 236.672 241.907 235.504 242.803 233.383Z" fill="#FF6687"/>
<g opacity="0.25">
<path d="M205.823 181.294C200.691 183.749 195.049 185.669 189.466 187.176C167.802 193.02 144.984 193.02 123.319 187.176C117.825 185.694 112.268 183.81 107.201 181.402C109.048 176.231 110.55 173.06 110.55 173.06H202.549C202.549 173.06 204.018 176.187 205.823 181.294Z" fill="#000072"/>
</g>
<g opacity="0.25">
<path d="M230.053 255.755C222.356 251.733 219.245 238.094 227.52 225.816L226.223 226.91L222.88 223.962C222.88 223.962 215.809 245.965 205.379 244.355C195.562 242.843 199.356 205.986 199.356 205.986L164.041 218.275C164.041 218.275 164.549 239.916 156.36 239.916C148.17 239.916 148.678 218.275 148.678 218.275L113.363 205.986C113.363 205.986 117.155 242.843 107.34 244.355C96.9145 245.965 89.8399 223.962 89.8399 223.962L86.4958 226.91L85.1996 225.816C93.4749 238.094 90.3637 251.733 82.6662 255.755C73.0946 260.753 62.7559 245.212 62.4805 244.794C63.9496 249.677 66.5803 254.405 70.4204 258.118C70.4256 258.123 70.4311 258.126 70.4369 258.13C74.4882 262.049 79.8895 264.829 86.6905 265.485H226.03C232.83 264.829 238.231 262.049 242.282 258.13C242.288 258.127 242.294 258.123 242.299 258.118C246.139 254.405 248.769 249.678 250.239 244.794C249.963 245.212 239.624 260.753 230.053 255.755Z" fill="#000072"/>
</g>
<g opacity="0.6">
<path d="M88.9535 231.475C88.9535 231.475 96.0394 224.754 106.046 218.517C107.078 217.874 106.522 216.266 105.317 216.425C101.627 216.902 95.2497 219.102 85.9058 226.914L88.9535 231.475Z" fill="white"/>
</g>
<g opacity="0.6">
<path d="M223.767 231.475C223.767 231.475 216.682 224.754 206.675 218.517C205.643 217.874 206.198 216.266 207.403 216.425C211.093 216.902 217.47 219.102 226.814 226.914L223.767 231.475Z" fill="white"/>
</g>
<g opacity="0.6">
<path d="M109.756 174.85C105.953 198.615 105.315 216.422 105.315 216.422L101.539 217.327H100.562C100.346 203.428 104.219 189.784 107.2 181.405C108.226 178.535 109.145 176.285 109.756 174.85Z" fill="white"/>
</g>
<g opacity="0.6">
<path d="M202.965 174.85C206.768 198.615 207.404 216.422 207.404 216.422L211.18 217.327H212.158C212.374 203.428 208.501 189.784 205.52 181.405C204.493 178.535 203.575 176.285 202.965 174.85Z" fill="white"/>
</g>
<path d="M87.7393 225.769C87.8888 225.936 87.9835 226.05 88.0938 226.186C88.2041 226.322 88.2988 226.447 88.397 226.58C88.5986 226.842 88.7741 227.111 88.9556 227.379C89.3032 227.92 89.6403 228.465 89.933 229.035C90.5294 230.152 91.0386 231.314 91.4561 232.511C91.8749 233.694 92.1997 234.91 92.4274 236.145C92.6577 237.37 92.7741 238.614 92.7749 239.861C92.775 239.927 92.7528 239.991 92.712 240.043C92.6712 240.095 92.6141 240.132 92.55 240.147C92.4858 240.162 92.4184 240.155 92.3587 240.128C92.2989 240.1 92.2502 240.052 92.2206 239.993L92.2136 239.978C91.9374 239.426 91.7158 238.869 91.4595 238.322C91.2032 237.775 90.9704 237.235 90.695 236.708C90.1954 235.637 89.6255 234.615 89.066 233.598C88.4917 232.589 87.8688 231.62 87.2293 230.678C86.9067 230.207 86.5766 229.748 86.2389 229.299L85.7298 228.641L85.4761 228.325L85.2493 228.051L85.1859 227.974C85.0417 227.806 84.9318 227.611 84.8627 227.4C84.7936 227.189 84.7665 226.967 84.783 226.745C84.7996 226.524 84.8594 226.308 84.9591 226.11C85.0588 225.912 85.1964 225.735 85.364 225.59C85.5317 225.446 85.7261 225.335 85.9362 225.266C86.1463 225.197 86.368 225.169 86.5886 225.186C86.8091 225.203 87.0243 225.263 87.2217 225.363C87.4192 225.463 87.5951 225.601 87.7393 225.769Z" fill="#000072"/>
<path d="M227.544 228.051L227.317 228.325L227.062 228.641L226.553 229.299C226.216 229.748 225.886 230.207 225.564 230.678C224.923 231.62 224.3 232.589 223.727 233.598C223.167 234.612 222.598 235.637 222.098 236.708C221.823 237.231 221.595 237.781 221.333 238.322C221.07 238.862 220.855 239.423 220.579 239.978L220.572 239.993C220.542 240.053 220.494 240.1 220.434 240.128C220.374 240.156 220.306 240.163 220.242 240.148C220.178 240.133 220.121 240.096 220.08 240.044C220.039 239.992 220.018 239.927 220.018 239.861C220.019 238.614 220.136 237.37 220.366 236.145C220.594 234.91 220.919 233.695 221.338 232.511C221.755 231.315 222.264 230.153 222.861 229.036C223.153 228.469 223.488 227.924 223.837 227.379C224.019 227.112 224.195 226.842 224.396 226.581C224.495 226.45 224.591 226.319 224.7 226.187C224.809 226.054 224.904 225.937 225.054 225.77C225.347 225.44 225.758 225.239 226.198 225.21C226.638 225.18 227.071 225.325 227.406 225.614C227.74 225.902 227.948 226.31 227.986 226.751C228.023 227.192 227.887 227.63 227.606 227.971L227.544 228.051Z" fill="#000072"/>
<path d="M100.059 216.212C100.518 216.072 100.987 215.972 101.463 215.914C101.94 215.846 102.426 215.809 102.915 215.787C103.895 215.752 104.884 215.761 105.911 215.942C106 215.958 106.079 216.009 106.132 216.084C106.184 216.159 106.205 216.251 106.19 216.341C106.178 216.417 106.139 216.487 106.082 216.538L106.074 216.546C105.292 217.253 104.47 217.79 103.641 218.283C103.225 218.523 102.805 218.75 102.378 218.945C101.957 219.149 101.518 219.314 101.067 219.438L100.998 219.456C100.574 219.566 100.124 219.506 99.744 219.288C99.3636 219.071 99.0826 218.713 98.9607 218.291C98.8387 217.869 98.8854 217.416 99.0908 217.028C99.2962 216.639 99.6442 216.347 100.061 216.212H100.059Z" fill="#000072"/>
<path d="M211.731 219.438C211.28 219.314 210.841 219.149 210.42 218.945C209.991 218.75 209.572 218.523 209.156 218.283C208.326 217.79 207.505 217.253 206.723 216.546L206.714 216.539C206.667 216.495 206.634 216.439 206.617 216.377C206.6 216.314 206.6 216.249 206.618 216.187C206.636 216.125 206.671 216.069 206.719 216.026C206.766 215.983 206.825 215.954 206.888 215.942C207.915 215.761 208.905 215.752 209.885 215.787C210.373 215.809 210.859 215.846 211.335 215.914C211.811 215.972 212.282 216.072 212.74 216.212C213.156 216.348 213.503 216.64 213.707 217.027C213.912 217.414 213.959 217.866 213.838 218.288C213.717 218.709 213.437 219.066 213.058 219.285C212.679 219.503 212.231 219.565 211.807 219.457L211.731 219.438Z" fill="#000072"/>
<path d="M226.105 267.176H86.6908C86.6369 267.176 86.5839 267.176 86.5301 267.168C69.8587 265.566 61.7397 252.066 59.8579 240.993C58.0456 230.356 61.3105 221.12 67.9829 218.016C76.4103 214.097 83.8238 221.155 86.6569 224.416C91.0661 220.424 96.5725 217.737 98.8714 216.713C98.7185 194.341 108.602 173.235 109.036 172.333C109.173 172.044 109.389 171.801 109.658 171.63C109.927 171.459 110.239 171.369 110.558 171.369H202.549C202.868 171.369 203.181 171.46 203.45 171.631C203.72 171.803 203.935 172.047 204.072 172.337C204.497 173.242 214.324 194.402 214.069 216.795C216.355 217.81 221.766 220.449 226.145 224.415C228.979 221.151 236.397 214.096 244.819 218.015C251.491 221.119 254.757 230.353 252.944 240.992C251.057 252.066 242.939 265.565 226.267 267.167C226.212 267.173 226.158 267.176 226.105 267.176ZM86.7725 263.795H226.025C240.752 262.34 247.942 250.303 249.625 240.423C251.153 231.451 248.594 223.499 243.402 221.083C235.385 217.352 227.745 227.796 227.668 227.899C227.524 228.099 227.338 228.265 227.124 228.386C226.909 228.506 226.671 228.578 226.425 228.596C226.18 228.614 225.934 228.578 225.704 228.49C225.474 228.402 225.266 228.265 225.094 228.088C219.933 222.757 211.83 219.511 211.749 219.479C211.427 219.352 211.152 219.128 210.962 218.839C210.771 218.549 210.673 218.208 210.682 217.861C211.209 198.476 203.405 179.225 201.46 174.75H111.637C109.683 179.212 101.819 198.438 102.254 217.788C102.262 218.145 102.157 218.495 101.954 218.789C101.751 219.082 101.46 219.303 101.124 219.421C100.364 219.734 92.6343 222.995 87.7056 228.088C87.534 228.266 87.3258 228.403 87.0956 228.491C86.8654 228.579 86.6187 228.615 86.3731 228.597C86.1275 228.579 85.8888 228.506 85.6739 228.386C85.4591 228.265 85.2732 228.098 85.1296 227.897C85.054 227.793 77.4146 217.353 69.3965 221.083C64.2036 223.502 61.6485 231.451 63.1741 240.423C64.857 250.303 72.0463 262.34 86.7725 263.795Z" fill="#000072"/>
<path d="M148.83 210.93C148.83 210.93 148.825 211.304 148.808 211.998L148.798 212.578C148.636 220.541 147.923 254.893 147.581 261.458C147.567 261.79 147.523 262.12 147.452 262.445C146.112 268.912 135.082 269.09 129.389 269.09C123.42 269.09 108.609 269.205 108.598 261.069C108.587 259.967 108.751 258.87 109.085 257.82C110.991 252.004 117.824 250.822 118.316 250.741C118.324 250.738 118.333 250.736 118.343 250.735C114.367 226.26 113.017 200.495 113.017 200.495C113.017 200.495 124.765 197.405 134.774 200.495C138.123 201.517 141.238 203.191 143.941 205.422H143.946C146.663 207.672 148.159 209.845 148.646 210.627C148.771 210.822 148.83 210.93 148.83 210.93Z" fill="#FF9A22"/>
<path d="M147.448 262.445C146.108 268.912 135.078 269.09 129.385 269.09C123.416 269.09 108.605 269.205 108.594 261.069C108.578 252.422 117.744 250.828 118.317 250.737C118.326 250.733 118.335 250.731 118.344 250.731C118.344 250.731 141.63 248.773 147.448 262.445Z" fill="white"/>
<g opacity="0.25">
<path d="M148.647 210.627C148.612 210.431 148.57 210.243 148.52 210.062C147.605 206.706 142.66 207.305 142.479 210.779C141.844 223.003 140.371 251.763 140.41 254.823C140.458 258.727 137.568 263.871 123.8 263.871C110.032 263.871 109.091 257.821 109.091 257.821H109.085C108.749 258.872 108.583 259.97 108.593 261.074C108.604 269.206 123.415 269.096 129.384 269.096C135.077 269.096 146.107 268.917 147.447 262.45C147.518 262.125 147.562 261.795 147.576 261.463C147.924 254.898 148.635 220.546 148.793 212.583L148.803 212.003C148.782 211.542 148.73 211.082 148.647 210.627Z" fill="#000072"/>
</g>
<g opacity="0.6">
<path d="M122.743 250.637L116.532 202.645C116.212 200.18 112.573 200.371 112.535 202.856C112.535 202.907 112.535 202.958 112.535 203.008C112.535 208.129 118.314 250.741 118.314 250.741L122.743 250.637Z" fill="white"/>
</g>
<path d="M118.069 249.066C118.354 249.022 118.641 248.993 118.929 248.979C119.199 248.962 119.464 248.949 119.729 248.943C120.258 248.935 120.782 248.943 121.303 248.983C122.337 249.052 123.366 249.188 124.383 249.39C125.391 249.589 126.385 249.853 127.359 250.181C127.846 250.338 128.321 250.535 128.794 250.726C129.263 250.934 129.727 251.148 130.184 251.386C130.257 251.425 130.315 251.487 130.348 251.563C130.382 251.639 130.389 251.723 130.369 251.803C130.349 251.883 130.303 251.955 130.238 252.005C130.173 252.056 130.093 252.084 130.011 252.084H130.003C128.994 252.077 128.01 252.045 127.034 252.029C126.061 251.999 125.095 252.013 124.141 252.013C123.185 252.033 122.239 252.074 121.303 252.137C120.836 252.171 120.371 252.207 119.913 252.253C119.684 252.271 119.457 252.297 119.235 252.324L118.627 252.403L118.547 252.414C118.105 252.477 117.656 252.361 117.299 252.092C116.942 251.823 116.706 251.423 116.643 250.979C116.58 250.536 116.696 250.085 116.964 249.727C117.232 249.369 117.63 249.132 118.072 249.069L118.069 249.066Z" fill="#000072"/>
<path d="M119.088 257.925C118.883 259.744 118.747 261.5 118.799 263.175C118.826 263.988 118.911 264.797 119.053 265.597C119.183 266.377 119.419 267.095 119.635 267.808L119.669 267.919C119.79 268.339 119.743 268.79 119.538 269.177C119.334 269.564 118.988 269.856 118.573 269.992C118.159 270.127 117.708 270.096 117.315 269.905C116.923 269.713 116.62 269.376 116.471 268.965C116.121 267.978 115.93 266.941 115.905 265.894C115.882 264.89 115.982 263.886 116.203 262.907C116.414 261.958 116.724 261.035 117.128 260.152C117.521 259.275 118.027 258.455 118.632 257.71C118.668 257.668 118.717 257.639 118.771 257.626C118.824 257.614 118.881 257.619 118.931 257.64C118.982 257.662 119.025 257.699 119.053 257.747C119.082 257.794 119.094 257.85 119.089 257.905L119.088 257.925Z" fill="#000072"/>
<path d="M131.761 257.925C131.556 259.744 131.42 261.5 131.473 263.175C131.5 263.988 131.585 264.797 131.727 265.597C131.857 266.377 132.093 267.095 132.309 267.808L132.343 267.919C132.463 268.339 132.417 268.79 132.212 269.177C132.008 269.564 131.662 269.856 131.247 269.992C130.832 270.127 130.381 270.096 129.989 269.905C129.597 269.713 129.294 269.376 129.145 268.965C128.795 267.978 128.604 266.941 128.579 265.894C128.555 264.89 128.655 263.886 128.877 262.907C129.088 261.958 129.398 261.035 129.802 260.152C130.195 259.275 130.701 258.455 131.306 257.71C131.342 257.668 131.391 257.639 131.444 257.626C131.498 257.614 131.555 257.619 131.605 257.64C131.656 257.662 131.699 257.699 131.727 257.747C131.756 257.794 131.768 257.85 131.763 257.905L131.761 257.925Z" fill="#000072"/>
<path d="M113.727 200.459C114.146 202.535 114.461 204.622 114.738 206.707C115.015 208.791 115.252 210.881 115.464 212.971C115.873 217.156 116.346 221.327 116.812 225.499L117.546 231.752L118.328 237.997L119.146 244.233C119.281 245.273 119.424 246.311 119.58 247.347L120.015 250.461L120.035 250.611C120.064 250.817 120.052 251.027 120 251.228C119.947 251.429 119.856 251.618 119.731 251.783C119.607 251.949 119.45 252.089 119.272 252.194C119.093 252.299 118.896 252.368 118.69 252.396C118.659 252.4 118.624 252.404 118.593 252.406C118.419 252.435 118.135 252.494 117.898 252.559C117.661 252.624 117.4 252.692 117.153 252.774C116.659 252.93 116.174 253.115 115.701 253.327C114.777 253.734 113.913 254.266 113.133 254.907C112.395 255.516 111.773 256.255 111.297 257.087C110.844 257.924 110.549 258.837 110.428 259.782C110.41 260.027 110.368 260.266 110.365 260.514L110.353 260.887L110.348 261.071L110.36 261.229L110.38 261.544C110.392 261.645 110.409 261.745 110.431 261.844C110.463 262.04 110.515 262.232 110.584 262.418C110.839 263.152 111.373 263.787 112.092 264.348C112.831 264.896 113.743 265.34 114.723 265.693C115.736 266.052 116.775 266.332 117.83 266.53C122.163 267.364 126.789 267.333 131.405 267.3C133.686 267.265 135.941 267.131 138.112 266.777C140.26 266.417 142.378 265.806 143.911 264.74C144.268 264.483 144.595 264.187 144.887 263.857C145.426 263.229 145.757 262.447 145.833 261.621C145.842 261.504 145.861 261.429 145.867 261.276L145.887 260.84L145.929 259.975C146.029 257.656 146.109 255.318 146.185 252.983L146.602 238.957C146.891 229.605 146.958 220.246 147.868 210.906C147.892 210.661 148.007 210.435 148.19 210.271C148.372 210.108 148.61 210.02 148.855 210.025C149.099 210.03 149.333 210.128 149.509 210.298C149.686 210.469 149.791 210.7 149.805 210.945C150.334 220.319 149.999 229.673 149.849 239.034L149.557 253.078C149.502 255.421 149.443 257.76 149.363 260.117L149.328 261.005L149.31 261.45C149.31 261.589 149.282 261.805 149.266 261.978C149.128 263.5 148.528 264.942 147.548 266.11C147.074 266.665 146.537 267.162 145.949 267.592C144.846 268.362 143.634 268.962 142.354 269.371C141.157 269.761 139.933 270.059 138.691 270.261C136.258 270.662 133.844 270.8 131.464 270.842C126.773 270.875 122.006 270.942 117.154 270.026C115.917 269.794 114.7 269.466 113.513 269.046C112.306 268.601 111.092 268.025 109.957 267.173C108.842 266.312 107.785 265.097 107.278 263.609C107.147 263.245 107.049 262.87 106.983 262.489C106.953 262.301 106.908 262.111 106.897 261.923L106.863 261.363L106.85 261.082L106.857 260.829L106.875 260.324C106.884 259.988 106.937 259.648 106.97 259.31C107.156 257.929 107.598 256.595 108.273 255.377C108.963 254.177 109.865 253.114 110.936 252.238C111.966 251.4 113.108 250.711 114.329 250.192C114.924 249.933 115.533 249.71 116.154 249.521C116.462 249.426 116.776 249.347 117.092 249.265C117.408 249.183 117.7 249.124 118.109 249.06L116.688 251.005C116.322 248.921 115.955 246.836 115.645 244.743L115.17 241.605L114.749 238.466C114.205 234.273 113.729 230.072 113.346 225.864C112.943 221.658 112.63 217.445 112.35 213.231L112.184 210.068C112.157 209.011 112.113 207.956 112.11 206.898C112.089 204.782 112.127 202.666 112.312 200.533C112.326 200.36 112.402 200.199 112.525 200.079C112.649 199.958 112.812 199.886 112.983 199.876C113.155 199.867 113.325 199.919 113.461 200.025C113.598 200.131 113.691 200.282 113.725 200.452L113.727 200.459Z" fill="#000072"/>
<path d="M163.893 210.93C163.893 210.93 163.898 211.304 163.915 211.998L163.925 212.578C164.088 220.541 164.801 254.893 165.142 261.458C165.156 261.79 165.2 262.12 165.272 262.445C166.612 268.912 177.641 269.09 183.334 269.09C189.303 269.09 204.114 269.205 204.125 261.069C204.135 259.965 203.969 258.867 203.634 257.816C201.722 251.999 194.894 250.818 194.402 250.737C194.393 250.733 194.384 250.731 194.375 250.731C198.351 226.255 199.702 200.491 199.702 200.491C199.702 200.491 187.953 197.401 177.943 200.491C174.595 201.513 171.48 203.187 168.777 205.418H168.771C166.055 207.667 164.559 209.841 164.072 210.622C163.952 210.822 163.893 210.93 163.893 210.93Z" fill="#FF9A22"/>
<path d="M165.277 262.445C166.617 268.912 177.646 269.09 183.339 269.09C189.308 269.09 204.119 269.205 204.13 261.069C204.146 252.422 194.979 250.828 194.407 250.737C194.398 250.733 194.389 250.731 194.38 250.731C194.38 250.731 171.094 248.773 165.277 262.445Z" fill="white"/>
<g opacity="0.25">
<path d="M164.08 210.627C164.115 210.431 164.157 210.243 164.207 210.062C165.123 206.706 170.067 207.305 170.248 210.779C170.883 223.003 172.356 251.763 172.318 254.823C172.266 258.727 175.156 263.871 188.928 263.871C202.7 263.871 203.636 257.821 203.636 257.821H203.642C203.977 258.872 204.143 259.97 204.133 261.074C204.122 269.206 189.311 269.096 183.342 269.096C177.649 269.096 166.62 268.917 165.28 262.45C165.208 262.125 165.164 261.795 165.15 261.463C164.802 254.898 164.091 220.546 163.933 212.583L163.923 212.003C163.944 211.542 163.997 211.082 164.08 210.627Z" fill="#000072"/>
</g>
<g opacity="0.6">
<path d="M189.981 250.637L196.192 202.645C196.511 200.18 200.15 200.371 200.184 202.856C200.184 202.907 200.184 202.958 200.184 203.008C200.184 208.129 194.405 250.741 194.405 250.741L189.981 250.637Z" fill="white"/>
</g>
<path d="M194.101 252.4L193.493 252.321C193.27 252.294 193.044 252.269 192.815 252.25C192.358 252.204 191.894 252.168 191.425 252.134C190.49 252.072 189.544 252.031 188.587 252.011C187.632 252.011 186.667 251.996 185.694 252.026C184.719 252.042 183.734 252.074 182.726 252.081H182.718C182.636 252.081 182.556 252.054 182.491 252.003C182.426 251.952 182.38 251.881 182.36 251.801C182.34 251.72 182.347 251.636 182.38 251.56C182.414 251.485 182.471 251.423 182.544 251.384C182.998 251.146 183.462 250.931 183.934 250.723C184.407 250.533 184.882 250.335 185.369 250.179C186.344 249.851 187.338 249.586 188.346 249.387C189.363 249.185 190.392 249.049 191.426 248.981C191.947 248.942 192.468 248.932 192.999 248.941C193.26 248.947 193.529 248.959 193.799 248.976C194.087 248.991 194.374 249.02 194.659 249.064C195.094 249.134 195.484 249.373 195.745 249.73C196.007 250.086 196.118 250.53 196.057 250.968C195.995 251.406 195.765 251.803 195.415 252.072C195.065 252.341 194.624 252.462 194.187 252.409L194.101 252.4Z" fill="#000072"/>
<path d="M194.091 257.712C194.697 258.456 195.203 259.277 195.596 260.153C196 261.037 196.31 261.96 196.521 262.909C196.742 263.888 196.842 264.892 196.819 265.896C196.795 266.943 196.604 267.98 196.253 268.967C196.115 269.392 195.814 269.745 195.416 269.948C195.018 270.151 194.556 270.187 194.132 270.049C193.708 269.91 193.356 269.608 193.154 269.209C192.952 268.809 192.916 268.346 193.054 267.92L193.089 267.806C193.304 267.093 193.541 266.375 193.671 265.595C193.813 264.795 193.897 263.986 193.925 263.174C193.978 261.501 193.838 259.743 193.637 257.923V257.907C193.632 257.851 193.644 257.796 193.672 257.748C193.701 257.701 193.743 257.663 193.794 257.642C193.845 257.62 193.901 257.615 193.955 257.627C194.008 257.639 194.057 257.669 194.093 257.71L194.091 257.712Z" fill="#000072"/>
<path d="M181.419 257.712C182.025 258.456 182.531 259.277 182.923 260.153C183.328 261.037 183.637 261.96 183.848 262.909C184.069 263.888 184.17 264.892 184.147 265.896C184.122 266.943 183.931 267.98 183.58 268.967C183.438 269.387 183.136 269.734 182.74 269.932C182.345 270.131 181.887 270.165 181.467 270.027C181.046 269.89 180.697 269.591 180.494 269.197C180.291 268.803 180.251 268.344 180.382 267.92L180.416 267.806C180.632 267.093 180.868 266.375 180.998 265.595C181.14 264.795 181.225 263.986 181.252 263.174C181.305 261.501 181.165 259.743 180.964 257.923V257.907C180.959 257.851 180.972 257.796 181 257.748C181.028 257.701 181.07 257.663 181.121 257.642C181.172 257.62 181.228 257.615 181.282 257.627C181.336 257.639 181.384 257.669 181.42 257.71L181.419 257.712Z" fill="#000072"/>
<path d="M200.412 200.534C200.596 202.664 200.634 204.78 200.614 206.898C200.614 207.957 200.566 209.012 200.54 210.069L200.373 213.232C200.094 217.446 199.781 221.659 199.377 225.865C198.995 230.073 198.519 234.274 197.974 238.467L197.554 241.605L197.078 244.744C196.773 246.837 196.405 248.922 196.04 251.006L194.619 249.061C195.024 249.125 195.306 249.188 195.635 249.266C195.965 249.344 196.265 249.427 196.575 249.522C197.195 249.711 197.804 249.934 198.399 250.193C199.621 250.712 200.763 251.401 201.793 252.239C202.864 253.114 203.766 254.178 204.456 255.378C205.13 256.596 205.572 257.93 205.759 259.311C205.792 259.649 205.846 259.989 205.855 260.325L205.872 260.83L205.88 261.083L205.866 261.364L205.832 261.924C205.819 262.112 205.774 262.302 205.746 262.49C205.681 262.871 205.582 263.246 205.452 263.61C204.94 265.098 203.888 266.313 202.773 267.174C201.638 268.026 200.427 268.602 199.216 269.047C198.029 269.467 196.812 269.795 195.575 270.027C190.723 270.943 185.957 270.876 181.265 270.843C178.885 270.801 176.472 270.663 174.039 270.262C172.797 270.06 171.572 269.762 170.375 269.372C169.095 268.963 167.883 268.363 166.78 267.593C166.192 267.163 165.656 266.666 165.182 266.111C164.713 265.529 164.284 264.883 164.002 264.167C163.714 263.469 163.532 262.731 163.463 261.979C163.448 261.805 163.422 261.59 163.418 261.451L163.401 261.006L163.367 260.118C163.286 257.764 163.228 255.422 163.173 253.079L162.88 239.035C162.731 229.674 162.396 220.32 162.925 210.946C162.937 210.7 163.042 210.467 163.218 210.296C163.395 210.124 163.629 210.026 163.875 210.021C164.12 210.016 164.358 210.105 164.541 210.269C164.724 210.433 164.838 210.661 164.861 210.907C165.771 220.247 165.838 229.606 166.127 238.958L166.544 252.984C166.621 255.319 166.7 257.657 166.8 259.976L166.842 260.841L166.862 261.277C166.868 261.43 166.887 261.505 166.896 261.622C166.935 262.036 167.037 262.441 167.2 262.824C167.361 263.199 167.577 263.548 167.842 263.858C168.134 264.188 168.461 264.484 168.818 264.74C170.351 265.807 172.467 266.418 174.617 266.778C176.789 267.133 179.048 267.266 181.324 267.301C185.941 267.334 190.566 267.365 194.899 266.531C195.954 266.333 196.993 266.053 198.006 265.693C198.986 265.345 199.899 264.897 200.637 264.349C201.356 263.788 201.89 263.153 202.146 262.419C202.215 262.233 202.266 262.041 202.298 261.845C202.321 261.746 202.338 261.646 202.35 261.545L202.369 261.23L202.381 261.072L202.375 260.888L202.365 260.515C202.361 260.267 202.319 260.028 202.302 259.783C202.181 258.838 201.886 257.925 201.433 257.088C200.957 256.256 200.335 255.517 199.597 254.908C198.817 254.267 197.953 253.735 197.029 253.328C196.556 253.116 196.071 252.931 195.577 252.775C195.33 252.693 195.08 252.625 194.832 252.56C194.583 252.495 194.31 252.436 194.137 252.407C193.72 252.376 193.332 252.179 193.06 251.86C192.788 251.542 192.652 251.128 192.684 250.71C192.684 250.678 192.69 250.647 192.694 250.617L192.715 250.462L193.15 247.348C193.305 246.312 193.45 245.274 193.584 244.234L194.403 237.998L195.184 231.753L195.918 225.5C196.383 221.328 196.857 217.153 197.267 212.972C197.478 210.88 197.71 208.794 197.992 206.708C198.275 204.621 198.584 202.535 199.003 200.46V200.454C199.037 200.285 199.13 200.133 199.266 200.028C199.403 199.922 199.572 199.869 199.744 199.879C199.916 199.889 200.079 199.96 200.202 200.081C200.326 200.201 200.402 200.362 200.416 200.534L200.412 200.534Z" fill="#000072"/>
<path d="M227.393 157.935C219.516 169.726 204.733 175.297 189.963 178.809C179.001 181.414 167.769 182.707 156.504 182.661H156.494C145.228 182.707 133.997 181.414 123.034 178.809C108.265 175.297 93.5394 169.666 85.6047 157.935C69.8612 134.667 84.2094 117.659 84.2094 117.659C84.7967 107.829 86.4413 99.2952 88.8601 91.8972V91.8919C88.8453 91.7742 86.2111 72.7266 86.172 54.5152C86.1425 39.7469 87.8167 25.5297 93.9799 22.3996C106.925 15.8167 136.736 46.3594 136.736 46.3594C147.957 43.2502 156.499 43.4822 156.499 43.4822H156.528C157.096 43.4726 165.433 43.3601 176.261 46.3594H176.267C176.717 45.893 206.167 15.8655 219.022 22.3996C232.803 29.4009 224.143 91.8719 224.137 91.8972C226.556 99.2952 228.201 107.829 228.788 117.659C228.788 117.66 242.51 135.313 227.393 157.935Z" fill="#FF9A22"/>
<path d="M233.533 128.331C233.533 128.326 232.734 128.331 232.734 128.331H232.729C232.729 128.331 227.222 116.55 216.168 116.61C205.114 116.669 199.71 127 188.656 127.408C177.603 127.816 173.853 116.945 156.528 116.945C139.203 116.945 135.449 127.817 124.4 127.408C113.351 126.999 107.937 116.668 96.8877 116.607C85.8383 116.546 79.4022 129.256 79.4022 129.256C77.7819 136.862 78.5595 146.762 85.6046 157.933C92.6097 169.041 108.265 175.296 123.034 178.808C133.997 181.413 145.228 182.706 156.493 182.66H156.562C167.828 182.706 179.059 181.413 190.022 178.808C204.792 175.296 220.447 169.042 227.452 157.933C234.496 146.764 235.155 135.936 233.533 128.331Z" fill="white"/>
<path d="M134.925 90.5936C138.052 90.598 140.607 88.0032 140.537 84.8652C140.476 82.1623 139.555 78.8491 136.25 76.059C129.316 70.2042 122.127 78.3582 123.899 84.6315C125.178 89.1654 130.37 90.5875 134.925 90.5936Z" fill="white"/>
<path d="M178.078 90.5936C174.951 90.598 172.396 88.0032 172.466 84.8652C172.527 82.1623 173.448 78.8491 176.753 76.059C183.687 70.2042 190.876 78.3582 189.104 84.6315C187.825 89.1654 182.631 90.5875 178.078 90.5936Z" fill="white"/>
<g opacity="0.25">
<path d="M234.423 134.02C234.051 139.758 232.151 146.391 227.393 153.514C219.516 165.305 204.733 170.877 189.963 174.389C179.001 176.994 167.769 178.287 156.504 178.241H156.493C145.228 178.287 133.997 176.994 123.034 174.389C108.265 170.877 93.5393 165.246 85.6046 153.514C80.6741 146.229 78.6967 139.557 78.3066 133.829C78.4966 131.114 79.0363 128.436 79.9122 125.86C81.0677 129.452 82.8843 133.284 85.6063 137.302C93.5411 149.034 108.266 154.664 123.036 158.177C133.998 160.782 145.228 162.077 156.493 162.033H156.504C167.769 162.079 179.001 160.786 189.963 158.181C204.733 154.668 219.516 149.097 227.393 137.307C230.022 133.376 231.774 129.593 232.885 126.031C233.718 128.622 234.234 131.305 234.423 134.02Z" fill="#000072"/>
</g>
<g opacity="0.25">
<path d="M177.46 131.263C176.625 130.222 174.97 130.489 174.54 131.753C173.71 134.194 171.938 137.541 168.487 137.386C163.082 137.142 163.511 128.331 163.511 128.331H149.224C149.224 128.331 149.653 137.138 144.248 137.386C140.797 137.541 139.026 134.194 138.195 131.753C137.765 130.489 136.11 130.222 135.275 131.263C134.088 132.745 133.054 135.068 133.953 138.319C135.669 144.517 142.491 145.981 147.702 145.207C147.702 145.207 147.894 156.572 156.366 156.572C164.839 156.572 165.029 145.205 165.029 145.205C170.242 145.98 177.062 144.516 178.778 138.317C179.678 135.068 178.643 132.741 177.46 131.263Z" fill="#000072"/>
</g>
<g opacity="0.6">
<path d="M219.076 22.4004C206.13 15.8175 176.32 46.3603 176.32 46.3603C165.1 43.2511 156.558 43.483 156.558 43.483H156.499C156.499 43.483 147.956 43.2528 136.736 46.3603C136.736 46.3603 106.928 15.8175 93.9797 22.4004C87.8164 25.5305 86.1422 39.7512 86.1718 54.516C87.1561 40.5046 89.9319 25.8644 97.2924 26.6012C111.251 28.0015 131.303 48.1834 131.303 48.1834C128.183 49.1538 126.667 50.1522 125.981 51.0092C125.253 51.9178 126.197 53.2213 127.302 52.8603C130.303 51.8785 133.679 51.1165 137.04 50.5236C139.256 51.147 142.937 51.3685 147.062 51.0188C151.585 50.6361 155.466 49.6665 157.417 48.5557C161.102 48.7144 175.575 49.5296 185.756 52.8603C186.86 53.2213 187.804 51.9178 187.077 51.0092C186.39 50.1522 184.874 49.1538 181.755 48.1834C181.755 48.1834 201.806 28.0015 215.763 26.6012C223.125 25.8644 225.901 40.5046 226.883 54.516C226.914 39.7477 225.244 25.5305 219.076 22.4004Z" fill="white"/>
</g>
<path d="M103.917 141.559C110.793 141.559 116.368 137.774 116.368 133.105C116.368 128.436 110.793 124.651 103.917 124.651C97.0407 124.651 91.4663 128.436 91.4663 133.105C91.4663 137.774 97.0407 141.559 103.917 141.559Z" fill="#FF8095"/>
<path d="M209.141 141.559C216.017 141.559 221.591 137.774 221.591 133.105C221.591 128.436 216.017 124.651 209.141 124.651C202.264 124.651 196.69 128.436 196.69 133.105C196.69 137.774 202.264 141.559 209.141 141.559Z" fill="#FF8095"/>
<path d="M165.122 144.291C165.122 144.291 164.274 153.235 156.499 153.235C148.723 153.235 147.875 144.291 147.875 144.291C147.875 144.291 155.919 142.932 156.499 132.629C156.501 132.629 156.705 142.379 165.122 144.291Z" fill="#FF6687"/>
<path d="M156.501 154.709C149.29 154.709 146.752 147.986 146.415 144.431C146.38 144.06 146.486 143.69 146.712 143.395C146.937 143.099 147.266 142.9 147.632 142.837C147.904 142.788 154.529 141.484 155.032 132.549C155.057 132.169 155.225 131.813 155.502 131.554C155.78 131.294 156.145 131.151 156.525 131.154C156.904 131.161 157.266 131.315 157.535 131.584C157.804 131.853 157.959 132.216 157.967 132.597C157.975 132.945 158.27 141.223 165.446 142.853C165.795 142.932 166.102 143.136 166.312 143.426C166.521 143.716 166.618 144.073 166.584 144.43C166.252 147.986 163.708 154.709 156.501 154.709ZM149.551 145.321C150.048 147.46 151.651 151.761 156.501 151.761C161.339 151.761 162.948 147.489 163.452 145.341C159.939 144.114 157.778 141.514 156.526 138.829C155.142 141.831 152.634 144.164 149.546 145.321H149.551Z" fill="#000072"/>
<g opacity="0.25">
<path d="M162.256 143.187C162.256 143.187 161.394 149.639 156.531 149.639C151.669 149.639 150.808 143.187 150.808 143.187L147.882 144.291C148.737 152.01 156.531 153.235 156.531 153.235C156.531 153.235 164.326 152.015 165.181 144.291L162.256 143.187Z" fill="#000072"/>
</g>
<path d="M157.967 128.232C158.008 128.717 158.027 129.122 158.039 129.562C158.051 130.001 158.052 130.421 158.039 130.851C158.017 131.712 157.952 132.571 157.844 133.426C157.735 134.29 157.581 135.148 157.382 135.996C157.169 136.859 156.901 137.708 156.579 138.536C156.239 139.385 155.827 140.204 155.348 140.983C154.834 141.777 154.235 142.513 153.564 143.179C152.861 143.844 152.074 144.414 151.224 144.875C150.355 145.3 149.451 145.66 148.524 145.834C147.601 146.048 146.675 146.104 145.763 146.119C145.317 146.112 144.885 146.096 144.445 146.068C144.005 146.017 143.567 145.994 143.125 145.916C142.23 145.784 141.349 145.574 140.491 145.288C139.609 144.983 138.767 144.574 137.98 144.072C137.179 143.557 136.466 142.915 135.869 142.172C135.284 141.436 134.822 140.609 134.502 139.724C134.346 139.295 134.222 138.854 134.131 138.406C134.05 137.965 133.995 137.519 133.966 137.071C133.935 136.177 133.982 135.317 134.237 134.438C134.265 134.344 134.323 134.261 134.403 134.203C134.483 134.146 134.579 134.117 134.678 134.121C134.776 134.125 134.87 134.162 134.945 134.226C135.02 134.289 135.071 134.376 135.091 134.473L135.101 134.517C135.409 136.035 135.917 137.515 136.657 138.718C137.357 139.897 138.346 140.878 139.529 141.567C140.127 141.91 140.763 142.182 141.423 142.379C142.113 142.573 142.819 142.707 143.532 142.78C143.891 142.831 144.266 142.83 144.631 142.86C145 142.86 145.379 142.875 145.743 142.869C146.447 142.837 147.147 142.782 147.798 142.608C149.088 142.306 150.275 141.663 151.233 140.745C151.71 140.262 152.135 139.731 152.504 139.16C152.877 138.557 153.204 137.925 153.481 137.271C154.031 135.883 154.425 134.439 154.656 132.964C154.776 132.212 154.879 131.452 154.938 130.686C154.965 130.304 154.994 129.921 155.012 129.539C155.029 129.157 155.039 128.754 155.035 128.43V128.372C155.031 127.991 155.174 127.622 155.435 127.344C155.696 127.067 156.054 126.901 156.433 126.883C156.813 126.865 157.185 126.995 157.471 127.247C157.757 127.498 157.935 127.852 157.967 128.232H157.967Z" fill="#000072"/>
<path d="M158.172 128.331C158.166 129.148 158.138 129.965 158.114 130.782C158.089 131.599 158.061 132.416 158.027 133.233C157.955 134.868 157.868 136.502 157.766 138.136C157.664 139.769 157.548 141.403 157.419 143.039C157.273 144.673 157.079 146.307 156.704 147.941C156.693 147.987 156.667 148.029 156.63 148.058C156.593 148.088 156.547 148.104 156.5 148.104C156.453 148.104 156.407 148.088 156.37 148.058C156.333 148.029 156.307 147.987 156.297 147.941C155.922 146.307 155.728 144.673 155.582 143.039C155.453 141.405 155.337 139.77 155.234 138.136C155.132 136.501 155.045 134.867 154.974 133.233C154.936 132.416 154.905 131.599 154.887 130.782C154.869 129.965 154.835 129.148 154.829 128.331C154.827 128.111 154.868 127.893 154.951 127.689C155.033 127.485 155.155 127.299 155.309 127.142C155.463 126.985 155.646 126.86 155.848 126.774C156.05 126.688 156.267 126.643 156.486 126.642C156.706 126.64 156.923 126.681 157.127 126.764C157.33 126.847 157.515 126.969 157.672 127.123C157.828 127.278 157.952 127.462 158.038 127.664C158.123 127.867 158.168 128.085 158.17 128.305L158.172 128.331Z" fill="#000072"/>
<path d="M127.293 127.238C133.615 126.703 138.151 119.258 137.425 110.609C136.698 101.96 130.984 95.3819 124.661 95.9169C118.339 96.4519 113.803 103.897 114.53 112.546C115.256 121.195 120.971 127.773 127.293 127.238Z" fill="#000072"/>
<path d="M129.31 115.196C131.538 115.008 133.137 112.384 132.881 109.336C132.625 106.288 130.611 103.97 128.383 104.159C126.155 104.348 124.556 106.971 124.812 110.019C125.068 113.067 127.082 115.385 129.31 115.196Z" fill="white"/>
<g opacity="0.3">
<path d="M123.1 121.819C124.006 121.742 124.655 120.676 124.551 119.438C124.447 118.2 123.629 117.259 122.724 117.335C121.819 117.412 121.169 118.478 121.273 119.716C121.377 120.954 122.195 121.895 123.1 121.819Z" fill="white"/>
</g>
<path d="M156.501 120.959C156.501 120.959 145.303 120.618 145.218 124.803C145.133 128.988 152.724 133.341 156.501 133.341C160.278 133.341 167.869 128.982 167.784 124.803C167.699 120.624 156.501 120.959 156.501 120.959Z" fill="#000072"/>
<path d="M157.967 128.43C157.967 128.757 157.973 129.165 157.991 129.539C158.009 129.913 158.038 130.304 158.065 130.686C158.124 131.452 158.226 132.212 158.346 132.964C158.577 134.439 158.972 135.883 159.522 137.271C159.799 137.925 160.126 138.558 160.5 139.162C160.868 139.733 161.294 140.264 161.771 140.746C162.729 141.665 163.915 142.308 165.205 142.61C165.857 142.784 166.556 142.838 167.261 142.871C167.625 142.876 168.004 142.863 168.373 142.862C168.738 142.832 169.112 142.833 169.471 142.782C170.184 142.709 170.89 142.574 171.581 142.38C172.241 142.184 172.876 141.911 173.475 141.569C174.658 140.88 175.646 139.899 176.347 138.72C177.086 137.517 177.594 136.037 177.903 134.519L177.912 134.476C177.932 134.379 177.984 134.292 178.058 134.228C178.133 134.164 178.227 134.127 178.325 134.123C178.424 134.119 178.52 134.148 178.6 134.205C178.68 134.263 178.739 134.345 178.766 134.44C179.021 135.319 179.069 136.178 179.037 137.073C179.008 137.521 178.953 137.966 178.872 138.408C178.782 138.856 178.658 139.297 178.501 139.726C178.181 140.611 177.72 141.438 177.135 142.174C176.538 142.916 175.827 143.557 175.027 144.072C174.24 144.574 173.396 144.981 172.515 145.286C171.656 145.572 170.775 145.782 169.88 145.914C169.438 145.993 169 146.015 168.56 146.067C168.12 146.095 167.691 146.11 167.243 146.117C166.33 146.102 165.404 146.046 164.481 145.832C163.554 145.658 162.646 145.299 161.781 144.873C160.931 144.412 160.144 143.842 159.441 143.177C158.77 142.511 158.172 141.775 157.657 140.981C157.178 140.202 156.766 139.384 156.426 138.534C156.104 137.706 155.836 136.858 155.623 135.994C155.424 135.146 155.27 134.288 155.161 133.424C155.053 132.57 154.988 131.71 154.966 130.849C154.954 130.42 154.953 129.991 154.966 129.56C154.98 129.129 154.997 128.715 155.039 128.23C155.07 127.851 155.248 127.498 155.533 127.247C155.818 126.995 156.189 126.864 156.569 126.882C156.948 126.899 157.306 127.063 157.567 127.34C157.828 127.616 157.973 127.983 157.97 128.364L157.967 128.43Z" fill="#000072"/>
<path d="M87.452 91.4796C87.6935 90.5434 87.993 89.6232 88.3486 88.7244C88.7013 87.8298 89.0879 86.9483 89.5154 86.0834C89.9355 85.2114 90.4099 84.3669 90.9359 83.5548C91.478 82.7448 92.0731 81.9593 92.8073 81.2731C92.8554 81.2292 92.9187 81.206 92.9837 81.2084C93.0486 81.2109 93.1101 81.2388 93.1548 81.2862C93.1803 81.3132 93.1993 81.3456 93.2105 81.3811C93.2216 81.4167 93.2246 81.4542 93.2191 81.491V81.4963C93.0748 82.4807 92.8524 83.3953 92.6283 84.3099C92.4041 85.2245 92.1391 86.1139 91.8907 87.0128L91.1166 89.6895C90.8464 90.5719 90.5727 91.4726 90.266 92.3192L90.2573 92.3427C90.1255 92.6939 89.8653 92.9815 89.5297 93.147C89.1941 93.3124 88.8082 93.3433 88.4507 93.2333C88.0932 93.1233 87.7909 92.8807 87.6054 92.5549C87.4198 92.2291 87.365 91.8445 87.452 91.4796Z" fill="#000072"/>
<path d="M137.097 47.7893C136.232 48.0204 135.291 48.288 134.385 48.554C133.479 48.8199 132.554 49.0911 131.641 49.3823C129.809 49.9542 128.012 50.6029 126.093 51.1078H126.085C125.976 51.136 125.862 51.1266 125.759 51.081C125.657 51.0353 125.573 50.9563 125.522 50.8566C125.47 50.757 125.454 50.6427 125.475 50.5325C125.496 50.4223 125.555 50.3226 125.64 50.2498C126.405 49.5958 127.224 49.0075 128.088 48.4912C128.942 47.968 129.834 47.5147 130.733 47.0761C131.631 46.6375 132.557 46.2443 133.486 45.8807C134.432 45.512 135.397 45.1944 136.376 44.9295C136.563 44.8802 136.757 44.8682 136.948 44.8943C137.139 44.9204 137.323 44.984 137.49 45.0815C137.657 45.1789 137.803 45.3084 137.919 45.4624C138.036 45.6165 138.121 45.7921 138.17 45.9792C138.22 46.1664 138.232 46.3614 138.206 46.5532C138.18 46.7449 138.116 46.9297 138.019 47.0969C137.922 47.2641 137.793 47.4104 137.639 47.5276C137.486 47.6447 137.311 47.7304 137.124 47.7797L137.097 47.7893Z" fill="#000072"/>
<path d="M222.73 92.3157C222.424 91.4691 222.149 90.5719 221.879 89.686L221.105 87.0093C220.857 86.1112 220.584 85.2245 220.367 84.3064C220.151 83.3883 219.921 82.4754 219.777 81.4928C219.769 81.4416 219.778 81.3894 219.801 81.3433C219.824 81.2972 219.861 81.2595 219.907 81.2355C219.953 81.2115 220.004 81.2022 220.055 81.2091C220.107 81.216 220.154 81.2387 220.192 81.2739C220.926 81.9601 221.521 82.7457 222.064 83.5557C222.59 84.3678 223.064 85.2123 223.484 86.0842C223.911 86.9491 224.3 87.8295 224.651 88.7252C225.006 89.6242 225.306 90.5443 225.548 91.4804C225.64 91.847 225.588 92.2351 225.404 92.5646C225.219 92.8941 224.915 93.1398 224.555 93.251C224.195 93.3622 223.806 93.3304 223.469 93.1622C223.131 92.994 222.871 92.7022 222.742 92.3471L222.73 92.3157Z" fill="#000072"/>
<path d="M176.622 44.9313C177.601 45.1962 178.566 45.5137 179.511 45.8825C180.446 46.2458 181.363 46.6443 182.265 47.0779C183.164 47.5138 184.055 47.9672 184.909 48.493C185.773 49.0104 186.592 49.5999 187.357 50.2551C187.443 50.3277 187.501 50.4274 187.523 50.5377C187.545 50.648 187.529 50.7625 187.477 50.8623C187.425 50.9621 187.342 51.0414 187.239 51.0871C187.137 51.1328 187.022 51.1423 186.914 51.1139H186.904C184.986 50.6126 183.188 49.9604 181.356 49.3884C180.444 49.0972 179.531 48.8243 178.612 48.5601C177.693 48.2959 176.765 48.0265 175.901 47.7955L175.868 47.7867C175.5 47.6792 175.188 47.4314 175 47.0962C174.811 46.761 174.76 46.365 174.859 45.9929C174.957 45.6208 175.197 45.3021 175.526 45.1048C175.855 44.9076 176.249 44.8475 176.622 44.9374V44.9313Z" fill="#000072"/>
<path d="M156.476 125.141C159.864 125.141 162.611 124.59 162.611 123.91C162.611 123.23 159.864 122.679 156.476 122.679C153.088 122.679 150.341 123.23 150.341 123.91C150.341 124.59 153.088 125.141 156.476 125.141Z" fill="white"/>
<path d="M199.399 112.533C200.126 103.884 195.589 96.4391 189.267 95.904C182.945 95.369 177.231 101.947 176.504 110.596C175.777 119.245 180.313 126.69 186.636 127.225C192.958 127.76 198.672 121.182 199.399 112.533Z" fill="#000072"/>
<path d="M189.118 110.006C189.374 106.958 187.775 104.335 185.547 104.146C183.319 103.958 181.305 106.276 181.049 109.323C180.793 112.371 182.392 114.995 184.62 115.184C186.848 115.372 188.862 113.054 189.118 110.006Z" fill="white"/>
<g opacity="0.3">
<path d="M192.655 119.702C192.759 118.464 192.11 117.399 191.204 117.322C190.299 117.246 189.481 118.187 189.377 119.425C189.273 120.663 189.923 121.729 190.828 121.805C191.733 121.882 192.551 120.94 192.655 119.702Z" fill="white"/>
</g>
<path d="M118.873 51.7007C118.873 51.7007 101.075 32.0881 96.0731 37.3422C91.0714 42.5963 95.0262 76.1584 95.0262 76.1584C95.0262 76.1584 101.657 62.4408 118.873 51.7007Z" fill="#FF6687"/>
<g opacity="0.25">
<path d="M118.873 51.7008C108.956 57.886 102.553 65.0635 98.9056 70.036C98.0733 61.0798 96.7466 42.0279 99.8943 36.677C106.968 38.5839 118.873 51.7008 118.873 51.7008Z" fill="#000072"/>
</g>
<path d="M95.0267 77.6328C94.6671 77.6326 94.3201 77.5002 94.0511 77.2607C93.7822 77.0212 93.61 76.6911 93.5671 76.3328C93.5575 76.2456 92.568 67.7812 92.2057 58.7814C91.4542 40.0608 94.131 37.2454 95.0111 36.3256C95.8668 35.4266 97.0449 34.9602 98.3994 34.9758C105.552 35.063 118.503 49.1085 119.956 50.7102C120.101 50.87 120.21 51.0599 120.273 51.2665C120.337 51.473 120.355 51.6911 120.325 51.9053C120.296 52.1195 120.219 52.3246 120.102 52.5059C119.985 52.6872 119.829 52.8403 119.646 52.9545C103.033 63.3179 96.4116 76.6737 96.3464 76.8028C96.226 77.0513 96.0384 77.2608 95.8051 77.4076C95.5718 77.5543 95.302 77.6324 95.0267 77.6328ZM98.3281 37.9238C97.6331 37.9238 97.3116 38.1722 97.1318 38.3597C94.1935 41.4454 94.786 58.8407 96.0128 71.5835C99.1361 66.8404 105.601 58.6253 116.593 51.4112C112.149 46.7387 102.892 37.9761 98.3655 37.922L98.3281 37.9238Z" fill="#000072"/>
<path d="M194.125 51.7007C194.125 51.7007 211.923 32.0881 216.925 37.3422C221.927 42.5963 217.967 76.1584 217.967 76.1584C217.967 76.1584 211.343 62.4408 194.125 51.7007Z" fill="#FF6687"/>
<g opacity="0.25">
<path d="M194.125 51.7008C204.042 57.886 210.445 65.0635 214.093 70.036C214.925 61.0798 216.252 42.0279 213.104 36.677C206.03 38.5839 194.125 51.7008 194.125 51.7008Z" fill="#000072"/>
</g>
<path d="M217.971 77.6328C217.696 77.6327 217.425 77.5548 217.192 77.4078C216.958 77.2609 216.77 77.0509 216.65 76.8019C216.586 76.6702 209.965 63.3188 193.35 52.9536C193.167 52.8395 193.011 52.6863 192.893 52.505C192.776 52.3237 192.7 52.1186 192.67 51.9044C192.641 51.6902 192.658 51.4721 192.722 51.2656C192.786 51.059 192.894 50.8691 193.039 50.7093C194.492 49.1076 207.443 35.0613 214.596 34.975C215.963 34.9628 217.13 35.4257 217.984 36.3247C218.865 37.248 221.541 40.0599 220.79 58.7805C220.428 67.7803 219.438 76.2473 219.428 76.3319C219.391 76.6488 219.252 76.945 219.033 77.1759C218.814 77.4069 218.526 77.5602 218.212 77.6127C218.132 77.6257 218.052 77.6324 217.971 77.6328ZM196.404 51.4112C207.396 58.6218 213.862 66.8439 216.982 71.5835C218.207 58.8407 218.801 41.4454 215.863 38.3641C215.68 38.1722 215.37 37.9168 214.632 37.9281C210.105 37.9761 200.848 46.7387 196.404 51.4112Z" fill="#000072"/>
<path d="M157.074 184.138H156.497C145.116 184.182 133.771 182.876 122.696 180.245C110.533 177.353 93.3305 171.979 84.3897 158.765C75.9623 146.307 76.0301 135.565 77.5713 128.747C78.9849 122.496 81.818 118.372 82.772 117.11C83.3549 107.922 84.8979 99.3964 87.3653 91.7576C87.0482 89.3686 85.1846 74.8044 84.785 59.7257C84.1768 36.949 86.9683 24.3099 93.3157 21.0838C99.2236 18.0801 108.573 21.3271 121.095 30.7323C128.669 36.4215 135.196 42.7506 137.174 44.715C147.794 41.8883 155.789 41.9921 156.499 42.0121C157.207 41.9955 165.205 41.8918 175.827 44.715C177.803 42.7515 184.331 36.4215 191.906 30.7323C204.428 21.3262 213.776 18.0819 219.684 21.0838C226.037 24.3099 228.829 36.9786 228.216 59.8041C227.807 75.0441 225.957 89.3756 225.637 91.7637C228.102 99.4094 229.645 107.943 230.226 117.136C231.114 118.399 233.843 122.654 235.194 129.004C236.66 135.892 236.707 146.64 228.611 158.754C219.798 171.944 202.526 177.335 190.297 180.242C179.411 182.829 168.262 184.137 157.074 184.138ZM156.491 181.19C167.646 181.242 178.768 179.962 189.623 177.378C201.368 174.588 217.934 169.444 226.173 157.116C232.18 148.125 234.259 138.921 232.351 129.759C230.92 122.893 227.659 118.609 227.628 118.567C227.446 118.332 227.339 118.048 227.321 117.751C226.77 108.509 225.228 99.9683 222.742 92.3601C222.671 92.1461 222.651 91.9188 222.683 91.6957C222.704 91.5405 224.849 75.9718 225.282 59.6455C226.019 31.8204 221.259 25.1905 218.356 23.7152C208.539 18.728 185.456 39.0607 177.343 47.3604C177.173 47.5467 176.957 47.6859 176.718 47.7644C176.478 47.8429 176.222 47.8581 175.975 47.8085C175.929 47.7989 175.881 47.7876 175.836 47.7736C164.949 44.7621 156.624 44.9539 156.538 44.9548C156.513 44.9548 156.486 44.9548 156.46 44.9548C156.378 44.9548 147.981 44.7734 137.128 47.7815C136.875 47.8514 136.608 47.8522 136.355 47.7837C136.102 47.7151 135.871 47.5798 135.688 47.3917C127.608 39.1087 104.475 18.7192 94.6424 23.7135C91.7397 25.1896 86.9787 31.8222 87.7172 59.6472C88.1516 75.8969 90.294 91.5353 90.3157 91.6914C90.3479 91.921 90.3253 92.155 90.2497 92.3741C87.7676 99.9736 86.2272 108.512 85.6755 117.746C85.6556 118.065 85.5337 118.368 85.328 118.61C85.2958 118.649 81.8988 122.768 80.4019 129.536C78.4036 138.581 80.56 147.858 86.8171 157.106C95.1845 169.472 111.692 174.597 123.374 177.378C134.223 179.96 145.34 181.239 156.491 181.19Z" fill="#000072"/>
</g>
<defs>
<linearGradient id="paint0_linear_8_1145" x1="155.5" y1="114" x2="155.5" y2="304" gradientUnits="userSpaceOnUse">
<stop stop-color="#FED255"/>
<stop offset="1" stop-color="#F4BF2A"/>
</linearGradient>
<linearGradient id="paint1_linear_8_1145" x1="155.5" y1="0" x2="155.5" y2="304" gradientUnits="userSpaceOnUse">
<stop stop-color="#FED255"/>
<stop offset="1" stop-color="#F4BF2A"/>
</linearGradient>
</defs>
</svg>
