<svg width="130" height="184" viewBox="0 0 130 184" fill="none" xmlns="http://www.w3.org/2000/svg">
<g clip-path="url(#clip0_3_175)">
<g opacity="0.25">
<path fill-rule="evenodd" clip-rule="evenodd" d="M72.4748 170.499C98.3526 170.499 119.33 173.522 119.33 177.249C119.33 180.977 98.3526 184 72.4748 184C46.5969 184 25.62 180.978 25.62 177.249C25.62 173.521 46.5987 170.499 72.4748 170.499Z" fill="#082844"/>
</g>
<path fill-rule="evenodd" clip-rule="evenodd" d="M50.2196 94.4125C59.0333 97.7318 68.4428 99.16 77.8408 98.6049C87.2387 98.0499 96.4162 95.5239 104.781 91.19C117.723 90.5901 135.459 135.56 126.491 144.843C125.227 146.151 123.642 147.101 121.894 147.596C120.147 148.091 118.3 148.114 116.541 147.663C114.783 147.211 113.174 146.301 111.878 145.025C110.583 143.749 109.647 142.151 109.165 140.395C109.237 148.16 107.706 155.465 104.572 162.31L104.79 162.341C108.107 163.253 110.565 166.312 110.565 169.919C110.565 174.242 107.041 177.777 102.734 177.777H83.7053C76.1377 177.777 77.3214 156.683 77.5903 151.76C75.4088 152.042 73.1989 152.022 71.0227 151.701C70.8751 156.511 71.1341 177.779 64.36 177.779H45.3327C41.0251 177.779 37.5015 174.244 37.5015 169.922C37.5015 166.314 39.9581 163.255 43.2769 162.343C38.251 147.955 36.238 132.681 37.3638 117.476C15.4704 115.182 -9.78378 84.3967 5.99821 73.4573C9.83681 70.7966 15.5171 70.394 18.5991 73.9056C31.5255 88.6241 41.4521 95.981 50.2196 94.4125Z" fill="#FA9B27"/>
<g opacity="0.5">
<path fill-rule="evenodd" clip-rule="evenodd" d="M107.191 91.5716C117.498 95.1417 129.502 122.713 128.904 137.385C128.248 138.606 127.501 139.775 126.67 140.883C125.702 121.912 119.096 105.796 106.854 92.5355C106.962 92.1844 107.075 91.863 107.191 91.5716Z" fill="white"/>
</g>
<g opacity="0.5">
<path fill-rule="evenodd" clip-rule="evenodd" d="M43.2769 162.341C40.3144 153.858 38.3909 145.046 37.5488 136.098C37.0875 126.46 38.2856 116.445 41.143 106.054C38.1748 128.046 40.3332 146.677 47.6184 161.947C46.671 161.956 45.2235 162.087 43.2758 162.342" fill="white"/>
</g>
<path fill-rule="evenodd" clip-rule="evenodd" d="M128.925 136.328C128.925 137.692 128.823 138.956 128.615 140.103C128.017 142.243 126.728 144.123 124.949 145.447C123.17 146.772 121.003 147.466 118.789 147.42C116.574 147.375 114.437 146.592 112.714 145.195C110.991 143.799 109.78 141.867 109.27 139.705C110.073 137.898 111.308 136.318 112.866 135.104C114.423 133.89 116.255 133.081 118.198 132.747C120.142 132.413 122.138 132.565 124.009 133.189C125.88 133.814 127.569 134.892 128.925 136.328Z" fill="white"/>
<path fill-rule="evenodd" clip-rule="evenodd" d="M7.28457 98.3444C0.419434 89.0894 -1.79213 78.8547 5.99823 73.4573C9.83683 70.7966 15.5171 70.394 18.5991 73.9056C21.7536 77.4953 24.7368 80.6394 27.5486 83.3379C26.2319 91.9467 18.8394 98.5405 9.91733 98.5405C9.03592 98.5406 8.15572 98.475 7.28398 98.3444" fill="white"/>
<g opacity="0.5">
<path fill-rule="evenodd" clip-rule="evenodd" d="M109.251 140.691C109.221 140.592 109.192 140.494 109.165 140.395C109.18 141.932 109.131 143.45 109.02 144.951C108.917 146.2 108.784 147.411 108.622 148.584C107.935 153.331 106.571 157.953 104.572 162.31C102.567 162.072 101.263 161.952 100.659 161.952C106.557 148.167 108.244 129.855 105.719 107.018C108.344 120.108 109.521 131.332 109.251 140.691Z" fill="white"/>
</g>
<g opacity="0.5">
<path fill-rule="evenodd" clip-rule="evenodd" d="M13.5197 71.4147C15.4594 71.6061 17.2713 72.3915 18.6002 73.9056C26.3008 82.6736 32.9361 88.8301 38.8952 92.0404C39.1453 92.5894 39.3944 93.1479 39.6425 93.716C29.9791 90.1575 21.2715 82.7245 13.5197 71.417" fill="white"/>
</g>
<path d="M102.732 178.857H83.7053C82.3209 178.857 81.1029 178.309 80.0831 177.229C77.0198 173.982 75.8292 166.039 76.4505 152.965C74.9933 153.075 73.5294 153.058 72.0752 152.915C72.0728 153.043 72.0705 153.176 72.0682 153.313C71.8401 165.944 70.7468 178.857 64.363 178.857H45.3328C40.4208 178.857 36.4247 174.847 36.4247 169.919C36.4247 166.294 38.6304 163.049 41.9084 161.674C37.184 147.775 35.2503 133.074 36.2187 118.422C29.1057 117.396 21.1677 113.43 14.2687 107.425C7.2525 101.315 2.26933 94.0485 0.596803 87.4852C-1.02264 81.1297 0.678475 75.8324 5.38629 72.5689C9.50374 69.7145 15.8748 69.1672 19.4082 73.1916C31.7758 87.2757 40.461 93.5451 47.8092 93.5457C48.5542 93.5461 49.2978 93.4803 50.0312 93.3491C50.2215 93.3149 50.4174 93.3329 50.5983 93.4012C68.1041 99.9943 87.6728 98.8395 104.287 90.2301C104.425 90.1598 104.576 90.1199 104.731 90.1131C113.384 89.725 121.214 105.626 123.41 110.513C126.493 117.373 128.682 124.565 129.572 130.764C130.282 135.705 130.458 142.289 127.264 145.594C126.131 146.768 124.761 147.683 123.245 148.279C121.729 148.876 120.104 149.138 118.478 149.049C116.852 148.96 115.264 148.522 113.822 147.765C112.38 147.007 111.116 145.948 110.117 144.658C109.715 150.578 108.353 156.267 106.052 161.631C109.389 162.981 111.642 166.254 111.642 169.921C111.642 174.847 107.646 178.857 102.732 178.857ZM77.5886 150.68C77.7349 150.68 77.8797 150.71 78.014 150.768C78.1484 150.826 78.2696 150.911 78.3701 151.017C78.4707 151.124 78.5487 151.25 78.5991 151.388C78.6496 151.525 78.6716 151.672 78.6638 151.819L78.6603 151.881C77.7765 168.053 79.7955 173.784 81.6448 175.744C82.2504 176.385 82.9236 176.697 83.7035 176.697H102.732C104.363 176.697 105.938 176.105 107.168 175.031C108.398 173.957 109.199 172.472 109.423 170.852C109.647 169.231 109.279 167.584 108.386 166.214C107.494 164.845 106.138 163.845 104.569 163.401L104.424 163.381C104.257 163.358 104.098 163.296 103.96 163.2C103.821 163.105 103.707 162.978 103.626 162.83C103.545 162.682 103.5 162.517 103.494 162.349C103.488 162.18 103.522 162.012 103.592 161.859C106.645 155.187 108.157 147.972 108.084 140.405C108.081 140.142 108.174 139.888 108.345 139.689C108.515 139.491 108.752 139.361 109.011 139.325C109.27 139.288 109.533 139.348 109.752 139.492C109.97 139.636 110.129 139.855 110.198 140.108C110.63 141.681 111.468 143.111 112.628 144.254C113.789 145.398 115.229 146.213 116.805 146.617C118.38 147.021 120.034 147.001 121.599 146.557C123.164 146.113 124.584 145.262 125.716 144.091C129.77 139.894 127.933 125.839 121.445 111.399C116.205 99.7403 109.801 92.2809 105.052 92.2634C96.6165 96.5873 87.3789 99.1095 77.9226 99.671C68.4664 100.232 58.9968 98.8207 50.1118 95.5251C41.5239 96.8824 31.8283 90.6047 17.7929 74.6197C15.051 71.4966 9.95411 72.0281 6.61021 74.3458C1.5932 77.8217 1.70638 83.119 2.68294 86.9502C5.74215 98.9578 21.9442 114.772 37.4753 116.4C37.7537 116.429 38.0099 116.566 38.1894 116.782C38.369 116.997 38.4579 117.274 38.4373 117.554C37.3155 132.699 39.2855 147.647 44.2926 161.983C44.3416 162.123 44.3613 162.271 44.3506 162.419C44.3398 162.567 44.2989 162.711 44.2302 162.842C44.1616 162.973 44.0668 163.089 43.9516 163.182C43.8365 163.275 43.7036 163.343 43.5611 163.382C41.9841 163.815 40.6171 164.806 39.7136 166.173C38.81 167.54 38.4313 169.189 38.6477 170.815C38.864 172.441 39.6608 173.933 40.8901 175.014C42.1194 176.095 43.6979 176.692 45.3328 176.695H64.36C66.3435 176.695 67.9525 173.566 68.887 167.884C69.7428 162.684 69.8531 156.562 69.9126 153.272C69.9243 152.628 69.9342 152.083 69.947 151.663C69.9516 151.511 69.9882 151.361 70.0545 151.224C70.1207 151.087 70.2151 150.966 70.3315 150.868C70.4479 150.77 70.5836 150.698 70.7297 150.657C70.8757 150.615 71.0289 150.605 71.1791 150.628C73.2561 150.936 75.3656 150.955 77.448 150.686C77.4947 150.681 77.5417 150.679 77.5886 150.68Z" fill="#082844"/>
<path fill-rule="evenodd" clip-rule="evenodd" d="M66.8417 176.558C66.1416 177.333 65.3214 177.777 64.36 177.777H45.3327C41.0251 177.777 37.5015 174.242 37.5015 169.919C37.5015 166.312 39.9581 163.253 43.2769 162.341C58.0753 160.147 67.5201 167.011 66.8417 176.558Z" fill="white"/>
<path d="M64.36 178.703H45.3327C40.5059 178.703 36.5775 174.763 36.5775 169.919C36.5775 165.976 39.2318 162.492 43.0319 161.448C43.0678 161.438 43.1042 161.43 43.141 161.425C51.6611 160.161 59.1108 161.822 63.5806 165.979C66.5669 168.757 68.051 172.534 67.7611 176.623C67.7463 176.83 67.6627 177.026 67.5236 177.18C66.6107 178.19 65.546 178.703 64.36 178.703ZM43.4683 163.248C41.8607 163.7 40.4707 164.72 39.5553 166.121C38.6398 167.521 38.2609 169.207 38.4886 170.866C38.7163 172.526 39.5352 174.046 40.7938 175.146C42.0524 176.246 43.6656 176.852 45.335 176.851H64.3623C64.9305 176.851 65.4503 176.624 65.9433 176.158C66.0979 172.728 64.853 169.684 62.3299 167.337C58.2789 163.572 51.408 162.084 43.4683 163.248Z" fill="#082844"/>
<path d="M107.282 107.403C107.849 110.492 108.339 113.594 108.75 116.709C109.158 119.823 109.503 122.949 109.756 126.086C109.888 127.654 109.996 129.224 110.081 130.797C110.173 132.37 110.224 133.947 110.256 135.524C110.321 138.679 110.249 141.848 109.945 145.014C109.919 145.253 109.802 145.472 109.617 145.626C109.433 145.779 109.196 145.855 108.957 145.836C108.718 145.818 108.495 145.707 108.336 145.526C108.178 145.346 108.095 145.111 108.106 144.871V144.86C108.291 141.775 108.335 138.67 108.281 135.56C108.248 134.004 108.199 132.448 108.136 130.89C108.073 129.333 107.996 127.776 107.903 126.218C107.712 123.103 107.492 119.986 107.244 116.867L106.522 107.503C106.513 107.403 106.543 107.305 106.605 107.227C106.667 107.149 106.757 107.099 106.856 107.086C106.954 107.073 107.054 107.099 107.134 107.158C107.214 107.218 107.268 107.306 107.285 107.404L107.282 107.403Z" fill="#082844"/>
<path d="M40.5812 106.993C40.0562 108.974 39.5743 110.964 39.1607 112.963C38.7471 114.962 38.4023 116.968 38.1847 118.972C38.1715 119.093 38.1347 119.21 38.0764 119.317C38.0182 119.424 37.9395 119.518 37.845 119.594C37.7504 119.67 37.6419 119.727 37.5255 119.761C37.4091 119.795 37.2872 119.806 37.1667 119.792C37.0462 119.779 36.9295 119.742 36.8232 119.684C36.7169 119.625 36.6231 119.546 36.5472 119.452C36.4713 119.357 36.4148 119.248 36.3809 119.131C36.3469 119.014 36.3362 118.892 36.3494 118.771C36.3494 118.751 36.3547 118.729 36.3582 118.709C36.7257 116.643 37.2163 114.62 37.7705 112.622C38.3247 110.625 38.9477 108.653 39.6081 106.697C39.6512 106.573 39.7404 106.47 39.8571 106.41C39.9738 106.351 40.109 106.338 40.2345 106.376C40.36 106.414 40.4661 106.499 40.5308 106.613C40.5955 106.727 40.6138 106.862 40.5818 106.989L40.5812 106.993Z" fill="#082844"/>
<path fill-rule="evenodd" clip-rule="evenodd" d="M40.6028 153.529C39.212 147.851 38.3088 143.096 37.893 139.266C32.7179 137.832 28.0566 134.95 24.4541 130.956C20.8516 126.962 18.4568 122.022 17.5496 116.713C15.2826 119.917 14.0334 123.733 13.966 127.661C13.8985 131.589 15.0159 135.446 17.1716 138.725C15.5774 139.212 13.9167 139.442 12.2509 139.408C13.143 142.667 14.977 145.589 17.5217 147.804C20.0663 150.02 23.2077 151.43 26.5499 151.857C25.6921 153.43 24.2521 154.603 22.5404 155.121C25.4554 156.339 28.621 156.83 31.7666 156.553C34.9121 156.276 37.944 155.238 40.6028 153.529Z" fill="#FA9B27"/>
<g opacity="0.5">
<path fill-rule="evenodd" clip-rule="evenodd" d="M38.3171 142.446C38.1421 141.323 38.0007 140.264 37.893 139.266C32.7179 137.832 28.0566 134.95 24.4541 130.956C20.8516 126.962 18.4568 122.022 17.5496 116.713C16.6099 118.04 15.84 119.48 15.2581 121C18.7195 133.023 26.4058 140.171 38.3171 142.446Z" fill="white"/>
</g>
<path d="M30.0542 157.706C27.3337 157.707 24.64 157.167 22.1285 156.117C21.9236 156.032 21.7501 155.885 21.6317 155.697C21.5133 155.508 21.4559 155.288 21.4672 155.066C21.4785 154.843 21.558 154.63 21.6949 154.455C21.8317 154.279 22.0193 154.151 22.2318 154.087C23.1527 153.81 23.989 153.304 24.6633 152.617C21.4643 151.889 18.5229 150.302 16.154 148.025C13.7851 145.749 12.0779 142.869 11.2153 139.694C11.1708 139.532 11.1646 139.362 11.1973 139.197C11.23 139.032 11.3007 138.877 11.4038 138.745C11.5058 138.611 11.6381 138.504 11.7896 138.431C11.9411 138.359 12.1076 138.324 12.2753 138.329C13.3556 138.35 14.4349 138.252 15.4938 138.036C11.6161 131.111 12.0286 122.649 16.6716 116.088C16.7946 115.914 16.9662 115.781 17.1647 115.705C17.3631 115.629 17.5796 115.613 17.7868 115.66C17.9941 115.707 18.1828 115.815 18.3292 115.969C18.4756 116.124 18.5732 116.318 18.6096 116.528C20.383 126.905 28.0643 135.42 38.1788 138.223C38.3867 138.281 38.5726 138.4 38.7124 138.564C38.8521 138.729 38.9392 138.932 38.9623 139.147C39.3707 142.908 40.2737 147.659 41.6458 153.27C41.6992 153.488 41.6829 153.719 41.5992 153.928C41.5155 154.137 41.3686 154.315 41.1791 154.436C37.8586 156.57 33.9979 157.705 30.0542 157.706ZM25.2974 154.922C27.6523 155.552 30.1082 155.708 32.5235 155.381C34.9388 155.055 37.2659 154.252 39.3707 153.02C38.1619 147.994 37.3341 143.655 36.9053 140.104C27.2085 137.152 19.6958 129.301 17.0736 119.561C14.0365 125.432 14.3539 132.475 18.07 138.13C18.1622 138.27 18.2206 138.43 18.2405 138.597C18.2604 138.764 18.2413 138.933 18.1846 139.091C18.128 139.249 18.0354 139.391 17.9142 139.507C17.7931 139.623 17.6466 139.709 17.4866 139.758C16.2614 140.132 14.9976 140.365 13.7198 140.452C14.7307 143.201 16.4751 145.619 18.7625 147.441C21.0499 149.263 23.7924 150.42 26.6905 150.785C26.8644 150.807 27.0303 150.871 27.1738 150.973C27.3172 151.074 27.4339 151.208 27.5136 151.365C27.5933 151.522 27.6336 151.695 27.6311 151.871C27.6286 152.047 27.5832 152.22 27.499 152.374C26.9569 153.373 26.2059 154.242 25.2974 154.922Z" fill="#082844"/>
<path fill-rule="evenodd" clip-rule="evenodd" d="M81.2382 176.558C81.9383 177.333 82.7591 177.777 83.7187 177.777H102.746C107.054 177.777 110.578 174.242 110.578 169.919C110.578 166.312 108.121 163.253 104.802 162.341C90.004 160.147 80.5603 167.011 81.2382 176.558Z" fill="white"/>
<path d="M102.746 178.703H83.7187C82.5339 178.703 81.4692 178.19 80.5551 177.181C80.4162 177.027 80.3328 176.831 80.3182 176.624C80.0265 172.538 81.5124 168.758 84.4981 165.98C88.9673 161.825 96.4176 160.163 104.938 161.426C104.975 161.432 105.011 161.439 105.047 161.449C108.847 162.493 111.5 165.978 111.5 169.921C111.5 174.763 107.574 178.703 102.746 178.703ZM82.1389 176.158C82.6319 176.624 83.1511 176.851 83.7181 176.851H102.745C104.415 176.852 106.028 176.247 107.287 175.146C108.545 174.046 109.364 172.526 109.592 170.866C109.82 169.207 109.441 167.521 108.525 166.121C107.61 164.72 106.22 163.7 104.612 163.248C96.6725 162.083 89.8004 163.572 85.7535 167.337C83.2298 169.684 81.9843 172.728 82.1389 176.158Z" fill="#082844"/>
<path fill-rule="evenodd" clip-rule="evenodd" d="M14.6427 92.0421C14.2096 92.547 13.6293 92.9026 12.9838 93.0585C12.3383 93.2145 11.6603 93.1629 11.0456 92.9111C10.431 92.6594 9.9107 92.2202 9.55842 91.6555C9.20614 91.0909 9.03967 90.4295 9.08254 89.7648C9.11185 88.2762 9.58577 86.8307 10.443 85.6153C11.3002 84.3999 12.5012 83.4706 13.8907 82.9475C16.709 81.8858 22.905 83.4158 22.7049 86.3732C22.6856 86.6597 22.5911 86.9361 22.4308 87.174C22.2705 87.412 22.0503 87.6032 21.7925 87.7281C19.5821 88.7962 19.4246 84.986 14.6427 92.0421Z" fill="#FF6A9F"/>
<path fill-rule="evenodd" clip-rule="evenodd" d="M16.4593 76.444C17.4207 76.444 18.1989 77.3283 18.1989 78.4175C18.1989 79.5067 17.4207 80.3905 16.4593 80.3905C15.4979 80.3905 14.7197 79.5073 14.7197 78.4175C14.7197 77.3277 15.4985 76.444 16.4593 76.444Z" fill="#FF6A9F"/>
<path fill-rule="evenodd" clip-rule="evenodd" d="M10.4424 75.799C11.5286 75.799 12.4083 76.6143 12.4083 77.6204C12.4083 78.6265 11.5286 79.4423 10.4424 79.4423C9.35611 79.4423 8.47522 78.627 8.47522 77.6204C8.47522 76.6137 9.35611 75.799 10.4424 75.799Z" fill="#FF6A9F"/>
<path fill-rule="evenodd" clip-rule="evenodd" d="M6.86924 81.1882C7.94556 81.1882 8.8177 82.1247 8.8177 83.2747C8.8177 84.4248 7.94264 85.3624 6.86924 85.3624C5.79583 85.3624 4.92194 84.426 4.92194 83.2747C4.92194 82.1235 5.797 81.1882 6.86924 81.1882Z" fill="#FF6A9F"/>
<path fill-rule="evenodd" clip-rule="evenodd" d="M74.0352 113.977C87.9487 113.977 99.2282 122.451 99.2282 132.904C99.2282 143.358 87.9487 151.832 74.0352 151.832C60.1218 151.832 48.8423 143.358 48.8423 132.904C48.8423 122.451 60.1212 113.977 74.0352 113.977Z" fill="white"/>
<g opacity="0.2">
<path fill-rule="evenodd" clip-rule="evenodd" d="M108.185 91.5956C108.606 91.7927 109.014 92.0161 109.406 92.2646C105.98 100.508 95.7408 109.208 79.0651 119.021C76.2649 120.67 72.795 120.929 68.1595 119.021C56.6865 112.838 46.7498 103.608 38.3492 91.3299C41.0035 92.8516 43.5231 93.7968 45.9406 94.1456C55.8345 98.4635 66.5747 100.477 77.3552 100.035C88.1357 99.5938 98.6764 96.7084 108.187 91.5956" fill="#082844"/>
</g>
<path fill-rule="evenodd" clip-rule="evenodd" d="M40.0806 89.0344C50.0948 95.1796 61.5726 98.5083 73.3104 98.6714C85.0481 98.8345 96.6134 95.8261 106.793 89.9615C104.354 97.968 94.7654 106.408 78.4502 116.006C75.8834 117.516 72.7087 117.753 68.4635 116.006C57.4622 110.077 48.0013 101.086 40.0806 89.0344Z" fill="#FF125D"/>
<path fill-rule="evenodd" clip-rule="evenodd" d="M76.5181 109.546C78.2939 107.732 75.1723 105.652 73.0605 105.898C71.0706 106.132 68.5889 108.51 70.7795 109.854C72.2082 110.729 72.7233 109.372 73.4753 109.315C74.278 109.253 75.191 110.904 76.5181 109.546Z" fill="white"/>
<path fill-rule="evenodd" clip-rule="evenodd" d="M67.3912 105.604C67.7815 105.374 68.383 105.678 68.74 106.284C69.097 106.889 69.0661 107.566 68.6758 107.796C68.2855 108.026 67.6841 107.723 67.3259 107.118C66.9677 106.512 67.0009 105.835 67.3912 105.604Z" fill="white"/>
<path fill-rule="evenodd" clip-rule="evenodd" d="M78.7938 104.149C78.4397 103.866 77.7992 104.081 77.3634 104.631C76.9276 105.18 76.8623 105.855 77.217 106.138C77.5717 106.422 78.2087 106.205 78.6474 105.657C79.0861 105.108 79.1485 104.432 78.7938 104.149Z" fill="white"/>
<path fill-rule="evenodd" clip-rule="evenodd" d="M70.0048 101.867C70.6815 101.587 71.5443 102.124 71.9299 103.065C72.3155 104.006 72.0822 104.997 71.4049 105.276C70.7276 105.556 69.8653 105.021 69.4797 104.079C69.0941 103.138 69.3269 102.147 70.0048 101.867Z" fill="white"/>
<path fill-rule="evenodd" clip-rule="evenodd" d="M74.2371 104.845C73.512 104.743 73.0377 103.843 73.1783 102.835C73.3189 101.827 74.0213 101.091 74.7464 101.193C75.4715 101.295 75.9458 102.195 75.8052 103.203C75.6646 104.211 74.9634 104.946 74.2371 104.845Z" fill="white"/>
<g opacity="0.4">
<path fill-rule="evenodd" clip-rule="evenodd" d="M99.9563 100.342C95.1032 105.268 87.9061 110.442 78.4502 116.007C75.8834 117.517 72.7087 117.754 68.4635 116.007C61.1651 112.073 54.5442 106.791 48.6008 100.162C48.6253 99.6934 48.6644 99.2287 48.7145 98.7599C59.1569 106.939 64.8996 114.162 73.5207 114.06C81.9545 113.96 89.284 106.138 99.8349 98.7599C99.8925 99.2882 99.9329 99.815 99.9563 100.34" fill="white"/>
</g>
<path d="M73.9098 118.158C72.1341 118.158 70.2101 117.726 68.1135 116.864C68.0843 116.851 68.0551 116.838 68.0271 116.823C56.943 110.848 47.2795 101.669 39.31 89.5436C39.1943 89.3679 39.1418 89.1578 39.1612 88.9481C39.1805 88.7385 39.2706 88.5417 39.4166 88.3903C39.5625 88.2389 39.7555 88.142 39.9638 88.1156C40.172 88.0891 40.383 88.1347 40.5619 88.2449C50.434 94.3058 61.7502 97.589 73.3229 97.7497C84.8957 97.9105 96.2982 94.9429 106.334 89.1585C106.494 89.0659 106.679 89.0238 106.863 89.0378C107.048 89.0518 107.224 89.1212 107.369 89.237C107.513 89.3528 107.62 89.5096 107.675 89.6871C107.73 89.8645 107.73 90.0543 107.675 90.2319C105.232 98.2502 96.0938 106.697 78.9152 116.803C77.3856 117.707 75.7253 118.158 73.9098 118.158ZM68.8578 115.169C72.508 116.661 75.4937 116.675 77.9835 115.209C92.8146 106.48 101.696 98.8606 104.998 92.0053C95.4495 97.0256 84.8246 99.6348 74.0441 99.6069C63.2635 99.5789 52.6522 96.9147 43.1293 91.8449C50.4536 102.061 59.0957 109.898 68.8578 115.169Z" fill="#082844"/>
<path fill-rule="evenodd" clip-rule="evenodd" d="M106.312 91.3217C106.633 90.4153 106.794 89.9619 106.793 89.9615C117.52 87.881 123.938 89.8456 126.045 95.8552C122.147 98.1304 117.876 98.191 113.233 96.0372C111.568 93.938 109.261 92.3662 106.312 91.3217Z" fill="#FF125D"/>
<path d="M119.742 98.5317C117.525 98.5317 115.221 97.9803 112.844 96.8777C112.713 96.8173 112.598 96.7266 112.509 96.6131C110.963 94.6618 108.775 93.1752 106.005 92.1949C105.89 92.1545 105.785 92.0918 105.694 92.0104C105.604 91.929 105.531 91.8306 105.479 91.7207C105.426 91.6108 105.396 91.4916 105.39 91.37C105.384 91.2484 105.402 91.1268 105.442 91.0121L105.924 89.6519C105.977 89.4999 106.07 89.3646 106.191 89.2595C106.313 89.1543 106.461 89.083 106.618 89.0526C117.813 86.8818 124.645 89.0672 126.913 95.5491C126.985 95.7525 126.983 95.9744 126.908 96.1766C126.834 96.3788 126.691 96.5485 126.505 96.6565C124.364 97.906 122.103 98.5317 119.742 98.5317ZM113.811 95.2857C117.85 97.1083 121.483 97.1586 124.884 95.4338C122.717 90.5427 117.009 89.0169 107.485 90.7721V90.7768C110.103 91.8396 112.228 93.3514 113.811 95.2857Z" fill="#082844"/>
<path fill-rule="evenodd" clip-rule="evenodd" d="M125.212 81.7946C121.213 80.6931 117.703 81.1677 114.684 83.2185C112.433 85.7855 109.769 88.033 106.793 89.9615C111.446 89.0586 115.288 88.9173 118.319 89.5377C122.096 88.3098 124.394 85.7288 125.212 81.7946Z" fill="#FF125D"/>
<path d="M106.793 90.8868C106.594 90.8866 106.4 90.8218 106.241 90.7021C106.081 90.5825 105.965 90.4143 105.909 90.2227C105.852 90.0312 105.859 89.8265 105.928 89.6393C105.998 89.452 106.125 89.2922 106.292 89.1836C109.262 87.2593 111.852 85.0469 113.993 82.6069C114.044 82.548 114.103 82.4959 114.168 82.4518C117.407 80.2523 121.205 79.7303 125.458 80.902C125.684 80.9645 125.878 81.1112 126.001 81.3122C126.123 81.5133 126.165 81.7536 126.117 81.9842C125.229 86.2485 122.702 89.0865 118.605 90.418C118.454 90.4667 118.294 90.4757 118.138 90.4443C115.238 89.852 111.482 89.9954 106.971 90.8698C106.913 90.8814 106.853 90.8871 106.793 90.8868ZM114.22 88.2361C115.688 88.2361 117.034 88.3514 118.258 88.582C121.312 87.5285 123.23 85.5204 124.097 82.4711C120.752 81.736 117.864 82.213 115.297 83.9208C113.83 85.5731 112.22 87.0907 110.484 88.4556C111.725 88.3139 112.972 88.2406 114.22 88.2361Z" fill="#082844"/>
<path d="M43.5365 171.304C43.4018 172.348 43.3364 173.398 43.4566 174.356C43.5051 174.802 43.6161 175.238 43.7862 175.652C43.9176 175.972 44.1299 176.253 44.4022 176.466C44.6262 176.637 44.7741 176.889 44.8137 177.168C44.8533 177.447 44.7814 177.731 44.6137 177.957C44.4461 178.183 44.1961 178.334 43.9183 178.377C43.6404 178.419 43.3571 178.35 43.1299 178.184C43.0296 178.109 42.9433 178.018 42.875 177.913L42.7204 177.675C42.3888 177.159 42.1734 176.576 42.0892 175.968C42.0129 175.4 42.0087 174.825 42.0769 174.256C42.1994 173.144 42.5104 172.1 42.8721 171.089C42.9044 171.012 42.9627 170.95 43.0368 170.912C43.1108 170.875 43.1957 170.865 43.2763 170.884C43.3569 170.904 43.428 170.951 43.477 171.018C43.5259 171.086 43.5495 171.168 43.5435 171.251L43.5365 171.304Z" fill="#082844"/>
<path d="M50.8795 172.65C50.7365 173.523 50.6496 174.4 50.7132 175.214C50.7379 175.598 50.8102 175.977 50.9285 176.343C51.0263 176.642 51.1853 176.917 51.3952 177.151C51.4794 177.237 51.5458 177.339 51.5903 177.45C51.6348 177.562 51.6565 177.682 51.6542 177.802C51.652 177.922 51.6257 178.041 51.577 178.151C51.5284 178.261 51.4582 178.36 51.3708 178.443C51.2833 178.525 51.1803 178.589 51.0678 178.631C50.9553 178.673 50.8356 178.692 50.7158 178.687C50.5959 178.681 50.4783 178.652 50.3698 178.601C50.2614 178.549 50.1643 178.476 50.0843 178.387C50.0401 178.34 50.001 178.289 49.9676 178.234L49.8912 178.105C49.6238 177.646 49.4468 177.14 49.3697 176.614C49.3006 176.121 49.2889 175.622 49.3347 175.127C49.4169 174.16 49.6567 173.248 49.9414 172.365C49.9788 172.247 50.0592 172.148 50.1665 172.087C50.2738 172.027 50.4 172.009 50.5196 172.039C50.6392 172.068 50.7434 172.141 50.8111 172.244C50.8789 172.347 50.9052 172.472 50.8847 172.594L50.8795 172.65Z" fill="#082844"/>
<path d="M96.7722 171.745C97.2716 172.658 97.7295 173.605 98.0428 174.632C98.2063 175.153 98.3141 175.69 98.3642 176.235C98.4177 176.812 98.3619 177.394 98.1997 177.951L98.1618 178.077C98.1311 178.187 98.0788 178.291 98.0079 178.381C97.937 178.471 97.8489 178.545 97.7488 178.601C97.6487 178.656 97.5386 178.691 97.4249 178.703C97.3113 178.715 97.1964 178.704 97.0869 178.671C96.9774 178.638 96.8756 178.584 96.7874 178.511C96.6992 178.438 96.6264 178.348 96.5733 178.247C96.5201 178.145 96.4877 178.034 96.4779 177.92C96.4681 177.805 96.4811 177.69 96.5161 177.581C96.536 177.516 96.5632 177.453 96.5972 177.394C96.7843 177.058 96.8996 176.687 96.9355 176.304C96.9808 175.849 96.9743 175.39 96.9163 174.936C96.8072 173.982 96.5342 173.001 96.2052 172.036L96.1929 172.001C96.1678 171.926 96.1716 171.844 96.2037 171.771C96.2357 171.698 96.2937 171.64 96.3661 171.608C96.4386 171.576 96.5204 171.572 96.5955 171.598C96.6707 171.623 96.7337 171.675 96.7722 171.745Z" fill="#082844"/>
<path d="M104.874 171.117C105.259 172.099 105.569 173.109 105.803 174.138C106.029 175.179 106.159 176.265 106.075 177.388L106.071 177.451C106.041 177.665 105.931 177.861 105.763 177.997C105.594 178.133 105.381 178.2 105.166 178.184C104.95 178.167 104.749 178.07 104.603 177.91C104.457 177.75 104.377 177.541 104.379 177.324C104.383 177.267 104.394 177.21 104.409 177.155C104.655 176.284 104.738 175.303 104.713 174.307C104.678 173.289 104.565 172.276 104.376 171.276L104.372 171.259C104.361 171.194 104.374 171.128 104.409 171.073C104.444 171.018 104.498 170.977 104.561 170.96C104.623 170.942 104.69 170.948 104.749 170.977C104.807 171.006 104.853 171.056 104.876 171.117H104.874Z" fill="#082844"/>
<path d="M64.1319 149.658C70.7055 151.909 77.8357 151.922 84.417 149.694C84.555 149.652 84.7036 149.663 84.834 149.724C84.9645 149.786 85.0675 149.894 85.1233 150.027C85.1792 150.161 85.1838 150.31 85.1363 150.447C85.0888 150.583 84.9926 150.697 84.8662 150.767L84.7927 150.804C83.1831 151.624 81.4529 152.2 79.6812 152.589C77.9029 152.979 76.0887 153.179 74.2686 153.185C73.8136 153.182 73.3586 153.162 72.9041 153.15L71.5425 153.052L70.1908 152.87C69.7422 152.794 69.2954 152.714 68.8491 152.62C67.0745 152.238 65.3407 151.663 63.7306 150.839L63.6495 150.799C63.5096 150.728 63.4018 150.606 63.3479 150.458C63.2939 150.311 63.2979 150.148 63.359 150.003C63.42 149.858 63.5336 149.742 63.6768 149.678C63.82 149.614 63.982 149.607 64.1302 149.658H64.1319Z" fill="#082844"/>
<path fill-rule="evenodd" clip-rule="evenodd" d="M74.1228 8.7247C69.3873 8.58789 64.7293 9.95091 60.8096 12.6203C36.1675 -9.35524 26.2817 0.0819352 31.1521 40.9318C-4.55967 117.474 151.594 118.385 117.092 40.9318C121.964 0.0823282 112.079 -9.35485 87.4359 12.6203C83.5163 9.95098 78.8582 8.58797 74.1228 8.7247Z" fill="#FA9B27"/>
<g opacity="0.5">
<path fill-rule="evenodd" clip-rule="evenodd" d="M38.5639 32.7941C42.3896 26.695 46.6471 21.7898 51.1875 18.085C51.877 17.522 52.5732 16.9864 53.276 16.4784C54.4789 14.9829 54.2486 13.1406 52.5852 10.9517C47.7485 5.92533 40.4184 1.09037 33.3923 5.09892C38.9864 -1.35355 47.7915 1.15553 59.8074 12.6261L59.8021 12.6308C68.6951 8.51751 78.2227 8.49644 87.4319 12.622C99.4458 1.15533 108.25 -1.35316 113.844 5.09658C106.796 -0.495142 88.3227 11.3473 95.4147 17.3119C100.597 21.1121 105.577 26.3081 110.169 32.9147C99.2592 20.8768 88.3456 14.3381 77.4288 13.2986C78.0536 13.6246 78.4252 14.032 78.4252 14.4744C78.4252 15.5391 76.2725 16.4023 73.6193 16.4023C70.9662 16.4023 68.8141 15.5391 68.8141 14.4744C68.8141 14.1262 69.0439 13.7996 69.4459 13.5181C59.1544 15.0605 48.8604 21.4858 38.5639 32.7941Z" fill="white"/>
</g>
<path fill-rule="evenodd" clip-rule="evenodd" d="M25.9951 65.9119C28.2644 87.7655 51.2172 98.7313 74.1234 98.6727C97.0289 98.7313 119.982 87.7655 122.252 65.9119C121.482 56.1999 117.306 52.7848 110.018 56.3035C98.4372 61.8905 91.2728 61.7044 86.4121 56.6827C83.0834 53.2431 78.6603 51.5645 74.1228 51.4609C69.5847 51.5645 65.1622 53.2431 61.8335 56.6827C56.9728 61.7044 49.8084 61.8917 38.2284 56.3035C30.9363 52.7871 26.764 56.2022 25.9951 65.9143" fill="white"/>
<path d="M73.9384 99.7607C73.7827 99.7607 73.6287 99.7607 73.4717 99.7607C59.4393 99.6724 46.2906 95.5169 37.3977 88.3725C23.5963 77.2815 20.9915 60.3782 30.0472 40.7545C27.3164 17.5934 29.3151 4.58739 36.1563 1.00024C41.6662 -1.88985 49.7675 1.46846 60.9076 11.266C64.8564 8.7687 69.457 7.50788 74.1228 7.64428C78.7887 7.50702 83.3895 8.76791 87.3379 11.266C98.4804 1.46904 106.579 -1.88927 112.089 0.999653C118.932 4.58798 120.933 17.5957 118.197 40.765C127.006 60.7568 124.041 77.8199 109.832 88.8348C100.86 95.7896 87.7976 99.7602 73.9384 99.7607ZM40.3962 2.16552C39.1887 2.16552 38.1077 2.41543 37.1533 2.91526C31.2513 6.00902 29.5922 18.7569 32.2214 40.8036C32.2452 41.0037 32.2126 41.2064 32.1275 41.3889C23.3769 60.14 25.7291 76.2268 38.7435 86.6892C56.4956 100.955 90.403 101.168 108.515 87.1276C121.925 76.7296 124.622 60.4818 116.11 41.3725C116.031 41.1942 116.001 40.9976 116.024 40.8036C118.653 18.7569 116.994 6.00902 111.092 2.91409C106.432 0.468223 98.7137 4.00797 88.1512 13.4274C87.9722 13.5871 87.7452 13.6823 87.5062 13.698C87.2672 13.7137 87.0298 13.6489 86.8316 13.514C83.1016 10.966 78.6636 9.66755 74.1531 9.80453H74.0948C69.5842 9.66703 65.1461 10.9655 61.4163 13.514C61.2182 13.649 60.9807 13.7138 60.7417 13.6981C60.5027 13.6825 60.2757 13.5872 60.0967 13.4274C51.6933 5.93586 45.0912 2.16552 40.3962 2.16552Z" fill="#082844"/>
<g opacity="0.3">
<path fill-rule="evenodd" clip-rule="evenodd" d="M26.1485 66.5177C26.9267 74.0092 30.1341 80.2178 34.9364 85.1435C46.8861 91.9354 60.3863 95.5042 74.1204 95.502C87.8544 95.4997 101.353 91.9264 113.301 85.1306C113.26 85.284 113.215 85.4355 113.172 85.5883C118.218 80.5924 121.601 74.234 122.403 66.5177C122.238 64.4357 121.918 62.6457 121.442 61.1478L121.416 61.132C118.688 78.3871 103.658 89.4517 74.2645 89.6934C45.1128 89.9322 30.5611 81.1074 27.1146 61.132C26.6378 62.6322 26.3157 64.4271 26.1485 66.5165" fill="#082844"/>
</g>
<path fill-rule="evenodd" clip-rule="evenodd" d="M74.1228 56.1215C77.9474 56.1215 81.048 57.3956 81.048 58.9677C81.048 60.5397 77.9474 65.5713 74.1228 65.5713C70.2982 65.5713 67.197 60.5379 67.197 58.9677C67.197 57.3974 70.2964 56.1215 74.1228 56.1215Z" fill="#082844"/>
<path d="M79.6812 69.9492C77.6684 69.9485 75.7057 69.3197 74.065 68.15C71.6788 69.6187 68.8196 70.1069 66.0835 69.5129C63.3473 68.9188 60.9451 67.2885 59.3775 64.9615C59.1991 64.6901 59.1346 64.3592 59.198 64.0405C59.2613 63.7217 59.4474 63.4409 59.7158 63.259C59.9843 63.0771 60.3134 63.0087 60.6318 63.0687C60.9501 63.1288 61.2321 63.3123 61.4164 63.5796C62.052 64.5228 62.8713 65.3271 63.825 65.9442C64.7787 66.5612 65.847 66.9782 66.9656 67.17C68.0842 67.3617 69.2299 67.3244 70.3337 67.0601C71.4375 66.7958 72.4766 66.3101 73.3883 65.6322C73.6143 65.464 73.8909 65.3786 74.172 65.3902C74.4531 65.4018 74.7217 65.5097 74.9331 65.696C75.7683 66.4286 76.761 66.9578 77.8337 67.242C78.9063 67.5263 80.03 67.558 81.1169 67.3347C83.3722 66.8665 85.1252 65.5204 86.0534 63.5463C86.1223 63.3996 86.2194 63.2681 86.339 63.1591C86.4586 63.0501 86.5985 62.9659 86.7505 62.9111C86.9026 62.8564 87.064 62.8322 87.2254 62.84C87.3868 62.8478 87.5451 62.8874 87.6912 62.9566C87.8373 63.0258 87.9684 63.1231 88.0771 63.2431C88.1857 63.3632 88.2697 63.5035 88.3243 63.656C88.3788 63.8086 88.4029 63.9705 88.3952 64.1324C88.3874 64.2943 88.3479 64.4531 88.2789 64.5997C87.013 67.292 84.6469 69.1216 81.6168 69.7502C80.9801 69.8826 80.3315 69.9492 79.6812 69.9492Z" fill="#082844"/>
<path fill-rule="evenodd" clip-rule="evenodd" d="M65.7041 68.1442C65.8486 70.2867 66.7973 72.2946 68.3589 73.7631C69.9206 75.2316 71.979 76.0516 74.1194 76.0578C76.2598 76.0639 78.323 75.2558 79.893 73.7963C81.463 72.3368 82.4232 70.3344 82.5799 68.1928C82.1852 68.3408 81.7797 68.4582 81.3671 68.5439C80.094 68.8091 78.7769 68.7739 77.5197 68.441C76.2626 68.1082 75.0997 67.4868 74.1228 66.626C73.0775 67.4034 71.8862 67.9605 70.6206 68.2636C69.3551 68.5668 68.0414 68.6098 66.7588 68.39C66.403 68.3275 66.0509 68.2455 65.7041 68.1442Z" fill="#082844"/>
<path d="M74.1467 77.285H74.1175C69.0585 77.2721 64.8244 73.294 64.479 68.229C64.4656 68.0311 64.4999 67.8329 64.579 67.6511C64.6582 67.4693 64.7798 67.3093 64.9337 67.1847C65.0876 67.06 65.2691 66.9745 65.4629 66.9352C65.6567 66.8959 65.8571 66.9041 66.0472 66.959C67.29 67.3197 68.5992 67.3876 69.8725 67.1575C71.1459 66.9274 72.349 66.4054 73.3883 65.6322C73.6143 65.464 73.8908 65.3786 74.1719 65.3902C74.453 65.4018 74.7217 65.5098 74.9331 65.696C75.9043 66.5511 77.0877 67.127 78.3583 67.3628C79.6289 67.5986 80.9393 67.4856 82.1512 67.0357C82.3444 66.9638 82.5526 66.9418 82.7565 66.9717C82.9604 67.0016 83.1536 67.0824 83.3183 67.2068C83.4829 67.3311 83.6138 67.495 83.6989 67.6833C83.7839 67.8717 83.8204 68.0785 83.805 68.2846C83.4323 73.335 79.1905 77.285 74.1467 77.285ZM67.2378 69.6987C68.1531 72.6625 70.9131 74.8081 74.1216 74.8163H74.1432C77.2998 74.8163 80.0353 72.7474 81.0002 69.8579C78.5559 70.195 76.0754 69.5842 74.0644 68.15C72.0186 69.4026 69.6194 69.9467 67.2355 69.6987H67.2378Z" fill="#082844"/>
<path fill-rule="evenodd" clip-rule="evenodd" d="M68.8777 74.2065C70.3415 75.3983 72.1693 76.0489 74.0545 76.0489C75.9397 76.0489 77.7676 75.3983 79.2314 74.2065C78.6643 73.3499 77.8949 72.6474 76.9917 72.1614C76.0885 71.6754 75.0795 71.4211 74.0545 71.4211C73.0296 71.4211 72.0206 71.6754 71.1174 72.1614C70.2141 72.6474 69.4447 73.3499 68.8777 74.2065Z" fill="#FF6A9F"/>
<path d="M74.054 76.5001C72.0647 76.5054 70.1342 75.8234 68.5872 74.5687C68.4981 74.4961 68.4391 74.3928 68.4219 74.279C68.4046 74.1651 68.4303 74.0489 68.4938 73.953C69.1029 73.033 69.9294 72.2784 70.8996 71.7564C71.8698 71.2344 72.9536 70.9612 74.0545 70.9612C75.1555 70.9612 76.2393 71.2344 77.2095 71.7564C78.1797 72.2784 79.0061 73.033 79.6152 73.953C79.6788 74.0489 79.7045 74.1651 79.6872 74.279C79.6699 74.3928 79.611 74.4961 79.5219 74.5687C77.9742 75.823 76.0435 76.5049 74.054 76.5001ZM69.513 74.1116C70.8371 75.0636 72.4252 75.5756 74.0542 75.5756C75.6833 75.5756 77.2714 75.0636 78.5955 74.1116C78.0576 73.4178 77.3689 72.8565 76.5819 72.4703C75.7949 72.0841 74.9304 71.8834 74.0542 71.8834C73.1781 71.8834 72.3136 72.0841 71.5266 72.4703C70.7396 72.8565 70.0509 73.4178 69.513 74.1116Z" fill="#082844"/>
<path d="M93.6518 67.0942C85.9869 67.0942 79.7506 60.8382 79.7506 53.1483C79.7506 45.4583 85.9892 39.2029 93.6518 39.2029C101.314 39.2029 107.552 45.4589 107.552 53.1483C107.552 60.8376 101.316 67.0942 93.6518 67.0942ZM93.6518 41.6716C87.3432 41.6716 82.2107 46.822 82.2107 53.1483C82.2107 59.4745 87.3444 64.6261 93.6518 64.6261C99.9592 64.6261 105.091 59.4757 105.091 53.1483C105.091 46.8209 99.9598 41.6716 93.6518 41.6716Z" fill="#082844"/>
<path d="M54.158 67.0942C46.4936 67.0942 40.2585 60.8382 40.2585 53.1483C40.2585 45.4583 46.4948 39.2029 54.158 39.2029C61.8212 39.2029 68.0592 45.4589 68.0592 53.1483C68.0592 60.8376 61.8235 67.0942 54.158 67.0942ZM54.158 41.6716C47.8506 41.6716 42.7186 46.822 42.7186 53.1483C42.7186 59.4745 47.8523 64.6261 54.158 64.6261C60.4637 64.6261 65.5991 59.4757 65.5991 53.1483C65.5991 46.8209 60.4666 41.6716 54.158 41.6716Z" fill="#082844"/>
<path d="M81.2685 51.4837C81.0475 51.483 80.8308 51.4224 80.6414 51.3082C78.5971 50.0881 76.2625 49.4441 73.8839 49.4441C71.5052 49.4441 69.1707 50.0881 67.1264 51.3082C66.9875 51.391 66.8337 51.4455 66.6738 51.4687C66.5139 51.4919 66.351 51.4833 66.1944 51.4433C66.0378 51.4033 65.8906 51.3328 65.7612 51.2358C65.6318 51.1387 65.5227 51.017 65.4402 50.8777C65.3576 50.7383 65.3032 50.5841 65.2801 50.4236C65.257 50.2632 65.2656 50.0998 65.3055 49.9427C65.3453 49.7856 65.4156 49.6379 65.5123 49.5081C65.6091 49.3782 65.7303 49.2688 65.8692 49.186C68.2938 47.7391 71.0626 46.9754 73.8836 46.9754C76.7046 46.9754 79.4734 47.7391 81.898 49.186C82.1297 49.3241 82.3098 49.5349 82.4106 49.7857C82.5113 50.0366 82.5272 50.3137 82.4557 50.5745C82.3842 50.8353 82.2293 51.0653 82.0148 51.2291C81.8003 51.393 81.5381 51.4816 81.2685 51.4814V51.4837Z" fill="#082844"/>
<path fill-rule="evenodd" clip-rule="evenodd" d="M55.8288 33.078C58.2492 33.243 60.1417 34.4007 60.0565 35.6637C59.9713 36.9268 57.94 37.8176 55.5185 37.6537C53.0969 37.4898 51.2062 36.331 51.2908 35.0679C51.3753 33.8049 53.4084 32.9147 55.8288 33.078Z" fill="white"/>
<path fill-rule="evenodd" clip-rule="evenodd" d="M92.3987 33.078C89.9788 33.243 88.0852 34.4007 88.1715 35.6637C88.2579 36.9268 90.288 37.8176 92.7078 37.6537C95.1277 37.4898 97.0219 36.331 96.9367 35.0679C96.8515 33.8049 94.8191 32.9147 92.3987 33.078Z" fill="white"/>
<path fill-rule="evenodd" clip-rule="evenodd" d="M110.666 31.7471C112.883 7.13822 107.915 1.90137 95.763 16.0365C101.544 20.4312 106.577 25.7368 110.666 31.7471Z" fill="#FF6A9F"/>
<path d="M110.666 32.673C110.516 32.6729 110.368 32.6361 110.235 32.5657C110.102 32.4953 109.989 32.3935 109.904 32.2691C105.872 26.3395 100.907 21.1061 95.203 16.7734C95.1025 16.697 95.0186 16.6008 94.9566 16.4906C94.8946 16.3804 94.8558 16.2587 94.8425 16.1329C94.8292 16.0071 94.8418 15.8798 94.8794 15.7591C94.917 15.6383 94.9789 15.5266 95.0612 15.4308C100.636 8.94768 104.809 6.41754 107.818 7.69753C111.721 9.35738 112.917 17.0256 111.584 31.8302C111.563 32.0604 111.457 32.2745 111.287 32.4304C111.117 32.5864 110.895 32.6729 110.665 32.673H110.666ZM97.1024 15.9025C101.966 19.7095 106.289 24.1637 109.954 29.142C111.091 13.5801 108.691 10.079 107.099 9.40244C105.679 8.79785 102.797 9.46975 97.1042 15.9025H97.1024Z" fill="#082844"/>
<path fill-rule="evenodd" clip-rule="evenodd" d="M37.8107 31.7471C35.5939 7.13822 40.5617 1.90137 52.7142 16.0365C46.9326 20.4308 41.8995 25.7365 37.8107 31.7471Z" fill="#FF6A9F"/>
<path d="M37.8108 32.673C37.5803 32.6729 37.3583 32.5864 37.1881 32.4305C37.018 32.2745 36.9122 32.0604 36.8914 31.8302C35.5584 17.0227 36.7549 9.35563 40.6564 7.69754C43.6655 6.41813 47.8366 8.94769 53.4125 15.4308C53.4948 15.5266 53.5566 15.6383 53.5943 15.759C53.6319 15.8798 53.6445 16.0069 53.6312 16.1327C53.618 16.2585 53.5793 16.3802 53.5174 16.4904C53.4555 16.6006 53.3717 16.6969 53.2713 16.7734C47.5665 21.1054 42.6014 26.3389 38.5703 32.2692C38.4858 32.3932 38.3725 32.4948 38.2402 32.5651C38.1079 32.6355 37.9605 32.6725 37.8108 32.673ZM42.2946 9.2257C41.9802 9.22134 41.6682 9.28108 41.3775 9.40128C39.7861 10.0784 37.3861 13.5819 38.5231 29.1414C42.1868 24.1633 46.5097 19.7094 51.3724 15.9025C46.7043 10.628 43.928 9.2257 42.2946 9.2257Z" fill="#082844"/>
<g opacity="0.3">
<path fill-rule="evenodd" clip-rule="evenodd" d="M37.7594 28.953C39.2151 29.0197 40.6514 28.0364 42.0682 26.0032C40.1446 15.9513 40.9719 10.1112 44.5499 8.48298C37.8738 7.55825 35.6103 14.3816 37.7594 28.953Z" fill="#082844"/>
</g>
<g opacity="0.3">
<path fill-rule="evenodd" clip-rule="evenodd" d="M111.068 28.953C109.613 29.0197 108.176 28.0364 106.76 26.0032C108.683 15.9513 107.856 10.1112 104.278 8.48298C110.954 7.55825 113.217 14.3816 111.068 28.953Z" fill="#082844"/>
</g>
<g opacity="0.2">
<path fill-rule="evenodd" clip-rule="evenodd" d="M37.5167 117.154C38.4501 112.947 39.3604 109.405 40.2475 106.525C28.0095 115.917 0.519795 87.1159 4.63841 74.361C-1.85648 84.4277 2.12193 95.4752 16.5736 107.503C23.6694 113.154 30.6504 116.371 37.5167 117.154Z" fill="#082844"/>
</g>
<g opacity="0.2">
<path fill-rule="evenodd" clip-rule="evenodd" d="M110.244 143.817C109.208 130.483 108.406 117.907 107.84 106.09C112.682 121.332 115.605 132.622 116.61 139.96C116.968 140.998 117.626 141.907 118.499 142.57C119.372 143.233 120.422 143.622 121.516 143.686C122.609 143.751 123.697 143.489 124.642 142.933C125.586 142.376 126.346 141.552 126.823 140.563C126.559 142.406 125.731 144.122 124.452 145.472C123.173 146.821 121.507 147.739 119.686 148.096C117.864 148.454 115.976 148.234 114.285 147.468C112.593 146.701 111.181 145.425 110.244 143.817Z" fill="#082844"/>
</g>
<g opacity="0.2">
<path fill-rule="evenodd" clip-rule="evenodd" d="M71.1522 152.376C68.0697 151.153 65.3531 150.211 63.0025 149.55C62.6595 156.844 61.5466 161.763 59.6639 164.309C64.6331 167.16 67.216 170.756 67.4128 175.096C70.3865 168.307 71.6329 160.734 71.1522 152.376Z" fill="#082844"/>
</g>
<g opacity="0.2">
<path fill-rule="evenodd" clip-rule="evenodd" d="M85.764 149.401C81.9371 150.605 79.4233 151.23 78.2227 151.274C76.9475 164.378 77.7492 171.998 80.628 174.135C84.2286 167.083 87.6899 163.362 91.012 162.97C87.1174 160.221 85.3683 155.699 85.7646 149.403" fill="#082844"/>
</g>
<g opacity="0.2">
<path fill-rule="evenodd" clip-rule="evenodd" d="M66.9945 176.237C58.4073 177.369 51.878 177.39 47.4066 176.301C67.187 178.408 67.2885 167.619 51.6717 162.742C61.0325 163.967 66.1401 168.466 66.9945 176.237Z" fill="#082844"/>
</g>
<g opacity="0.2">
<path fill-rule="evenodd" clip-rule="evenodd" d="M81.6407 176.237C90.2268 177.369 96.7555 177.39 101.227 176.301C81.6255 177.684 81.4663 167.378 96.9618 162.742C87.601 163.967 82.494 168.465 81.6407 176.237Z" fill="#082844"/>
</g>
<g opacity="0.2">
<path fill-rule="evenodd" clip-rule="evenodd" d="M39.5089 147.749C40.2749 151.378 40.7556 153.209 40.7556 153.209C38.5656 155.109 33.3467 155.579 28.5765 155.6C25.071 155.449 25.4934 153.504 26.2938 151.411C20.3364 149.52 13.6474 142.567 12.5361 139.535C16.223 138.891 17.2194 139.996 16.7789 138.56C15.0778 135.408 14.8101 132.279 15.0288 129.082C20.1473 138.848 29.899 145.258 39.5101 147.748" fill="#082844"/>
</g>
<g opacity="0.2">
<path fill-rule="evenodd" clip-rule="evenodd" d="M104.934 90.8698C106.256 90.926 106.73 91.5407 106.357 92.714C87.2358 105.959 61.925 105.889 42.8756 92.5414L42.7793 90.3835C52.3125 95.5494 62.9616 98.2947 73.7962 98.3795C84.6308 98.4643 95.3212 95.886 104.934 90.8698Z" fill="#082844"/>
</g>
<g opacity="0.3">
<path fill-rule="evenodd" clip-rule="evenodd" d="M125.107 95.5848C117.804 97.35 112.163 96.0205 108.185 91.5962C114.6 90.481 120.241 91.8106 125.107 95.5848Z" fill="#082844"/>
</g>
<g opacity="0.3">
<path fill-rule="evenodd" clip-rule="evenodd" d="M118.558 88.5943C115.773 89.0918 113.19 88.931 110.809 88.112C117.775 86.181 122.1 84.2324 123.785 82.2663C123.92 86.22 122.178 88.3293 118.558 88.5943Z" fill="#082844"/>
</g>
<path d="M74.3777 59.0344C76.2886 59.0344 77.8377 58.7063 77.8377 58.3016C77.8377 57.8969 76.2886 57.5688 74.3777 57.5688C72.4668 57.5688 70.9177 57.8969 70.9177 58.3016C70.9177 58.7063 72.4668 59.0344 74.3777 59.0344Z" fill="white"/>
<path d="M91.4146 45.1388C94.2527 44.5769 96.9963 47.7081 97.54 52.1316C98.0837 56.5552 96.2274 60.5965 93.3893 61.1583C90.5512 61.7202 87.8082 58.5896 87.2639 54.1661C86.7196 49.7425 88.5741 45.7006 91.4146 45.1388Z" fill="#082844"/>
<path d="M91.6753 46.9888C92.5964 47.3178 93.0386 48.8032 92.6624 50.3021C92.2861 51.801 91.2337 52.7526 90.3119 52.4231C89.3902 52.0936 88.9486 50.6088 89.3255 49.1104C89.7023 47.6121 90.7536 46.6599 91.6753 46.9888Z" fill="white"/>
<path d="M95.0524 56.3064C95.4935 56.6119 95.574 57.4436 95.2321 58.1652C94.8903 58.8869 94.255 59.2234 93.8139 58.9179C93.3729 58.6124 93.2889 57.7807 93.6343 57.0597C93.9796 56.3386 94.6114 56.0015 95.0524 56.3064Z" fill="#7B98B3"/>
<path d="M60.0259 53.5212C60.3427 49.0667 58.2706 45.2889 55.3978 45.0833C52.5251 44.8777 49.9395 48.3222 49.6228 52.7767C49.3061 57.2313 51.3782 61.0091 54.2509 61.2146C57.1237 61.4202 59.7092 57.9758 60.0259 53.5212Z" fill="#082844"/>
<path d="M55.5494 46.9888C54.6276 47.3178 54.186 48.8032 54.5623 50.3021C54.9386 51.801 55.991 52.7526 56.9127 52.4231C57.8344 52.0936 58.2755 50.6088 57.8992 49.1104C57.5229 47.6121 56.4705 46.6599 55.5494 46.9888Z" fill="white"/>
<path d="M52.1722 56.3064C51.7306 56.6119 51.6507 57.4436 51.9925 58.1652C52.3344 58.8869 52.9697 59.2234 53.4107 58.9179C53.8517 58.6124 53.9322 57.7807 53.5904 57.0597C53.2485 56.3386 52.6132 56.0015 52.1722 56.3064Z" fill="#7B98B3"/>
</g>
<defs>
<clipPath id="clip0_3_175">
<rect width="130" height="184" fill="white"/>
</clipPath>
</defs>
</svg>
